<?xml version="1.0" standalone="no"?><!DOCTYPE svg PUBLIC "-//W3C//DTD SVG 1.1//EN" "http://www.w3.org/Graphics/SVG/1.1/DTD/svg11.dtd" ><svg version="1.1" xmlns="http://www.w3.org/2000/svg"><defs><font horiz-adv-x="0" id="font"><font-face ascent="820" bbox="-220 -285 1120 1100.9412" cap-height="687" descent="-180" font-family="Copyright House Industries" font-stretch="normal" font-style="normal" font-weight="700" units-per-em="1000" x-height="469" /><missing-glyph horiz-adv-x="224" /><glyph d="M516 211Q490 212 459 212.5Q428 213 395.5 213Q363 213 331.5 212.5Q300 212 273 212L264 185Q249 137 258.5 114Q268 91 309 91H347Q347 86 347 72.5Q347 59 346.5 44.5Q346 30 346 16.5Q346 3 346 -2Q317 -2 288 -1Q263 -1 235.5 -0.5Q208 0 187 0Q165 0 138 -0.5Q111 -1 86 -1Q57 -2 28 -2V91H54Q76 91 92 96Q108 101 120 111.5Q132 122 142 138.5Q152 155 161 179Q164 187 178 224Q192 261 211.5 313Q231 365 253.5 425.5Q276 486 296.5 540.5Q317 595 333 637.5Q349 680 355 696Q371 695 387 694Q401 693 416.5 693Q432 693 444 693Q456 693 471.5 693Q487 693 501 694Q517 695 533 696Q543 667 559.5 623Q576 579 595.5 528.5Q615 478 636 424.5Q657 371 675.5 323.5Q694 276 709.5 237.5Q725 199 734 178Q756 127 776 109Q796 91 825 91H856V-2Q818 -2 781 -1Q749 -1 714 -0.5Q679 0 651 0Q623 0 587.5 -0.5Q552 -1 520 -1Q483 -2 445 -2Q445 3 445 16.5Q445 30 445 44.5Q445 59 445 72.5Q445 86 445 91H485Q523 91 530.5 115Q538 139 524 187ZM495 271Q484 302 471 338Q458 374 444.5 411Q431 448 417.5 483Q404 518 393 547Q382 518 369 482.5Q356 447 342.5 410.5Q329 374 316 337.5Q303 301 293 271Q340 270 395 270Q450 270 495 271Z" glyph-name="A" horiz-adv-x="884" unicode="A" /><glyph d="M406 165Q387 165 363.5 165.5Q340 166 315.5 166Q291 166 267.5 166Q244 166 224 166L219 151Q194 78 253 78H281Q281 73 281 62Q281 51 281 38Q281 25 281 13.5Q281 2 281 -2Q258 -2 235 -1Q215 -1 192.5 -0.5Q170 0 153 0Q136 0 114 -0.5Q92 -1 72 -1Q49 -2 26 -2Q27 12 27 27Q27 42 27 53Q27 66 26 78H44Q79 78 96.5 94.5Q114 111 130 148Q136 162 148.5 193Q161 224 176.5 262.5Q192 301 208.5 343.5Q225 386 240 424Q255 462 266 491.5Q277 521 282 534Q296 533 311 532Q323 531 337 531Q351 531 362 531Q373 531 386 531Q399 531 411 532Q425 533 439 534Q445 517 456.5 487.5Q468 458 482.5 421Q497 384 513 344Q529 304 544.5 266.5Q560 229 573 197.5Q586 166 595 147Q614 106 629 92Q644 78 667 78H689Q688 66 688 53Q688 42 688 27.5Q688 13 689 -2Q658 -2 627 -1Q601 -1 571 -0.5Q541 0 518 0Q495 0 466 -0.5Q437 -1 411 -1Q381 -2 350 -2Q350 2 350 13.5Q350 25 350 38Q350 51 350 62Q350 73 350 78H381Q411 78 418 97.5Q425 117 411 152ZM239 207Q274 206 315.5 206Q357 206 391 207Q372 258 353 308Q334 358 314 409Q305 386 295.5 360Q286 334 276 307.5Q266 281 256.5 255Q247 229 239 207Z" glyph-name="A.sc" horiz-adv-x="715" /><glyph d="M335 274Q371 274 410 274Q449 274 484 275Q484 311 484 349.5Q484 388 484 423Q484 458 483 487Q482 516 481 533Q442 469 403 399.5Q364 330 335 274ZM662 318Q662 263 662 217Q662 171 664 151Q666 116 681.5 103.5Q697 91 723 91H828Q865 91 891 100Q917 109 933 129Q949 149 956.5 182Q964 215 964 262V272Q970 272 984 271.5Q998 271 1013 271Q1028 271 1042 271.5Q1056 272 1062 272Q1059 244 1057.5 209.5Q1056 175 1054.5 138Q1053 101 1052.5 64Q1052 27 1052 -5Q1034 -4 1006 -3Q978 -2 948.5 -1.5Q919 -1 891.5 -1Q864 -1 848 -1H719Q694 -1 669 -1Q644 -1 623 -0.5Q602 0 587 0Q572 0 566 0Q547 0 519 0Q491 0 463.5 -0.5Q436 -1 413 -1.5Q390 -2 382 -2Q382 3 382.5 16.5Q383 30 383 44.5Q383 59 382.5 72.5Q382 86 382 91H421Q456 91 467.5 108Q479 125 482 155Q482 159 482.5 167Q483 175 483.5 184Q484 193 484 202Q484 211 484 217Q440 218 393.5 218Q347 218 305 217L290 185Q270 142 274 116.5Q278 91 319 91H348Q348 86 347.5 72.5Q347 59 347 44.5Q347 30 347 16.5Q347 3 347 -2Q317 -2 288 -1Q263 -1 235.5 -0.5Q208 0 187 0Q165 0 138 -0.5Q111 -1 86 -1Q57 -2 28 -2Q29 15 29 31.5Q29 48 29 62Q29 77 28 91H54Q97 91 124 111.5Q151 132 180 179Q192 198 216 236Q240 274 269.5 322.5Q299 371 331.5 426Q364 481 394 535Q410 564 401.5 583.5Q393 603 359 603H339Q340 620 340 635.5Q340 651 340 664Q340 679 339 693Q364 691 398 690Q432 689 466 688.5Q500 688 530 688Q560 688 577 688Q595 688 617 688Q639 688 669 688.5Q699 689 738 689Q777 689 830 689Q846 689 877 689Q908 689 942.5 689.5Q977 690 1008.5 691.5Q1040 693 1058 695Q1056 668 1054.5 634Q1053 600 1052.5 565Q1052 530 1052 496.5Q1052 463 1052 436Q1046 436 1033.5 436.5Q1021 437 1006.5 437Q992 437 979.5 436.5Q967 436 961 436V443Q961 491 952.5 521Q944 551 927 568Q910 585 885.5 591Q861 597 828 597H721Q692 597 679 583Q666 569 664 541Q662 519 662 474.5Q662 430 662 378H695Q749 378 770 400Q791 422 791 475V501Q805 500 817.5 500Q830 500 841 500Q853 500 865 501Q864 479 863 463Q862 447 861.5 430.5Q861 414 860.5 394.5Q860 375 860 348Q860 320 860.5 299.5Q861 279 861.5 261.5Q862 244 863 227.5Q864 211 865 192Q854 193 842 193Q831 193 818.5 193Q806 193 793 192V215Q793 242 788 261.5Q783 281 772 293.5Q761 306 741.5 312Q722 318 693 318Z" glyph-name="AE" horiz-adv-x="1090" unicode="&#198;" /><glyph d="M834 210Q832 189 830.5 162Q829 135 828 106.5Q827 78 826.5 49.5Q826 21 826 -4Q812 -3 789.5 -2Q767 -1 743 -0.5Q719 0 696.5 0Q674 0 662 0H438Q428 0 405 -0.5Q382 -1 358 -1Q330 -2 297 -2V78H327Q353 78 362 91.5Q371 105 373 129Q374 140 374 149Q374 158 374 166Q341 167 304.5 167Q268 167 237 166L226 143Q212 113 215 95.5Q218 78 249 78H271Q271 74 271 62.5Q271 51 271 38Q271 25 271 13.5Q271 2 271 -2Q248 -2 226 -1Q207 -1 186 -0.5Q165 0 148 0Q131 0 110 -0.5Q89 -1 70 -1Q48 -2 26 -2V78H46Q78 78 98 93Q118 108 142 142Q152 157 174.5 189.5Q197 222 222.5 260.5Q248 299 272.5 337Q297 375 312 402Q325 423 318 438Q311 453 285 453H263V528Q278 527 301 526.5Q324 526 350 526Q376 526 402 526Q428 526 448 526H648Q660 526 685.5 526Q711 526 738.5 526.5Q766 527 791.5 528Q817 529 831 530Q830 509 829 483Q828 457 827 430.5Q826 404 826 378.5Q826 353 826 332Q821 332 809.5 332Q798 332 785.5 332Q773 332 761 331.5Q749 331 745 331V337Q745 373 738 394.5Q731 416 718 428Q705 440 686 443.5Q667 447 642 447H566Q525 447 522 405Q520 388 520 356Q520 324 520 287H545Q587 287 601.5 304.5Q616 322 616 363V381Q627 380 637.5 380.5Q648 381 656 381H675Q673 350 672.5 323.5Q672 297 672 266Q672 245 672 229Q672 213 672.5 199.5Q673 186 673.5 174Q674 162 675 147H657H617V165Q616 204 603 223.5Q590 243 552 243H520Q520 205 520 176.5Q520 148 522 126Q524 99 535.5 88.5Q547 78 568 78H642Q670 78 689.5 84Q709 90 722 104Q735 118 741 142.5Q747 167 747 203V210Q752 210 764.5 209.5Q777 209 790.5 209Q804 209 816.5 209.5Q829 210 834 210ZM261 209Q289 209 318.5 209Q348 209 375 210Q375 233 375 257.5Q375 282 375 305.5Q375 329 374.5 350Q374 371 373 386Q343 341 313.5 294Q284 247 261 209Z" glyph-name="AE.sc" horiz-adv-x="865" /><glyph d="M335 274Q371 274 410 274Q449 274 484 275Q484 311 484 349.5Q484 388 484 423Q484 458 483 487Q482 516 481 533Q442 469 403 399.5Q364 330 335 274ZM662 318Q662 263 662 217Q662 171 664 151Q666 116 681.5 103.5Q697 91 723 91H828Q865 91 891 100Q917 109 933 129Q949 149 956.5 182Q964 215 964 262V272Q970 272 984 271.5Q998 271 1013 271Q1028 271 1042 271.5Q1056 272 1062 272Q1059 244 1057.5 209.5Q1056 175 1054.5 138Q1053 101 1052.5 64Q1052 27 1052 -5Q1034 -4 1006 -3Q978 -2 948.5 -1.5Q919 -1 891.5 -1Q864 -1 848 -1H719Q694 -1 669 -1Q644 -1 623 -0.5Q602 0 587 0Q572 0 566 0Q547 0 519 0Q491 0 463.5 -0.5Q436 -1 413 -1.5Q390 -2 382 -2Q382 3 382.5 16.5Q383 30 383 44.5Q383 59 382.5 72.5Q382 86 382 91H421Q456 91 467.5 108Q479 125 482 155Q482 159 482.5 167Q483 175 483.5 184Q484 193 484 202Q484 211 484 217Q440 218 393.5 218Q347 218 305 217L290 185Q270 142 274 116.5Q278 91 319 91H348Q348 86 347.5 72.5Q347 59 347 44.5Q347 30 347 16.5Q347 3 347 -2Q317 -2 288 -1Q263 -1 235.5 -0.5Q208 0 187 0Q165 0 138 -0.5Q111 -1 86 -1Q57 -2 28 -2Q29 15 29 31.5Q29 48 29 62Q29 77 28 91H54Q97 91 124 111.5Q151 132 180 179Q192 198 216 236Q240 274 269.5 322.5Q299 371 331.5 426Q364 481 394 535Q410 564 401.5 583.5Q393 603 359 603H339Q340 620 340 635.5Q340 651 340 664Q340 679 339 693Q364 691 398 690Q432 689 466 688.5Q500 688 530 688Q560 688 577 688Q595 688 617 688Q639 688 669 688.5Q699 689 738 689Q777 689 830 689Q846 689 877 689Q908 689 942.5 689.5Q977 690 1008.5 691.5Q1040 693 1058 695Q1056 668 1054.5 634Q1053 600 1052.5 565Q1052 530 1052 496.5Q1052 463 1052 436Q1046 436 1033.5 436.5Q1021 437 1006.5 437Q992 437 979.5 436.5Q967 436 961 436V443Q961 491 952.5 521Q944 551 927 568Q910 585 885.5 591Q861 597 828 597H721Q692 597 679 583Q666 569 664 541Q662 519 662 474.5Q662 430 662 378H695Q749 378 770 400Q791 422 791 475V501Q805 500 817.5 500Q830 500 841 500Q853 500 865 501Q864 479 863 463Q862 447 861.5 430.5Q861 414 860.5 394.5Q860 375 860 348Q860 320 860.5 299.5Q861 279 861.5 261.5Q862 244 863 227.5Q864 211 865 192Q854 193 842 193Q831 193 818.5 193Q806 193 793 192V215Q793 242 788 261.5Q783 281 772 293.5Q761 306 741.5 312Q722 318 693 318ZM632 754Q645 771 660.5 790Q676 809 693 827Q710 845 727.5 860Q745 875 760 885Q785 898 804 894Q823 890 831 876Q839 862 834 843.5Q829 825 805 810Q772 789 725.5 770.5Q679 752 640 742Z" glyph-name="AEacute" horiz-adv-x="1090" unicode="&#508;" /><glyph d="M834 210Q832 189 830.5 162Q829 135 828 106.5Q827 78 826.5 49.5Q826 21 826 -4Q812 -3 789.5 -2Q767 -1 743 -0.5Q719 0 696.5 0Q674 0 662 0H438Q428 0 405 -0.5Q382 -1 358 -1Q330 -2 297 -2V78H327Q353 78 362 91.5Q371 105 373 129Q374 140 374 149Q374 158 374 166Q341 167 304.5 167Q268 167 237 166L226 143Q212 113 215 95.5Q218 78 249 78H271Q271 74 271 62.5Q271 51 271 38Q271 25 271 13.5Q271 2 271 -2Q248 -2 226 -1Q207 -1 186 -0.5Q165 0 148 0Q131 0 110 -0.5Q89 -1 70 -1Q48 -2 26 -2V78H46Q78 78 98 93Q118 108 142 142Q152 157 174.5 189.5Q197 222 222.5 260.5Q248 299 272.5 337Q297 375 312 402Q325 423 318 438Q311 453 285 453H263V528Q278 527 301 526.5Q324 526 350 526Q376 526 402 526Q428 526 448 526H648Q660 526 685.5 526Q711 526 738.5 526.5Q766 527 791.5 528Q817 529 831 530Q830 509 829 483Q828 457 827 430.5Q826 404 826 378.5Q826 353 826 332Q821 332 809.5 332Q798 332 785.5 332Q773 332 761 331.5Q749 331 745 331V337Q745 373 738 394.5Q731 416 718 428Q705 440 686 443.5Q667 447 642 447H566Q525 447 522 405Q520 388 520 356Q520 324 520 287H545Q587 287 601.5 304.5Q616 322 616 363V381Q627 380 637.5 380.5Q648 381 656 381H675Q673 350 672.5 323.5Q672 297 672 266Q672 245 672 229Q672 213 672.5 199.5Q673 186 673.5 174Q674 162 675 147H657H617V165Q616 204 603 223.5Q590 243 552 243H520Q520 205 520 176.5Q520 148 522 126Q524 99 535.5 88.5Q547 78 568 78H642Q670 78 689.5 84Q709 90 722 104Q735 118 741 142.5Q747 167 747 203V210Q752 210 764.5 209.5Q777 209 790.5 209Q804 209 816.5 209.5Q829 210 834 210ZM261 209Q289 209 318.5 209Q348 209 375 210Q375 233 375 257.5Q375 282 375 305.5Q375 329 374.5 350Q374 371 373 386Q343 341 313.5 294Q284 247 261 209ZM516 592Q529 609 544.5 628Q560 647 577 665Q594 683 611.5 698Q629 713 644 723Q669 736 688 732Q707 728 715 714Q723 700 718 681.5Q713 663 689 648Q656 627 609.5 608.5Q563 590 524 580Z" glyph-name="AEacute.sc" horiz-adv-x="865" /><glyph d="M516 211Q490 212 459 212.5Q428 213 395.5 213Q363 213 331.5 212.5Q300 212 273 212L264 185Q249 137 258.5 114Q268 91 309 91H347Q347 86 347 72.5Q347 59 346.5 44.5Q346 30 346 16.5Q346 3 346 -2Q317 -2 288 -1Q263 -1 235.5 -0.5Q208 0 187 0Q165 0 138 -0.5Q111 -1 86 -1Q57 -2 28 -2V91H54Q76 91 92 96Q108 101 120 111.5Q132 122 142 138.5Q152 155 161 179Q164 187 178 224Q192 261 211.5 313Q231 365 253.5 425.5Q276 486 296.5 540.5Q317 595 333 637.5Q349 680 355 696Q371 695 387 694Q401 693 416.5 693Q432 693 444 693Q456 693 471.5 693Q487 693 501 694Q517 695 533 696Q543 667 559.5 623Q576 579 595.5 528.5Q615 478 636 424.5Q657 371 675.5 323.5Q694 276 709.5 237.5Q725 199 734 178Q756 127 776 109Q796 91 825 91H856V-2Q818 -2 781 -1Q749 -1 714 -0.5Q679 0 651 0Q623 0 587.5 -0.5Q552 -1 520 -1Q483 -2 445 -2Q445 3 445 16.5Q445 30 445 44.5Q445 59 445 72.5Q445 86 445 91H485Q523 91 530.5 115Q538 139 524 187ZM495 271Q484 302 471 338Q458 374 444.5 411Q431 448 417.5 483Q404 518 393 547Q382 518 369 482.5Q356 447 342.5 410.5Q329 374 316 337.5Q303 301 293 271Q340 270 395 270Q450 270 495 271ZM396 754Q409 771 424.5 790Q440 809 457 827Q474 845 491.5 860Q509 875 524 885Q549 898 568 894Q587 890 595 876Q603 862 598 843.5Q593 825 569 810Q536 789 489.5 770.5Q443 752 404 742Z" glyph-name="Aacute" horiz-adv-x="884" unicode="&#193;" /><glyph d="M406 165Q387 165 363.5 165.5Q340 166 315.5 166Q291 166 267.5 166Q244 166 224 166L219 151Q194 78 253 78H281Q281 73 281 62Q281 51 281 38Q281 25 281 13.5Q281 2 281 -2Q258 -2 235 -1Q215 -1 192.5 -0.5Q170 0 153 0Q136 0 114 -0.5Q92 -1 72 -1Q49 -2 26 -2Q27 12 27 27Q27 42 27 53Q27 66 26 78H44Q79 78 96.5 94.5Q114 111 130 148Q136 162 148.5 193Q161 224 176.5 262.5Q192 301 208.5 343.5Q225 386 240 424Q255 462 266 491.5Q277 521 282 534Q296 533 311 532Q323 531 337 531Q351 531 362 531Q373 531 386 531Q399 531 411 532Q425 533 439 534Q445 517 456.5 487.5Q468 458 482.5 421Q497 384 513 344Q529 304 544.5 266.5Q560 229 573 197.5Q586 166 595 147Q614 106 629 92Q644 78 667 78H689Q688 66 688 53Q688 42 688 27.5Q688 13 689 -2Q658 -2 627 -1Q601 -1 571 -0.5Q541 0 518 0Q495 0 466 -0.5Q437 -1 411 -1Q381 -2 350 -2Q350 2 350 13.5Q350 25 350 38Q350 51 350 62Q350 73 350 78H381Q411 78 418 97.5Q425 117 411 152ZM239 207Q274 206 315.5 206Q357 206 391 207Q372 258 353 308Q334 358 314 409Q305 386 295.5 360Q286 334 276 307.5Q266 281 256.5 255Q247 229 239 207ZM322 598Q335 615 350.5 634Q366 653 383 671Q400 689 417.5 704Q435 719 450 729Q475 742 494 738Q513 734 521 720Q529 706 524 687.5Q519 669 495 654Q462 633 415.5 614.5Q369 596 330 586Z" glyph-name="Aacute.sc" horiz-adv-x="715" /><glyph d="M516 211Q490 212 459 212.5Q428 213 395.5 213Q363 213 331.5 212.5Q300 212 273 212L264 185Q249 137 258.5 114Q268 91 309 91H347Q347 86 347 72.5Q347 59 346.5 44.5Q346 30 346 16.5Q346 3 346 -2Q317 -2 288 -1Q263 -1 235.5 -0.5Q208 0 187 0Q165 0 138 -0.5Q111 -1 86 -1Q57 -2 28 -2V91H54Q76 91 92 96Q108 101 120 111.5Q132 122 142 138.5Q152 155 161 179Q164 187 178 224Q192 261 211.5 313Q231 365 253.5 425.5Q276 486 296.5 540.5Q317 595 333 637.5Q349 680 355 696Q371 695 387 694Q401 693 416.5 693Q432 693 444 693Q456 693 471.5 693Q487 693 501 694Q517 695 533 696Q543 667 559.5 623Q576 579 595.5 528.5Q615 478 636 424.5Q657 371 675.5 323.5Q694 276 709.5 237.5Q725 199 734 178Q756 127 776 109Q796 91 825 91H856V-2Q818 -2 781 -1Q749 -1 714 -0.5Q679 0 651 0Q623 0 587.5 -0.5Q552 -1 520 -1Q483 -2 445 -2Q445 3 445 16.5Q445 30 445 44.5Q445 59 445 72.5Q445 86 445 91H485Q523 91 530.5 115Q538 139 524 187ZM495 271Q484 302 471 338Q458 374 444.5 411Q431 448 417.5 483Q404 518 393 547Q382 518 369 482.5Q356 447 342.5 410.5Q329 374 316 337.5Q303 301 293 271Q340 270 395 270Q450 270 495 271ZM442 746Q404 746 376.5 757.5Q349 769 331.5 788.5Q314 808 307.5 834.5Q301 861 305 891L328 892Q331 855 361.5 842Q392 829 442 829Q492 829 522.5 842Q553 855 556 892L579 891Q583 861 576.5 834.5Q570 808 553 788.5Q536 769 508 757.5Q480 746 442 746Z" glyph-name="Abreve" horiz-adv-x="884" unicode="&#258;" /><glyph d="M406 165Q387 165 363.5 165.5Q340 166 315.5 166Q291 166 267.5 166Q244 166 224 166L219 151Q194 78 253 78H281Q281 73 281 62Q281 51 281 38Q281 25 281 13.5Q281 2 281 -2Q258 -2 235 -1Q215 -1 192.5 -0.5Q170 0 153 0Q136 0 114 -0.5Q92 -1 72 -1Q49 -2 26 -2Q27 12 27 27Q27 42 27 53Q27 66 26 78H44Q79 78 96.5 94.5Q114 111 130 148Q136 162 148.5 193Q161 224 176.5 262.5Q192 301 208.5 343.5Q225 386 240 424Q255 462 266 491.5Q277 521 282 534Q296 533 311 532Q323 531 337 531Q351 531 362 531Q373 531 386 531Q399 531 411 532Q425 533 439 534Q445 517 456.5 487.5Q468 458 482.5 421Q497 384 513 344Q529 304 544.5 266.5Q560 229 573 197.5Q586 166 595 147Q614 106 629 92Q644 78 667 78H689Q688 66 688 53Q688 42 688 27.5Q688 13 689 -2Q658 -2 627 -1Q601 -1 571 -0.5Q541 0 518 0Q495 0 466 -0.5Q437 -1 411 -1Q381 -2 350 -2Q350 2 350 13.5Q350 25 350 38Q350 51 350 62Q350 73 350 78H381Q411 78 418 97.5Q425 117 411 152ZM239 207Q274 206 315.5 206Q357 206 391 207Q372 258 353 308Q334 358 314 409Q305 386 295.5 360Q286 334 276 307.5Q266 281 256.5 255Q247 229 239 207ZM357 594Q319 594 291.5 605.5Q264 617 246.5 636.5Q229 656 222.5 682.5Q216 709 220 739L243 740Q246 703 276.5 690Q307 677 357 677Q407 677 437.5 690Q468 703 471 740L494 739Q498 709 491.5 682.5Q485 656 468 636.5Q451 617 423 605.5Q395 594 357 594Z" glyph-name="Abreve.sc" horiz-adv-x="715" /><glyph d="M516 211Q490 212 459 212.5Q428 213 395.5 213Q363 213 331.5 212.5Q300 212 273 212L264 185Q249 137 258.5 114Q268 91 309 91H347Q347 86 347 72.5Q347 59 346.5 44.5Q346 30 346 16.5Q346 3 346 -2Q317 -2 288 -1Q263 -1 235.5 -0.5Q208 0 187 0Q165 0 138 -0.5Q111 -1 86 -1Q57 -2 28 -2V91H54Q76 91 92 96Q108 101 120 111.5Q132 122 142 138.5Q152 155 161 179Q164 187 178 224Q192 261 211.5 313Q231 365 253.5 425.5Q276 486 296.5 540.5Q317 595 333 637.5Q349 680 355 696Q371 695 387 694Q401 693 416.5 693Q432 693 444 693Q456 693 471.5 693Q487 693 501 694Q517 695 533 696Q543 667 559.5 623Q576 579 595.5 528.5Q615 478 636 424.5Q657 371 675.5 323.5Q694 276 709.5 237.5Q725 199 734 178Q756 127 776 109Q796 91 825 91H856V-2Q818 -2 781 -1Q749 -1 714 -0.5Q679 0 651 0Q623 0 587.5 -0.5Q552 -1 520 -1Q483 -2 445 -2Q445 3 445 16.5Q445 30 445 44.5Q445 59 445 72.5Q445 86 445 91H485Q523 91 530.5 115Q538 139 524 187ZM495 271Q484 302 471 338Q458 374 444.5 411Q431 448 417.5 483Q404 518 393 547Q382 518 369 482.5Q356 447 342.5 410.5Q329 374 316 337.5Q303 301 293 271Q340 270 395 270Q450 270 495 271ZM580 734Q565 739 546.5 747.5Q528 756 508.5 767Q489 778 471 790Q453 802 439 814Q426 803 408 791Q390 779 371 768Q352 757 333.5 748Q315 739 302 735L293 745Q302 766 315.5 787Q329 808 345 827Q361 846 377.5 862.5Q394 879 408 891H475Q488 880 504 864Q520 848 535.5 829Q551 810 565 788.5Q579 767 589 745Z" glyph-name="Acircumflex" horiz-adv-x="884" unicode="&#194;" /><glyph d="M406 165Q387 165 363.5 165.5Q340 166 315.5 166Q291 166 267.5 166Q244 166 224 166L219 151Q194 78 253 78H281Q281 73 281 62Q281 51 281 38Q281 25 281 13.5Q281 2 281 -2Q258 -2 235 -1Q215 -1 192.5 -0.5Q170 0 153 0Q136 0 114 -0.5Q92 -1 72 -1Q49 -2 26 -2Q27 12 27 27Q27 42 27 53Q27 66 26 78H44Q79 78 96.5 94.5Q114 111 130 148Q136 162 148.5 193Q161 224 176.5 262.5Q192 301 208.5 343.5Q225 386 240 424Q255 462 266 491.5Q277 521 282 534Q296 533 311 532Q323 531 337 531Q351 531 362 531Q373 531 386 531Q399 531 411 532Q425 533 439 534Q445 517 456.5 487.5Q468 458 482.5 421Q497 384 513 344Q529 304 544.5 266.5Q560 229 573 197.5Q586 166 595 147Q614 106 629 92Q644 78 667 78H689Q688 66 688 53Q688 42 688 27.5Q688 13 689 -2Q658 -2 627 -1Q601 -1 571 -0.5Q541 0 518 0Q495 0 466 -0.5Q437 -1 411 -1Q381 -2 350 -2Q350 2 350 13.5Q350 25 350 38Q350 51 350 62Q350 73 350 78H381Q411 78 418 97.5Q425 117 411 152ZM239 207Q274 206 315.5 206Q357 206 391 207Q372 258 353 308Q334 358 314 409Q305 386 295.5 360Q286 334 276 307.5Q266 281 256.5 255Q247 229 239 207ZM496 583Q481 588 462.5 596.5Q444 605 424.5 616Q405 627 387 639Q369 651 355 663Q342 652 324 640Q306 628 287 617Q268 606 249.5 597Q231 588 218 584L209 594Q218 615 231.5 636Q245 657 261 676Q277 695 293.5 711.5Q310 728 324 740H391Q404 729 420 713Q436 697 451.5 678Q467 659 481 637.5Q495 616 505 594Z" glyph-name="Acircumflex.sc" horiz-adv-x="715" /><glyph d="M516 211Q490 212 459 212.5Q428 213 395.5 213Q363 213 331.5 212.5Q300 212 273 212L264 185Q249 137 258.5 114Q268 91 309 91H347Q347 86 347 72.5Q347 59 346.5 44.5Q346 30 346 16.5Q346 3 346 -2Q317 -2 288 -1Q263 -1 235.5 -0.5Q208 0 187 0Q165 0 138 -0.5Q111 -1 86 -1Q57 -2 28 -2V91H54Q76 91 92 96Q108 101 120 111.5Q132 122 142 138.5Q152 155 161 179Q164 187 178 224Q192 261 211.5 313Q231 365 253.5 425.5Q276 486 296.5 540.5Q317 595 333 637.5Q349 680 355 696Q371 695 387 694Q401 693 416.5 693Q432 693 444 693Q456 693 471.5 693Q487 693 501 694Q517 695 533 696Q543 667 559.5 623Q576 579 595.5 528.5Q615 478 636 424.5Q657 371 675.5 323.5Q694 276 709.5 237.5Q725 199 734 178Q756 127 776 109Q796 91 825 91H856V-2Q818 -2 781 -1Q749 -1 714 -0.5Q679 0 651 0Q623 0 587.5 -0.5Q552 -1 520 -1Q483 -2 445 -2Q445 3 445 16.5Q445 30 445 44.5Q445 59 445 72.5Q445 86 445 91H485Q523 91 530.5 115Q538 139 524 187ZM495 271Q484 302 471 338Q458 374 444.5 411Q431 448 417.5 483Q404 518 393 547Q382 518 369 482.5Q356 447 342.5 410.5Q329 374 316 337.5Q303 301 293 271Q340 270 395 270Q450 270 495 271ZM414 812Q414 785 397.5 769.5Q381 754 355 754Q330 754 313.5 769.5Q297 785 297 812Q297 838 313.5 854Q330 870 355 870Q381 870 397.5 854Q414 838 414 812ZM586 812Q586 785 569.5 769.5Q553 754 527 754Q502 754 485.5 769.5Q469 785 469 812Q469 838 485.5 854Q502 870 527 870Q553 870 569.5 854Q586 838 586 812Z" glyph-name="Adieresis" horiz-adv-x="884" unicode="&#196;" /><glyph d="M406 165Q387 165 363.5 165.5Q340 166 315.5 166Q291 166 267.5 166Q244 166 224 166L219 151Q194 78 253 78H281Q281 73 281 62Q281 51 281 38Q281 25 281 13.5Q281 2 281 -2Q258 -2 235 -1Q215 -1 192.5 -0.5Q170 0 153 0Q136 0 114 -0.5Q92 -1 72 -1Q49 -2 26 -2Q27 12 27 27Q27 42 27 53Q27 66 26 78H44Q79 78 96.5 94.5Q114 111 130 148Q136 162 148.5 193Q161 224 176.5 262.5Q192 301 208.5 343.5Q225 386 240 424Q255 462 266 491.5Q277 521 282 534Q296 533 311 532Q323 531 337 531Q351 531 362 531Q373 531 386 531Q399 531 411 532Q425 533 439 534Q445 517 456.5 487.5Q468 458 482.5 421Q497 384 513 344Q529 304 544.5 266.5Q560 229 573 197.5Q586 166 595 147Q614 106 629 92Q644 78 667 78H689Q688 66 688 53Q688 42 688 27.5Q688 13 689 -2Q658 -2 627 -1Q601 -1 571 -0.5Q541 0 518 0Q495 0 466 -0.5Q437 -1 411 -1Q381 -2 350 -2Q350 2 350 13.5Q350 25 350 38Q350 51 350 62Q350 73 350 78H381Q411 78 418 97.5Q425 117 411 152ZM239 207Q274 206 315.5 206Q357 206 391 207Q372 258 353 308Q334 358 314 409Q305 386 295.5 360Q286 334 276 307.5Q266 281 256.5 255Q247 229 239 207ZM324 656Q324 629 307.5 613.5Q291 598 265 598Q240 598 223.5 613.5Q207 629 207 656Q207 682 223.5 698Q240 714 265 714Q291 714 307.5 698Q324 682 324 656ZM496 656Q496 629 479.5 613.5Q463 598 437 598Q412 598 395.5 613.5Q379 629 379 656Q379 682 395.5 698Q412 714 437 714Q463 714 479.5 698Q496 682 496 656Z" glyph-name="Adieresis.sc" horiz-adv-x="715" /><glyph d="M516 211Q490 212 459 212.5Q428 213 395.5 213Q363 213 331.5 212.5Q300 212 273 212L264 185Q249 137 258.5 114Q268 91 309 91H347Q347 86 347 72.5Q347 59 346.5 44.5Q346 30 346 16.5Q346 3 346 -2Q317 -2 288 -1Q263 -1 235.5 -0.5Q208 0 187 0Q165 0 138 -0.5Q111 -1 86 -1Q57 -2 28 -2V91H54Q76 91 92 96Q108 101 120 111.5Q132 122 142 138.5Q152 155 161 179Q164 187 178 224Q192 261 211.5 313Q231 365 253.5 425.5Q276 486 296.5 540.5Q317 595 333 637.5Q349 680 355 696Q371 695 387 694Q401 693 416.5 693Q432 693 444 693Q456 693 471.5 693Q487 693 501 694Q517 695 533 696Q543 667 559.5 623Q576 579 595.5 528.5Q615 478 636 424.5Q657 371 675.5 323.5Q694 276 709.5 237.5Q725 199 734 178Q756 127 776 109Q796 91 825 91H856V-2Q818 -2 781 -1Q749 -1 714 -0.5Q679 0 651 0Q623 0 587.5 -0.5Q552 -1 520 -1Q483 -2 445 -2Q445 3 445 16.5Q445 30 445 44.5Q445 59 445 72.5Q445 86 445 91H485Q523 91 530.5 115Q538 139 524 187ZM495 271Q484 302 471 338Q458 374 444.5 411Q431 448 417.5 483Q404 518 393 547Q382 518 369 482.5Q356 447 342.5 410.5Q329 374 316 337.5Q303 301 293 271Q340 270 395 270Q450 270 495 271ZM498 742Q479 747 456.5 754.5Q434 762 412 771.5Q390 781 369 791Q348 801 332 812Q308 827 302.5 846Q297 865 306 878.5Q315 892 334.5 895.5Q354 899 380 883Q412 863 446 826Q480 789 506 754Z" glyph-name="Agrave" horiz-adv-x="884" unicode="&#192;" /><glyph d="M406 165Q387 165 363.5 165.5Q340 166 315.5 166Q291 166 267.5 166Q244 166 224 166L219 151Q194 78 253 78H281Q281 73 281 62Q281 51 281 38Q281 25 281 13.5Q281 2 281 -2Q258 -2 235 -1Q215 -1 192.5 -0.5Q170 0 153 0Q136 0 114 -0.5Q92 -1 72 -1Q49 -2 26 -2Q27 12 27 27Q27 42 27 53Q27 66 26 78H44Q79 78 96.5 94.5Q114 111 130 148Q136 162 148.5 193Q161 224 176.5 262.5Q192 301 208.5 343.5Q225 386 240 424Q255 462 266 491.5Q277 521 282 534Q296 533 311 532Q323 531 337 531Q351 531 362 531Q373 531 386 531Q399 531 411 532Q425 533 439 534Q445 517 456.5 487.5Q468 458 482.5 421Q497 384 513 344Q529 304 544.5 266.5Q560 229 573 197.5Q586 166 595 147Q614 106 629 92Q644 78 667 78H689Q688 66 688 53Q688 42 688 27.5Q688 13 689 -2Q658 -2 627 -1Q601 -1 571 -0.5Q541 0 518 0Q495 0 466 -0.5Q437 -1 411 -1Q381 -2 350 -2Q350 2 350 13.5Q350 25 350 38Q350 51 350 62Q350 73 350 78H381Q411 78 418 97.5Q425 117 411 152ZM239 207Q274 206 315.5 206Q357 206 391 207Q372 258 353 308Q334 358 314 409Q305 386 295.5 360Q286 334 276 307.5Q266 281 256.5 255Q247 229 239 207ZM408 581Q389 586 366.5 593.5Q344 601 322 610.5Q300 620 279 630Q258 640 242 651Q218 666 212.5 685Q207 704 216 717.5Q225 731 244.5 734.5Q264 738 290 722Q322 702 356 665Q390 628 416 593Z" glyph-name="Agrave.sc" horiz-adv-x="715" /><glyph d="M516 211Q490 212 459 212.5Q428 213 395.5 213Q363 213 331.5 212.5Q300 212 273 212L264 185Q249 137 258.5 114Q268 91 309 91H347Q347 86 347 72.5Q347 59 346.5 44.5Q346 30 346 16.5Q346 3 346 -2Q317 -2 288 -1Q263 -1 235.5 -0.5Q208 0 187 0Q165 0 138 -0.5Q111 -1 86 -1Q57 -2 28 -2V91H54Q76 91 92 96Q108 101 120 111.5Q132 122 142 138.5Q152 155 161 179Q164 187 178 224Q192 261 211.5 313Q231 365 253.5 425.5Q276 486 296.5 540.5Q317 595 333 637.5Q349 680 355 696Q371 695 387 694Q401 693 416.5 693Q432 693 444 693Q456 693 471.5 693Q487 693 501 694Q517 695 533 696Q543 667 559.5 623Q576 579 595.5 528.5Q615 478 636 424.5Q657 371 675.5 323.5Q694 276 709.5 237.5Q725 199 734 178Q756 127 776 109Q796 91 825 91H856V-2Q818 -2 781 -1Q749 -1 714 -0.5Q679 0 651 0Q623 0 587.5 -0.5Q552 -1 520 -1Q483 -2 445 -2Q445 3 445 16.5Q445 30 445 44.5Q445 59 445 72.5Q445 86 445 91H485Q523 91 530.5 115Q538 139 524 187ZM495 271Q484 302 471 338Q458 374 444.5 411Q431 448 417.5 483Q404 518 393 547Q382 518 369 482.5Q356 447 342.5 410.5Q329 374 316 337.5Q303 301 293 271Q340 270 395 270Q450 270 495 271ZM310 759Q311 774 311 799Q311 824 310 840Q333 839 370 838.5Q407 838 447 838Q487 838 524 838.5Q561 839 584 840Q583 824 583 799.5Q583 775 584 759Q561 760 524 760Q487 760 447 760Q407 760 370 760Q333 760 310 759Z" glyph-name="Amacron" horiz-adv-x="884" unicode="&#256;" /><glyph d="M406 165Q387 165 363.5 165.5Q340 166 315.5 166Q291 166 267.5 166Q244 166 224 166L219 151Q194 78 253 78H281Q281 73 281 62Q281 51 281 38Q281 25 281 13.5Q281 2 281 -2Q258 -2 235 -1Q215 -1 192.5 -0.5Q170 0 153 0Q136 0 114 -0.5Q92 -1 72 -1Q49 -2 26 -2Q27 12 27 27Q27 42 27 53Q27 66 26 78H44Q79 78 96.5 94.5Q114 111 130 148Q136 162 148.5 193Q161 224 176.5 262.5Q192 301 208.5 343.5Q225 386 240 424Q255 462 266 491.5Q277 521 282 534Q296 533 311 532Q323 531 337 531Q351 531 362 531Q373 531 386 531Q399 531 411 532Q425 533 439 534Q445 517 456.5 487.5Q468 458 482.5 421Q497 384 513 344Q529 304 544.5 266.5Q560 229 573 197.5Q586 166 595 147Q614 106 629 92Q644 78 667 78H689Q688 66 688 53Q688 42 688 27.5Q688 13 689 -2Q658 -2 627 -1Q601 -1 571 -0.5Q541 0 518 0Q495 0 466 -0.5Q437 -1 411 -1Q381 -2 350 -2Q350 2 350 13.5Q350 25 350 38Q350 51 350 62Q350 73 350 78H381Q411 78 418 97.5Q425 117 411 152ZM239 207Q274 206 315.5 206Q357 206 391 207Q372 258 353 308Q334 358 314 409Q305 386 295.5 360Q286 334 276 307.5Q266 281 256.5 255Q247 229 239 207ZM223 598Q224 613 224 638Q224 663 223 679Q246 678 283 677.5Q320 677 360 677Q400 677 437 677.5Q474 678 497 679Q496 663 496 638.5Q496 614 497 598Q474 599 437 599Q400 599 360 599Q320 599 283 599Q246 599 223 598Z" glyph-name="Amacron.sc" horiz-adv-x="715" /><glyph d="M787 -71Q787 -101 781 -125.5Q775 -150 761 -168Q747 -186 724 -196Q701 -206 667 -206Q616 -206 586 -182Q556 -158 556 -114Q557 -73 580.5 -45Q604 -17 641 0Q612 0 578.5 -0.5Q545 -1 515 -1Q480 -2 445 -2Q445 3 445 16.5Q445 30 445 44.5Q445 59 445 72.5Q445 86 445 91H485Q523 91 530.5 115Q538 139 524 187L516 211Q490 212 459 212.5Q428 213 395.5 213Q363 213 331.5 212.5Q300 212 273 212L264 185Q249 137 258.5 114Q268 91 309 91H347Q347 86 347 72.5Q347 59 346.5 44.5Q346 30 346 16.5Q346 3 346 -2Q317 -2 288 -1Q263 -1 235.5 -0.5Q208 0 187 0Q165 0 138 -0.5Q111 -1 86 -1Q57 -2 28 -2V91H54Q76 91 92 96Q108 101 120 111.5Q132 122 142 138.5Q152 155 161 179Q164 187 178 224Q192 261 211.5 313Q231 365 253.5 425.5Q276 486 296.5 540.5Q317 595 333 637.5Q349 680 355 696Q371 695 387 694Q401 693 416.5 693Q432 693 444 693Q456 693 471.5 693Q487 693 501 694Q517 695 533 696Q543 667 559.5 623Q576 579 595.5 528.5Q615 478 636 424.5Q657 371 675.5 323.5Q694 276 709.5 237.5Q725 199 734 178Q756 127 776 109Q796 91 825 91H856V-2Q830 -2 802 -1Q778 -1 749 -0.5Q720 0 693 0Q637 -25 637 -77Q637 -105 653 -117Q669 -129 691 -129Q717 -129 734 -114Q751 -99 756 -66ZM495 271Q484 302 471 338Q458 374 444.5 411Q431 448 417.5 483Q404 518 393 547Q382 518 369 482.5Q356 447 342.5 410.5Q329 374 316 337.5Q303 301 293 271Q340 270 395 270Q450 270 495 271Z" glyph-name="Aogonek" horiz-adv-x="884" unicode="&#260;" /><glyph d="M654 -71Q654 -101 648 -125.5Q642 -150 628 -168Q614 -186 591 -196Q568 -206 534 -206Q483 -206 453 -182Q423 -158 423 -114Q424 -73 447.5 -45Q471 -17 508 0Q485 0 457.5 -0.5Q430 -1 406 -1Q378 -2 350 -2Q350 2 350 13.5Q350 25 350 38Q350 51 350 62Q350 73 350 78H381Q411 78 418 97.5Q425 117 411 152L406 165Q387 165 363.5 165.5Q340 166 315.5 166Q291 166 267.5 166Q244 166 224 166L219 151Q194 78 253 78H281Q281 73 281 62Q281 51 281 38Q281 25 281 13.5Q281 2 281 -2Q258 -2 235 -1Q215 -1 192.5 -0.5Q170 0 153 0Q136 0 114 -0.5Q92 -1 72 -1Q49 -2 26 -2Q27 12 27 27Q27 42 27 53Q27 66 26 78H44Q79 78 96.5 94.5Q114 111 130 148Q136 162 148.5 193Q161 224 176.5 262.5Q192 301 208.5 343.5Q225 386 240 424Q255 462 266 491.5Q277 521 282 534Q296 533 311 532Q323 531 337 531Q351 531 362 531Q373 531 386 531Q399 531 411 532Q425 533 439 534Q445 517 456.5 487.5Q468 458 482.5 421Q497 384 513 344Q529 304 544.5 266.5Q560 229 573 197.5Q586 166 595 147Q614 106 629 92Q644 78 667 78H689Q688 66 688 53Q688 42 688 27.5Q688 13 689 -2Q669 -2 647 -1Q628 -1 605 -0.5Q582 0 560 0Q504 -25 504 -77Q504 -105 520 -117Q536 -129 558 -129Q584 -129 601 -114Q618 -99 623 -66ZM239 207Q274 206 315.5 206Q357 206 391 207Q372 258 353 308Q334 358 314 409Q305 386 295.5 360Q286 334 276 307.5Q266 281 256.5 255Q247 229 239 207Z" glyph-name="Aogonek.sc" horiz-adv-x="715" /><glyph d="M516 211Q490 212 459 212.5Q428 213 395.5 213Q363 213 331.5 212.5Q300 212 273 212L264 185Q249 137 258.5 114Q268 91 309 91H347Q347 86 347 72.5Q347 59 346.5 44.5Q346 30 346 16.5Q346 3 346 -2Q317 -2 288 -1Q263 -1 235.5 -0.5Q208 0 187 0Q165 0 138 -0.5Q111 -1 86 -1Q57 -2 28 -2V91H54Q76 91 92 96Q108 101 120 111.5Q132 122 142 138.5Q152 155 161 179Q164 187 178 224Q192 261 211.5 313Q231 365 253.5 425.5Q276 486 296.5 540.5Q317 595 333 637.5Q349 680 355 696Q371 695 387 694Q401 693 416.5 693Q432 693 444 693Q456 693 471.5 693Q487 693 501 694Q517 695 533 696Q543 667 559.5 623Q576 579 595.5 528.5Q615 478 636 424.5Q657 371 675.5 323.5Q694 276 709.5 237.5Q725 199 734 178Q756 127 776 109Q796 91 825 91H856V-2Q818 -2 781 -1Q749 -1 714 -0.5Q679 0 651 0Q623 0 587.5 -0.5Q552 -1 520 -1Q483 -2 445 -2Q445 3 445 16.5Q445 30 445 44.5Q445 59 445 72.5Q445 86 445 91H485Q523 91 530.5 115Q538 139 524 187ZM495 271Q484 302 471 338Q458 374 444.5 411Q431 448 417.5 483Q404 518 393 547Q382 518 369 482.5Q356 447 342.5 410.5Q329 374 316 337.5Q303 301 293 271Q340 270 395 270Q450 270 495 271ZM489 835Q489 858 476.5 870.5Q464 883 443 883Q421 883 408.5 870.5Q396 858 396 835Q396 810 408.5 797Q421 784 443 784Q464 784 476.5 797Q489 810 489 835ZM532 835Q532 793 508.5 769Q485 745 443 745Q401 745 377 769Q353 793 353 835Q353 876 376.5 899.5Q400 923 442 923Q484 923 508 899.5Q532 876 532 835Z" glyph-name="Aring" horiz-adv-x="884" unicode="&#197;" /><glyph d="M406 165Q387 165 363.5 165.5Q340 166 315.5 166Q291 166 267.5 166Q244 166 224 166L219 151Q194 78 253 78H281Q281 73 281 62Q281 51 281 38Q281 25 281 13.5Q281 2 281 -2Q258 -2 235 -1Q215 -1 192.5 -0.5Q170 0 153 0Q136 0 114 -0.5Q92 -1 72 -1Q49 -2 26 -2Q27 12 27 27Q27 42 27 53Q27 66 26 78H44Q79 78 96.5 94.5Q114 111 130 148Q136 162 148.5 193Q161 224 176.5 262.5Q192 301 208.5 343.5Q225 386 240 424Q255 462 266 491.5Q277 521 282 534Q296 533 311 532Q323 531 337 531Q351 531 362 531Q373 531 386 531Q399 531 411 532Q425 533 439 534Q445 517 456.5 487.5Q468 458 482.5 421Q497 384 513 344Q529 304 544.5 266.5Q560 229 573 197.5Q586 166 595 147Q614 106 629 92Q644 78 667 78H689Q688 66 688 53Q688 42 688 27.5Q688 13 689 -2Q658 -2 627 -1Q601 -1 571 -0.5Q541 0 518 0Q495 0 466 -0.5Q437 -1 411 -1Q381 -2 350 -2Q350 2 350 13.5Q350 25 350 38Q350 51 350 62Q350 73 350 78H381Q411 78 418 97.5Q425 117 411 152ZM239 207Q274 206 315.5 206Q357 206 391 207Q372 258 353 308Q334 358 314 409Q305 386 295.5 360Q286 334 276 307.5Q266 281 256.5 255Q247 229 239 207ZM404 679Q404 702 391.5 714.5Q379 727 358 727Q336 727 323.5 714.5Q311 702 311 679Q311 654 323.5 641Q336 628 358 628Q379 628 391.5 641Q404 654 404 679ZM447 679Q447 637 423.5 613Q400 589 358 589Q316 589 292 613Q268 637 268 679Q268 720 291.5 743.5Q315 767 357 767Q399 767 423 743.5Q447 720 447 679Z" glyph-name="Aring.sc" horiz-adv-x="715" /><glyph d="M516 211Q490 212 459 212.5Q428 213 395.5 213Q363 213 331.5 212.5Q300 212 273 212L264 185Q249 137 258.5 114Q268 91 309 91H347Q347 86 347 72.5Q347 59 346.5 44.5Q346 30 346 16.5Q346 3 346 -2Q317 -2 288 -1Q263 -1 235.5 -0.5Q208 0 187 0Q165 0 138 -0.5Q111 -1 86 -1Q57 -2 28 -2V91H54Q76 91 92 96Q108 101 120 111.5Q132 122 142 138.5Q152 155 161 179Q164 187 178 224Q192 261 211.5 313Q231 365 253.5 425.5Q276 486 296.5 540.5Q317 595 333 637.5Q349 680 355 696Q371 695 387 694Q401 693 416.5 693Q432 693 444 693Q456 693 471.5 693Q487 693 501 694Q517 695 533 696Q543 667 559.5 623Q576 579 595.5 528.5Q615 478 636 424.5Q657 371 675.5 323.5Q694 276 709.5 237.5Q725 199 734 178Q756 127 776 109Q796 91 825 91H856V-2Q818 -2 781 -1Q749 -1 714 -0.5Q679 0 651 0Q623 0 587.5 -0.5Q552 -1 520 -1Q483 -2 445 -2Q445 3 445 16.5Q445 30 445 44.5Q445 59 445 72.5Q445 86 445 91H485Q523 91 530.5 115Q538 139 524 187ZM495 271Q484 302 471 338Q458 374 444.5 411Q431 448 417.5 483Q404 518 393 547Q382 518 369 482.5Q356 447 342.5 410.5Q329 374 316 337.5Q303 301 293 271Q340 270 395 270Q450 270 495 271ZM586 884Q599 848 595.5 821.5Q592 795 578 777Q564 759 542 750Q520 741 495 741Q460 741 437 756Q414 771 396 800Q382 821 372 830.5Q362 840 346 840Q328 840 318 821.5Q308 803 321 759L295 751Q283 788 286 815Q289 842 303 860Q317 878 339 886.5Q361 895 387 895Q417 895 440 881.5Q463 868 485 836Q499 816 510 806Q521 796 535 796Q555 796 564 814.5Q573 833 561 877Z" glyph-name="Atilde" horiz-adv-x="884" unicode="&#195;" /><glyph d="M406 165Q387 165 363.5 165.5Q340 166 315.5 166Q291 166 267.5 166Q244 166 224 166L219 151Q194 78 253 78H281Q281 73 281 62Q281 51 281 38Q281 25 281 13.5Q281 2 281 -2Q258 -2 235 -1Q215 -1 192.5 -0.5Q170 0 153 0Q136 0 114 -0.5Q92 -1 72 -1Q49 -2 26 -2Q27 12 27 27Q27 42 27 53Q27 66 26 78H44Q79 78 96.5 94.5Q114 111 130 148Q136 162 148.5 193Q161 224 176.5 262.5Q192 301 208.5 343.5Q225 386 240 424Q255 462 266 491.5Q277 521 282 534Q296 533 311 532Q323 531 337 531Q351 531 362 531Q373 531 386 531Q399 531 411 532Q425 533 439 534Q445 517 456.5 487.5Q468 458 482.5 421Q497 384 513 344Q529 304 544.5 266.5Q560 229 573 197.5Q586 166 595 147Q614 106 629 92Q644 78 667 78H689Q688 66 688 53Q688 42 688 27.5Q688 13 689 -2Q658 -2 627 -1Q601 -1 571 -0.5Q541 0 518 0Q495 0 466 -0.5Q437 -1 411 -1Q381 -2 350 -2Q350 2 350 13.5Q350 25 350 38Q350 51 350 62Q350 73 350 78H381Q411 78 418 97.5Q425 117 411 152ZM239 207Q274 206 315.5 206Q357 206 391 207Q372 258 353 308Q334 358 314 409Q305 386 295.5 360Q286 334 276 307.5Q266 281 256.5 255Q247 229 239 207ZM502 728Q515 692 511.5 665.5Q508 639 494 621Q480 603 458 594Q436 585 411 585Q376 585 353 600Q330 615 312 644Q298 665 288 674.5Q278 684 262 684Q244 684 234 665.5Q224 647 237 603L211 595Q199 632 202 659Q205 686 219 704Q233 722 255 730.5Q277 739 303 739Q333 739 356 725.5Q379 712 401 680Q415 660 426 650Q437 640 451 640Q471 640 480 658.5Q489 677 477 721Z" glyph-name="Atilde.sc" horiz-adv-x="715" /><glyph d="M690 203Q690 156 676.5 118Q663 80 630 53.5Q597 27 541.5 13Q486 -1 402 -1Q394 -1 368.5 -1Q343 -1 313 -0.5Q283 0 254.5 0Q226 0 212 0Q195 0 164 -0.5Q133 -1 103 -1H28V91H64Q96 91 109 102Q122 113 124 145Q125 161 125.5 193Q126 225 126 264.5Q126 304 126 347.5Q126 391 126 430Q126 469 125.5 499Q125 529 124 542Q122 573 110 586Q98 599 71 599H28V690Q34 690 59.5 689.5Q85 689 116 689Q147 689 177 688.5Q207 688 223 688Q240 688 263 688Q286 688 309.5 688.5Q333 689 355 689Q377 689 393 689Q534 689 598.5 643Q663 597 663 515Q663 450 628 412Q593 374 537 359Q610 345 649.5 304Q689 263 690 203ZM303 323Q303 291 303 261Q303 231 303.5 205.5Q304 180 304.5 160.5Q305 141 305 131Q307 107 317.5 96.5Q328 86 348 86H382Q446 86 471.5 115Q497 144 497 209Q497 271 461.5 297Q426 323 353 323ZM305 564Q305 555 304.5 537.5Q304 520 303.5 496Q303 472 303 443.5Q303 415 303 384H352Q388 384 412 389Q436 394 450.5 407Q465 420 471.5 441.5Q478 463 478 496Q478 550 452.5 577Q427 604 370 604H346Q324 604 315 593Q306 582 305 564Z" glyph-name="B" horiz-adv-x="718" unicode="B" /><glyph d="M570 151Q570 116 559.5 87.5Q549 59 523.5 39.5Q498 20 454.5 9.5Q411 -1 345 -1H269Q240 -1 213.5 -0.5Q187 0 181 0Q174 0 152.5 0Q131 0 106.5 -0.5Q82 -1 60.5 -1.5Q39 -2 31 -3Q31 2 31.5 13.5Q32 25 32 38Q32 51 31.5 62Q31 73 31 78H58Q83 78 92.5 87Q102 96 104 122Q104 132 104.5 155Q105 178 105 207Q105 236 105 268Q105 300 105 328.5Q105 357 104.5 378.5Q104 400 104 409Q102 432 93 440.5Q84 449 64 449H31Q31 455 31.5 465.5Q32 476 32 488Q32 500 31.5 511Q31 522 31 528Q50 528 72.5 527.5Q95 527 116.5 526.5Q138 526 158 526Q178 526 192 526H338Q449 526 498.5 489.5Q548 453 548 389Q548 342 523.5 311.5Q499 281 460 267Q508 256 539 228Q570 200 570 151ZM260 242Q260 195 260 157.5Q260 120 261 112Q262 77 291 77H319Q366 77 384 98Q402 119 402 162Q402 207 375.5 224.5Q349 242 295 242ZM261 421Q261 416 260.5 403Q260 390 260 371.5Q260 353 260 331Q260 309 260 286H294Q346 286 366.5 303.5Q387 321 387 373Q387 414 368.5 433Q350 452 308 452H289Q276 452 269 443Q262 434 261 421Z" glyph-name="B.sc" horiz-adv-x="601" /><glyph d="M551 666Q585 646 597 652Q609 658 613 696Q617 696 629 695.5Q641 695 654 695Q667 695 678.5 695.5Q690 696 695 696Q692 678 688.5 645.5Q685 613 682.5 575.5Q680 538 678.5 500.5Q677 463 678 436Q667 437 651 437Q635 437 618 437Q601 437 585 437Q569 437 558 436Q554 474 545.5 506.5Q537 539 519.5 562.5Q502 586 474.5 599Q447 612 405 612Q364 612 334 598.5Q304 585 284.5 554Q265 523 255.5 472Q246 421 246 346Q246 262 258 210Q270 158 290.5 128.5Q311 99 339 88.5Q367 78 400 78Q477 78 519.5 127.5Q562 177 564 269Q574 268 592 267.5Q610 267 629 267Q648 267 665.5 267.5Q683 268 694 269Q692 194 674.5 140Q657 86 620.5 51Q584 16 525.5 -1Q467 -18 383 -18Q303 -18 239.5 1Q176 20 131.5 63.5Q87 107 63 176Q39 245 39 346Q39 440 64 508.5Q89 577 134 622Q179 667 240.5 688.5Q302 710 375 710Q409 710 436.5 706Q464 702 485 695.5Q506 689 522.5 681Q539 673 551 666Z" glyph-name="C" horiz-adv-x="730" unicode="C" /><glyph d="M372 710Q538 710 591 614Q605 651 613 696Q617 696 629 695.5Q641 695 654 695Q667 695 678.5 695.5Q690 696 695 696Q692 678 688.5 645.5Q685 613 682.5 575.5Q680 538 678.5 500.5Q677 463 678 436Q667 437 651 437Q635 437 618 437Q601 437 585 437Q569 437 558 436Q554 474 545.5 506.5Q537 539 519.5 562.5Q502 586 474.5 599Q447 612 405 612Q364 612 334 598.5Q304 585 284.5 554Q265 523 255.5 472Q246 421 246 346Q246 262 258 210Q270 158 290.5 128.5Q311 99 338.5 88.5Q366 78 398 78Q479 78 520 127.5Q561 177 564 269Q574 268 592 267.5Q610 267 629 267Q648 267 665.5 267.5Q683 268 694 269Q692 194 674.5 140Q657 86 619 51Q581 16 520.5 -1Q460 -18 372 -18Q296 -18 234.5 1Q173 20 129.5 63.5Q86 107 62.5 176Q39 245 39 346Q39 440 64 508.5Q89 577 133.5 622Q178 667 239 688.5Q300 710 372 710Z" glyph-name="C.round" horiz-adv-x="730" /><glyph d="M297 550Q342 550 377 538.5Q412 527 443 506Q451 501 458.5 498.5Q466 496 472 498.5Q478 501 482.5 509Q487 517 489 533Q495 533 504 532.5Q513 532 522.5 532Q532 532 541 532.5Q550 533 556 533Q553 516 550.5 489.5Q548 463 546 435.5Q544 408 543 382Q542 356 542 339Q522 341 498.5 341Q475 341 456 339Q449 397 415 428Q381 459 333 459Q301 459 279 449.5Q257 440 242.5 417Q228 394 221.5 356.5Q215 319 215 264Q215 203 223.5 165Q232 127 247 105.5Q262 84 282 76.5Q302 69 325 69Q387 69 416 103.5Q445 138 447 204Q456 203 471 202.5Q486 202 502 202Q518 202 533 202.5Q548 203 558 204Q556 91 498.5 35.5Q441 -20 312 -20Q246 -20 195 -5Q144 10 109.5 43.5Q75 77 57 131Q39 185 39 264Q39 335 57.5 388.5Q76 442 110 478Q144 514 191.5 532Q239 550 297 550Z" glyph-name="C.sc" horiz-adv-x="589" /><glyph d="M292 550Q359 550 402 527Q445 504 465 463Q472 482 478 500.5Q484 519 488 533Q493 533 502.5 532.5Q512 532 522 532Q532 532 541 532.5Q550 533 556 533Q553 516 550.5 490Q548 464 546 436Q544 408 542.5 382Q541 356 541 339Q531 340 517 340Q503 340 488.5 340Q474 340 460 340Q446 340 436 339Q433 396 404 426.5Q375 457 324 457Q295 457 274.5 447.5Q254 438 240.5 416Q227 394 221 356.5Q215 319 215 264Q215 203 223.5 165Q232 127 246.5 106Q261 85 281 78Q301 71 324 71Q385 71 412 104.5Q439 138 441 204Q450 203 465 202.5Q480 202 496 202Q512 202 527 202.5Q542 203 552 204Q551 148 537.5 106Q524 64 495 36Q466 8 420.5 -6Q375 -20 310 -20Q245 -20 194.5 -5Q144 10 109.5 43.5Q75 77 57 131Q39 185 39 264Q39 335 57.5 388.5Q76 442 109.5 478Q143 514 189.5 532Q236 550 292 550Z" glyph-name="C.scRound" horiz-adv-x="591" /><glyph d="M551 666Q585 646 597 652Q609 658 613 696Q617 696 629 695.5Q641 695 654 695Q667 695 678.5 695.5Q690 696 695 696Q692 678 688.5 645.5Q685 613 682.5 575.5Q680 538 678.5 500.5Q677 463 678 436Q667 437 651 437Q635 437 618 437Q601 437 585 437Q569 437 558 436Q554 474 545.5 506.5Q537 539 519.5 562.5Q502 586 474.5 599Q447 612 405 612Q364 612 334 598.5Q304 585 284.5 554Q265 523 255.5 472Q246 421 246 346Q246 262 258 210Q270 158 290.5 128.5Q311 99 339 88.5Q367 78 400 78Q477 78 519.5 127.5Q562 177 564 269Q574 268 592 267.5Q610 267 629 267Q648 267 665.5 267.5Q683 268 694 269Q692 194 674.5 140Q657 86 620.5 51Q584 16 525.5 -1Q467 -18 383 -18Q303 -18 239.5 1Q176 20 131.5 63.5Q87 107 63 176Q39 245 39 346Q39 440 64 508.5Q89 577 134 622Q179 667 240.5 688.5Q302 710 375 710Q409 710 436.5 706Q464 702 485 695.5Q506 689 522.5 681Q539 673 551 666ZM356 754Q369 771 384.5 790Q400 809 417 827Q434 845 451.5 860Q469 875 484 885Q509 898 528 894Q547 890 555 876Q563 862 558 843.5Q553 825 529 810Q496 789 449.5 770.5Q403 752 364 742Z" glyph-name="Cacute" horiz-adv-x="730" unicode="&#262;" /><glyph d="M372 710Q538 710 591 614Q605 651 613 696Q617 696 629 695.5Q641 695 654 695Q667 695 678.5 695.5Q690 696 695 696Q692 678 688.5 645.5Q685 613 682.5 575.5Q680 538 678.5 500.5Q677 463 678 436Q667 437 651 437Q635 437 618 437Q601 437 585 437Q569 437 558 436Q554 474 545.5 506.5Q537 539 519.5 562.5Q502 586 474.5 599Q447 612 405 612Q364 612 334 598.5Q304 585 284.5 554Q265 523 255.5 472Q246 421 246 346Q246 262 258 210Q270 158 290.5 128.5Q311 99 338.5 88.5Q366 78 398 78Q479 78 520 127.5Q561 177 564 269Q574 268 592 267.5Q610 267 629 267Q648 267 665.5 267.5Q683 268 694 269Q692 194 674.5 140Q657 86 619 51Q581 16 520.5 -1Q460 -18 372 -18Q296 -18 234.5 1Q173 20 129.5 63.5Q86 107 62.5 176Q39 245 39 346Q39 440 64 508.5Q89 577 133.5 622Q178 667 239 688.5Q300 710 372 710ZM342 754Q355 771 370.5 790Q386 809 403 827Q420 845 437.5 860Q455 875 470 885Q495 898 514 894Q533 890 541 876Q549 862 544 843.5Q539 825 515 810Q482 789 435.5 770.5Q389 752 350 742Z" glyph-name="Cacute.round" horiz-adv-x="730" /><glyph d="M297 550Q342 550 377 538.5Q412 527 443 506Q451 501 458.5 498.5Q466 496 472 498.5Q478 501 482.5 509Q487 517 489 533Q495 533 504 532.5Q513 532 522.5 532Q532 532 541 532.5Q550 533 556 533Q553 516 550.5 489.5Q548 463 546 435.5Q544 408 543 382Q542 356 542 339Q522 341 498.5 341Q475 341 456 339Q449 397 415 428Q381 459 333 459Q301 459 279 449.5Q257 440 242.5 417Q228 394 221.5 356.5Q215 319 215 264Q215 203 223.5 165Q232 127 247 105.5Q262 84 282 76.5Q302 69 325 69Q387 69 416 103.5Q445 138 447 204Q456 203 471 202.5Q486 202 502 202Q518 202 533 202.5Q548 203 558 204Q556 91 498.5 35.5Q441 -20 312 -20Q246 -20 195 -5Q144 10 109.5 43.5Q75 77 57 131Q39 185 39 264Q39 335 57.5 388.5Q76 442 110 478Q144 514 191.5 532Q239 550 297 550ZM272 598Q285 615 300.5 634Q316 653 333 671Q350 689 367.5 704Q385 719 400 729Q425 742 444 738Q463 734 471 720Q479 706 474 687.5Q469 669 445 654Q412 633 365.5 614.5Q319 596 280 586Z" glyph-name="Cacute.sc" horiz-adv-x="589" /><glyph d="M292 550Q359 550 402 527Q445 504 465 463Q472 482 478 500.5Q484 519 488 533Q493 533 502.5 532.5Q512 532 522 532Q532 532 541 532.5Q550 533 556 533Q553 516 550.5 490Q548 464 546 436Q544 408 542.5 382Q541 356 541 339Q531 340 517 340Q503 340 488.5 340Q474 340 460 340Q446 340 436 339Q433 396 404 426.5Q375 457 324 457Q295 457 274.5 447.5Q254 438 240.5 416Q227 394 221 356.5Q215 319 215 264Q215 203 223.5 165Q232 127 246.5 106Q261 85 281 78Q301 71 324 71Q385 71 412 104.5Q439 138 441 204Q450 203 465 202.5Q480 202 496 202Q512 202 527 202.5Q542 203 552 204Q551 148 537.5 106Q524 64 495 36Q466 8 420.5 -6Q375 -20 310 -20Q245 -20 194.5 -5Q144 10 109.5 43.5Q75 77 57 131Q39 185 39 264Q39 335 57.5 388.5Q76 442 109.5 478Q143 514 189.5 532Q236 550 292 550ZM259 598Q272 615 287.5 634Q303 653 320 671Q337 689 354.5 704Q372 719 387 729Q412 742 431 738Q450 734 458 720Q466 706 461 687.5Q456 669 432 654Q399 633 352.5 614.5Q306 596 267 586Z" glyph-name="Cacute.scRound" horiz-adv-x="591" /><glyph d="M551 666Q585 646 597 652Q609 658 613 696Q617 696 629 695.5Q641 695 654 695Q667 695 678.5 695.5Q690 696 695 696Q692 678 688.5 645.5Q685 613 682.5 575.5Q680 538 678.5 500.5Q677 463 678 436Q667 437 651 437Q635 437 618 437Q601 437 585 437Q569 437 558 436Q554 474 545.5 506.5Q537 539 519.5 562.5Q502 586 474.5 599Q447 612 405 612Q364 612 334 598.5Q304 585 284.5 554Q265 523 255.5 472Q246 421 246 346Q246 262 258 210Q270 158 290.5 128.5Q311 99 339 88.5Q367 78 400 78Q477 78 519.5 127.5Q562 177 564 269Q574 268 592 267.5Q610 267 629 267Q648 267 665.5 267.5Q683 268 694 269Q692 194 674.5 140Q657 86 620.5 51Q584 16 525.5 -1Q467 -18 383 -18Q303 -18 239.5 1Q176 20 131.5 63.5Q87 107 63 176Q39 245 39 346Q39 440 64 508.5Q89 577 134 622Q179 667 240.5 688.5Q302 710 375 710Q409 710 436.5 706Q464 702 485 695.5Q506 689 522.5 681Q539 673 551 666ZM239 907Q254 902 272.5 893.5Q291 885 310.5 874Q330 863 348 851Q366 839 380 828Q393 839 411 851Q429 863 448 873.5Q467 884 485 893Q503 902 517 907L526 897Q517 876 503.5 854.5Q490 833 474 814Q458 795 441.5 779Q425 763 411 751H344Q330 762 314.5 778Q299 794 283.5 813Q268 832 254 853.5Q240 875 230 897Z" glyph-name="Ccaron" horiz-adv-x="730" unicode="&#268;" /><glyph d="M372 710Q538 710 591 614Q605 651 613 696Q617 696 629 695.5Q641 695 654 695Q667 695 678.5 695.5Q690 696 695 696Q692 678 688.5 645.5Q685 613 682.5 575.5Q680 538 678.5 500.5Q677 463 678 436Q667 437 651 437Q635 437 618 437Q601 437 585 437Q569 437 558 436Q554 474 545.5 506.5Q537 539 519.5 562.5Q502 586 474.5 599Q447 612 405 612Q364 612 334 598.5Q304 585 284.5 554Q265 523 255.5 472Q246 421 246 346Q246 262 258 210Q270 158 290.5 128.5Q311 99 338.5 88.5Q366 78 398 78Q479 78 520 127.5Q561 177 564 269Q574 268 592 267.5Q610 267 629 267Q648 267 665.5 267.5Q683 268 694 269Q692 194 674.5 140Q657 86 619 51Q581 16 520.5 -1Q460 -18 372 -18Q296 -18 234.5 1Q173 20 129.5 63.5Q86 107 62.5 176Q39 245 39 346Q39 440 64 508.5Q89 577 133.5 622Q178 667 239 688.5Q300 710 372 710ZM243 907Q258 902 276.5 893.5Q295 885 314.5 874Q334 863 352 851Q370 839 384 828Q397 839 415 851Q433 863 452 873.5Q471 884 489 893Q507 902 521 907L530 897Q521 876 507.5 854.5Q494 833 478 814Q462 795 445.5 779Q429 763 415 751H348Q334 762 318.5 778Q303 794 287.5 813Q272 832 258 853.5Q244 875 234 897Z" glyph-name="Ccaron.round" horiz-adv-x="730" /><glyph d="M297 550Q342 550 377 538.5Q412 527 443 506Q451 501 458.5 498.5Q466 496 472 498.5Q478 501 482.5 509Q487 517 489 533Q495 533 504 532.5Q513 532 522.5 532Q532 532 541 532.5Q550 533 556 533Q553 516 550.5 489.5Q548 463 546 435.5Q544 408 543 382Q542 356 542 339Q522 341 498.5 341Q475 341 456 339Q449 397 415 428Q381 459 333 459Q301 459 279 449.5Q257 440 242.5 417Q228 394 221.5 356.5Q215 319 215 264Q215 203 223.5 165Q232 127 247 105.5Q262 84 282 76.5Q302 69 325 69Q387 69 416 103.5Q445 138 447 204Q456 203 471 202.5Q486 202 502 202Q518 202 533 202.5Q548 203 558 204Q556 91 498.5 35.5Q441 -20 312 -20Q246 -20 195 -5Q144 10 109.5 43.5Q75 77 57 131Q39 185 39 264Q39 335 57.5 388.5Q76 442 110 478Q144 514 191.5 532Q239 550 297 550ZM176 751Q191 746 209.5 737.5Q228 729 247.5 718Q267 707 285 695Q303 683 317 672Q330 683 348 695Q366 707 385 717.5Q404 728 422 737Q440 746 454 751L463 741Q454 720 440.5 698.5Q427 677 411 658Q395 639 378.5 623Q362 607 348 595H281Q267 606 251.5 622Q236 638 220.5 657Q205 676 191 697.5Q177 719 167 741Z" glyph-name="Ccaron.sc" horiz-adv-x="589" /><glyph d="M292 550Q359 550 402 527Q445 504 465 463Q472 482 478 500.5Q484 519 488 533Q493 533 502.5 532.5Q512 532 522 532Q532 532 541 532.5Q550 533 556 533Q553 516 550.5 490Q548 464 546 436Q544 408 542.5 382Q541 356 541 339Q531 340 517 340Q503 340 488.5 340Q474 340 460 340Q446 340 436 339Q433 396 404 426.5Q375 457 324 457Q295 457 274.5 447.5Q254 438 240.5 416Q227 394 221 356.5Q215 319 215 264Q215 203 223.5 165Q232 127 246.5 106Q261 85 281 78Q301 71 324 71Q385 71 412 104.5Q439 138 441 204Q450 203 465 202.5Q480 202 496 202Q512 202 527 202.5Q542 203 552 204Q551 148 537.5 106Q524 64 495 36Q466 8 420.5 -6Q375 -20 310 -20Q245 -20 194.5 -5Q144 10 109.5 43.5Q75 77 57 131Q39 185 39 264Q39 335 57.5 388.5Q76 442 109.5 478Q143 514 189.5 532Q236 550 292 550ZM165 751Q180 746 198.5 737.5Q217 729 236.5 718Q256 707 274 695Q292 683 306 672Q319 683 337 695Q355 707 374 717.5Q393 728 411 737Q429 746 443 751L452 741Q443 720 429.5 698.5Q416 677 400 658Q384 639 367.5 623Q351 607 337 595H270Q256 606 240.5 622Q225 638 209.5 657Q194 676 180 697.5Q166 719 156 741Z" glyph-name="Ccaron.scRound" horiz-adv-x="591" /><glyph d="M301 -88Q327 -75 343.5 -58.5Q360 -42 367 -18Q290 -16 229.5 4Q169 24 126.5 67.5Q84 111 61.5 179.5Q39 248 39 346Q39 440 64 508.5Q89 577 134 622Q179 667 240.5 688.5Q302 710 375 710Q409 710 436.5 706Q464 702 485 695.5Q506 689 522.5 681Q539 673 551 666Q585 646 597 652Q609 658 613 696Q617 696 629 695.5Q641 695 654 695Q667 695 678.5 695.5Q690 696 695 696Q692 678 688.5 645.5Q685 613 682.5 575.5Q680 538 678.5 500.5Q677 463 678 436Q667 437 651 437Q635 437 618 437Q601 437 585 437Q569 437 558 436Q554 474 545.5 506.5Q537 539 519.5 562.5Q502 586 474.5 599Q447 612 405 612Q364 612 334 598.5Q304 585 284.5 554Q265 523 255.5 472Q246 421 246 346Q246 262 258 210Q270 158 290.5 128.5Q311 99 339 88.5Q367 78 400 78Q477 78 519.5 127.5Q562 177 564 269Q574 268 592 267.5Q610 267 629 267Q648 267 665.5 267.5Q683 268 694 269Q692 196 675.5 143Q659 90 624 54.5Q589 19 534 1.5Q479 -16 400 -18Q397 -47 373 -71Q394 -69 413.5 -73Q433 -77 449 -86.5Q465 -96 474.5 -112Q484 -128 484 -150Q484 -195 452.5 -220Q421 -245 364 -245Q319 -245 292 -226Q265 -207 253 -186L276 -166Q290 -183 305.5 -192Q321 -201 342 -201Q371 -201 384 -186.5Q397 -172 397 -149Q397 -120 372.5 -108.5Q348 -97 313 -111Z" glyph-name="Ccedilla" horiz-adv-x="730" unicode="&#199;" /><glyph d="M372 710Q538 710 591 614Q605 651 613 696Q617 696 629 695.5Q641 695 654 695Q667 695 678.5 695.5Q690 696 695 696Q692 678 688.5 645.5Q685 613 682.5 575.5Q680 538 678.5 500.5Q677 463 678 436Q667 437 651 437Q635 437 618 437Q601 437 585 437Q569 437 558 436Q554 474 545.5 506.5Q537 539 519.5 562.5Q502 586 474.5 599Q447 612 405 612Q364 612 334 598.5Q304 585 284.5 554Q265 523 255.5 472Q246 421 246 346Q246 262 258 210Q270 158 290.5 128.5Q311 99 338.5 88.5Q366 78 398 78Q479 78 520 127.5Q561 177 564 269Q574 268 592 267.5Q610 267 629 267Q648 267 665.5 267.5Q683 268 694 269Q692 197 676 144.5Q660 92 625 57Q590 22 535 4Q480 -14 400 -17Q398 -31 391.5 -45.5Q385 -60 373 -71Q394 -69 413.5 -73Q433 -77 449 -86.5Q465 -96 474.5 -112Q484 -128 484 -150Q484 -195 452.5 -220Q421 -245 364 -245Q319 -245 292 -226Q265 -207 253 -186L276 -166Q290 -183 305.5 -192Q321 -201 342 -201Q371 -201 384 -186.5Q397 -172 397 -149Q397 -120 372.5 -108.5Q348 -97 313 -111L301 -88Q327 -75 343 -58.5Q359 -42 366 -18Q291 -17 231 2.5Q171 22 128 65Q85 108 62 177Q39 246 39 346Q39 440 64 508.5Q89 577 133.5 622Q178 667 239 688.5Q300 710 372 710Z" glyph-name="Ccedilla.round" horiz-adv-x="730" /><glyph d="M232 -88Q258 -75 274 -59Q290 -43 297 -20Q234 -19 186 -3Q138 13 105.5 47Q73 81 56 134Q39 187 39 264Q39 335 57.5 388.5Q76 442 110 478Q144 514 191.5 532Q239 550 297 550Q342 550 377 538.5Q412 527 443 506Q451 501 458.5 498.5Q466 496 472 498.5Q478 501 482.5 509Q487 517 489 533Q495 533 504 532.5Q513 532 522.5 532Q532 532 541 532.5Q550 533 556 533Q553 516 550.5 489.5Q548 463 546 435.5Q544 408 543 382Q542 356 542 339Q522 341 498.5 341Q475 341 456 339Q449 397 415 428Q381 459 333 459Q301 459 279 449.5Q257 440 242.5 417Q228 394 221.5 356.5Q215 319 215 264Q215 203 223.5 165Q232 127 247 105.5Q262 84 282 76.5Q302 69 325 69Q387 69 416 103.5Q445 138 447 204Q456 203 471 202.5Q486 202 502 202Q518 202 533 202.5Q548 203 558 204Q556 95 503 40Q450 -15 331 -19Q326 -49 304 -71Q325 -69 344.5 -73Q364 -77 380 -86.5Q396 -96 405.5 -112Q415 -128 415 -150Q415 -195 383.5 -220Q352 -245 295 -245Q250 -245 223 -226Q196 -207 184 -186L207 -166Q221 -183 236.5 -192Q252 -201 273 -201Q302 -201 315 -186.5Q328 -172 328 -149Q328 -120 303.5 -108.5Q279 -97 244 -111Z" glyph-name="Ccedilla.sc" horiz-adv-x="589" /><glyph d="M232 -88Q258 -75 274 -59Q290 -43 297 -20Q235 -19 187 -3Q139 13 106 46.5Q73 80 56 133.5Q39 187 39 264Q39 335 57.5 388.5Q76 442 109.5 478Q143 514 189.5 532Q236 550 292 550Q359 550 402 527Q445 504 465 463Q472 482 478 500.5Q484 519 488 533Q493 533 502.5 532.5Q512 532 522 532Q532 532 541 532.5Q550 533 556 533Q553 516 550.5 490Q548 464 546 436Q544 408 542.5 382Q541 356 541 339Q531 340 517 340Q503 340 488.5 340Q474 340 460 340Q446 340 436 339Q433 396 404 426.5Q375 457 324 457Q295 457 274.5 447.5Q254 438 240.5 416Q227 394 221 356.5Q215 319 215 264Q215 203 223.5 165Q232 127 246.5 106Q261 85 281 78Q301 71 324 71Q385 71 412 104.5Q439 138 441 204Q450 203 465 202.5Q480 202 496 202Q512 202 527 202.5Q542 203 552 204Q551 150 538.5 109Q526 68 499.5 40.5Q473 13 431.5 -2Q390 -17 331 -19Q326 -49 304 -71Q325 -69 344.5 -73Q364 -77 380 -86.5Q396 -96 405.5 -112Q415 -128 415 -150Q415 -195 383.5 -220Q352 -245 295 -245Q250 -245 223 -226Q196 -207 184 -186L207 -166Q221 -183 236.5 -192Q252 -201 273 -201Q302 -201 315 -186.5Q328 -172 328 -149Q328 -120 303.5 -108.5Q279 -97 244 -111Z" glyph-name="Ccedilla.scRound" horiz-adv-x="591" /><glyph d="M551 666Q585 646 597 652Q609 658 613 696Q617 696 629 695.5Q641 695 654 695Q667 695 678.5 695.5Q690 696 695 696Q692 678 688.5 645.5Q685 613 682.5 575.5Q680 538 678.5 500.5Q677 463 678 436Q667 437 651 437Q635 437 618 437Q601 437 585 437Q569 437 558 436Q554 474 545.5 506.5Q537 539 519.5 562.5Q502 586 474.5 599Q447 612 405 612Q364 612 334 598.5Q304 585 284.5 554Q265 523 255.5 472Q246 421 246 346Q246 262 258 210Q270 158 290.5 128.5Q311 99 339 88.5Q367 78 400 78Q477 78 519.5 127.5Q562 177 564 269Q574 268 592 267.5Q610 267 629 267Q648 267 665.5 267.5Q683 268 694 269Q692 194 674.5 140Q657 86 620.5 51Q584 16 525.5 -1Q467 -18 383 -18Q303 -18 239.5 1Q176 20 131.5 63.5Q87 107 63 176Q39 245 39 346Q39 440 64 508.5Q89 577 134 622Q179 667 240.5 688.5Q302 710 375 710Q409 710 436.5 706Q464 702 485 695.5Q506 689 522.5 681Q539 673 551 666ZM517 734Q502 739 483.5 747.5Q465 756 445.5 767Q426 778 408 790Q390 802 376 814Q363 803 345 791Q327 779 308 768Q289 757 270.5 748Q252 739 239 735L230 745Q239 766 252.5 787Q266 808 282 827Q298 846 314.5 862.5Q331 879 345 891H412Q425 880 441 864Q457 848 472.5 829Q488 810 502 788.5Q516 767 526 745Z" glyph-name="Ccircumflex" horiz-adv-x="730" unicode="&#264;" /><glyph d="M372 710Q538 710 591 614Q605 651 613 696Q617 696 629 695.5Q641 695 654 695Q667 695 678.5 695.5Q690 696 695 696Q692 678 688.5 645.5Q685 613 682.5 575.5Q680 538 678.5 500.5Q677 463 678 436Q667 437 651 437Q635 437 618 437Q601 437 585 437Q569 437 558 436Q554 474 545.5 506.5Q537 539 519.5 562.5Q502 586 474.5 599Q447 612 405 612Q364 612 334 598.5Q304 585 284.5 554Q265 523 255.5 472Q246 421 246 346Q246 262 258 210Q270 158 290.5 128.5Q311 99 338.5 88.5Q366 78 398 78Q479 78 520 127.5Q561 177 564 269Q574 268 592 267.5Q610 267 629 267Q648 267 665.5 267.5Q683 268 694 269Q692 194 674.5 140Q657 86 619 51Q581 16 520.5 -1Q460 -18 372 -18Q296 -18 234.5 1Q173 20 129.5 63.5Q86 107 62.5 176Q39 245 39 346Q39 440 64 508.5Q89 577 133.5 622Q178 667 239 688.5Q300 710 372 710ZM516 734Q501 739 482.5 747.5Q464 756 444.5 767Q425 778 407 790Q389 802 375 814Q362 803 344 791Q326 779 307 768Q288 757 269.5 748Q251 739 238 735L229 745Q238 766 251.5 787Q265 808 281 827Q297 846 313.5 862.5Q330 879 344 891H411Q424 880 440 864Q456 848 471.5 829Q487 810 501 788.5Q515 767 525 745Z" glyph-name="Ccircumflex.round" horiz-adv-x="730" /><glyph d="M297 550Q342 550 377 538.5Q412 527 443 506Q451 501 458.5 498.5Q466 496 472 498.5Q478 501 482.5 509Q487 517 489 533Q495 533 504 532.5Q513 532 522.5 532Q532 532 541 532.5Q550 533 556 533Q553 516 550.5 489.5Q548 463 546 435.5Q544 408 543 382Q542 356 542 339Q522 341 498.5 341Q475 341 456 339Q449 397 415 428Q381 459 333 459Q301 459 279 449.5Q257 440 242.5 417Q228 394 221.5 356.5Q215 319 215 264Q215 203 223.5 165Q232 127 247 105.5Q262 84 282 76.5Q302 69 325 69Q387 69 416 103.5Q445 138 447 204Q456 203 471 202.5Q486 202 502 202Q518 202 533 202.5Q548 203 558 204Q556 91 498.5 35.5Q441 -20 312 -20Q246 -20 195 -5Q144 10 109.5 43.5Q75 77 57 131Q39 185 39 264Q39 335 57.5 388.5Q76 442 110 478Q144 514 191.5 532Q239 550 297 550ZM451 583Q436 588 417.5 596.5Q399 605 379.5 616Q360 627 342 639Q324 651 310 663Q297 652 279 640Q261 628 242 617Q223 606 204.5 597Q186 588 173 584L164 594Q173 615 186.5 636Q200 657 216 676Q232 695 248.5 711.5Q265 728 279 740H346Q359 729 375 713Q391 697 406.5 678Q422 659 436 637.5Q450 616 460 594Z" glyph-name="Ccircumflex.sc" horiz-adv-x="589" /><glyph d="M292 550Q359 550 402 527Q445 504 465 463Q472 482 478 500.5Q484 519 488 533Q493 533 502.5 532.5Q512 532 522 532Q532 532 541 532.5Q550 533 556 533Q553 516 550.5 490Q548 464 546 436Q544 408 542.5 382Q541 356 541 339Q531 340 517 340Q503 340 488.5 340Q474 340 460 340Q446 340 436 339Q433 396 404 426.5Q375 457 324 457Q295 457 274.5 447.5Q254 438 240.5 416Q227 394 221 356.5Q215 319 215 264Q215 203 223.5 165Q232 127 246.5 106Q261 85 281 78Q301 71 324 71Q385 71 412 104.5Q439 138 441 204Q450 203 465 202.5Q480 202 496 202Q512 202 527 202.5Q542 203 552 204Q551 148 537.5 106Q524 64 495 36Q466 8 420.5 -6Q375 -20 310 -20Q245 -20 194.5 -5Q144 10 109.5 43.5Q75 77 57 131Q39 185 39 264Q39 335 57.5 388.5Q76 442 109.5 478Q143 514 189.5 532Q236 550 292 550ZM447 583Q432 588 413.5 596.5Q395 605 375.5 616Q356 627 338 639Q320 651 306 663Q293 652 275 640Q257 628 238 617Q219 606 200.5 597Q182 588 169 584L160 594Q169 615 182.5 636Q196 657 212 676Q228 695 244.5 711.5Q261 728 275 740H342Q355 729 371 713Q387 697 402.5 678Q418 659 432 637.5Q446 616 456 594Z" glyph-name="Ccircumflex.scRound" horiz-adv-x="591" /><glyph d="M551 666Q585 646 597 652Q609 658 613 696Q617 696 629 695.5Q641 695 654 695Q667 695 678.5 695.5Q690 696 695 696Q692 678 688.5 645.5Q685 613 682.5 575.5Q680 538 678.5 500.5Q677 463 678 436Q667 437 651 437Q635 437 618 437Q601 437 585 437Q569 437 558 436Q554 474 545.5 506.5Q537 539 519.5 562.5Q502 586 474.5 599Q447 612 405 612Q364 612 334 598.5Q304 585 284.5 554Q265 523 255.5 472Q246 421 246 346Q246 262 258 210Q270 158 290.5 128.5Q311 99 339 88.5Q367 78 400 78Q477 78 519.5 127.5Q562 177 564 269Q574 268 592 267.5Q610 267 629 267Q648 267 665.5 267.5Q683 268 694 269Q692 194 674.5 140Q657 86 620.5 51Q584 16 525.5 -1Q467 -18 383 -18Q303 -18 239.5 1Q176 20 131.5 63.5Q87 107 63 176Q39 245 39 346Q39 440 64 508.5Q89 577 134 622Q179 667 240.5 688.5Q302 710 375 710Q409 710 436.5 706Q464 702 485 695.5Q506 689 522.5 681Q539 673 551 666ZM442 827Q442 798 424.5 780Q407 762 378 762Q350 762 332.5 780Q315 798 315 827Q315 856 332.5 873Q350 890 378 890Q407 890 424.5 873Q442 856 442 827Z" glyph-name="Cdotaccent" horiz-adv-x="730" unicode="&#266;" /><glyph d="M372 710Q538 710 591 614Q605 651 613 696Q617 696 629 695.5Q641 695 654 695Q667 695 678.5 695.5Q690 696 695 696Q692 678 688.5 645.5Q685 613 682.5 575.5Q680 538 678.5 500.5Q677 463 678 436Q667 437 651 437Q635 437 618 437Q601 437 585 437Q569 437 558 436Q554 474 545.5 506.5Q537 539 519.5 562.5Q502 586 474.5 599Q447 612 405 612Q364 612 334 598.5Q304 585 284.5 554Q265 523 255.5 472Q246 421 246 346Q246 262 258 210Q270 158 290.5 128.5Q311 99 338.5 88.5Q366 78 398 78Q479 78 520 127.5Q561 177 564 269Q574 268 592 267.5Q610 267 629 267Q648 267 665.5 267.5Q683 268 694 269Q692 194 674.5 140Q657 86 619 51Q581 16 520.5 -1Q460 -18 372 -18Q296 -18 234.5 1Q173 20 129.5 63.5Q86 107 62.5 176Q39 245 39 346Q39 440 64 508.5Q89 577 133.5 622Q178 667 239 688.5Q300 710 372 710ZM446 827Q446 798 428.5 780Q411 762 382 762Q354 762 336.5 780Q319 798 319 827Q319 856 336.5 873Q354 890 382 890Q411 890 428.5 873Q446 856 446 827Z" glyph-name="Cdotaccent.round" horiz-adv-x="730" /><glyph d="M297 550Q342 550 377 538.5Q412 527 443 506Q451 501 458.5 498.5Q466 496 472 498.5Q478 501 482.5 509Q487 517 489 533Q495 533 504 532.5Q513 532 522.5 532Q532 532 541 532.5Q550 533 556 533Q553 516 550.5 489.5Q548 463 546 435.5Q544 408 543 382Q542 356 542 339Q522 341 498.5 341Q475 341 456 339Q449 397 415 428Q381 459 333 459Q301 459 279 449.5Q257 440 242.5 417Q228 394 221.5 356.5Q215 319 215 264Q215 203 223.5 165Q232 127 247 105.5Q262 84 282 76.5Q302 69 325 69Q387 69 416 103.5Q445 138 447 204Q456 203 471 202.5Q486 202 502 202Q518 202 533 202.5Q548 203 558 204Q556 91 498.5 35.5Q441 -20 312 -20Q246 -20 195 -5Q144 10 109.5 43.5Q75 77 57 131Q39 185 39 264Q39 335 57.5 388.5Q76 442 110 478Q144 514 191.5 532Q239 550 297 550ZM372 670Q372 641 354.5 623Q337 605 308 605Q280 605 262.5 623Q245 641 245 670Q245 699 262.5 716Q280 733 308 733Q337 733 354.5 716Q372 699 372 670Z" glyph-name="Cdotaccent.sc" horiz-adv-x="589" /><glyph d="M292 550Q359 550 402 527Q445 504 465 463Q472 482 478 500.5Q484 519 488 533Q493 533 502.5 532.5Q512 532 522 532Q532 532 541 532.5Q550 533 556 533Q553 516 550.5 490Q548 464 546 436Q544 408 542.5 382Q541 356 541 339Q531 340 517 340Q503 340 488.5 340Q474 340 460 340Q446 340 436 339Q433 396 404 426.5Q375 457 324 457Q295 457 274.5 447.5Q254 438 240.5 416Q227 394 221 356.5Q215 319 215 264Q215 203 223.5 165Q232 127 246.5 106Q261 85 281 78Q301 71 324 71Q385 71 412 104.5Q439 138 441 204Q450 203 465 202.5Q480 202 496 202Q512 202 527 202.5Q542 203 552 204Q551 148 537.5 106Q524 64 495 36Q466 8 420.5 -6Q375 -20 310 -20Q245 -20 194.5 -5Q144 10 109.5 43.5Q75 77 57 131Q39 185 39 264Q39 335 57.5 388.5Q76 442 109.5 478Q143 514 189.5 532Q236 550 292 550ZM372 671Q372 642 354.5 624Q337 606 308 606Q280 606 262.5 624Q245 642 245 671Q245 700 262.5 717Q280 734 308 734Q337 734 354.5 717Q372 700 372 671Z" glyph-name="Cdotaccent.scRound" horiz-adv-x="591" /><glyph d="M411 689Q501 689 565.5 669Q630 649 671 607Q712 565 732 501Q752 437 753 350Q754 252 729 185Q704 118 658.5 77Q613 36 550.5 17.5Q488 -1 415 -1H341Q310 -1 277 -0.5Q244 0 220 0Q197 0 164 -0.5Q131 -1 101 -1Q66 -2 28 -2V91H63Q98 91 110 102Q122 113 124 145Q125 161 125.5 192.5Q126 224 126 264Q126 304 126 347.5Q126 391 126 429.5Q126 468 125.5 498.5Q125 529 124 542Q122 573 109 586Q96 599 69 599H28V690Q34 690 56 689.5Q78 689 107 689Q136 689 167 688.5Q198 688 222 688Q245 688 275 688Q305 688 333 688.5Q361 689 382.5 689Q404 689 411 689ZM305 135Q306 113 317.5 102Q329 91 348 91H381Q428 91 462 102Q496 113 518.5 142.5Q541 172 552 222.5Q563 273 563 351Q563 423 553 471Q543 519 521 547.5Q499 576 464.5 588Q430 600 382 600H348Q324 600 315 588.5Q306 577 305 561Q304 543 303.5 509.5Q303 476 302.5 435Q302 394 302 349Q302 304 302.5 262.5Q303 221 303.5 187Q304 153 305 135Z" glyph-name="D" horiz-adv-x="791" unicode="D" /><glyph d="M342 527Q484 527 547 464Q610 401 612 268Q613 193 593.5 142Q574 91 538.5 59Q503 27 453.5 13Q404 -1 346 -1Q340 -1 320.5 -1Q301 -1 276.5 -0.5Q252 0 226 0Q200 0 182 0Q164 0 140 0Q116 0 93 -0.5Q70 -1 52 -1.5Q34 -2 29 -2Q30 12 30 27Q30 42 30 53Q30 66 29 78H54Q81 78 90 89Q99 100 101 125Q102 135 102 157.5Q102 180 102.5 208.5Q103 237 102.5 269Q102 301 102 329Q102 357 101.5 378.5Q101 400 101 409Q99 432 89.5 440.5Q80 449 59 449H29Q30 463 30 477Q30 491 30 502Q30 515 29 528Q64 527 107 526.5Q150 526 183 526Q201 526 224 526Q247 526 270 526.5Q293 527 312.5 527Q332 527 342 527ZM258 113Q261 81 292 81H314Q348 81 373.5 89Q399 97 415.5 118Q432 139 440.5 175.5Q449 212 449 269Q449 322 441 356.5Q433 391 416.5 411.5Q400 432 374.5 440Q349 448 315 448H292Q273 448 266 439.5Q259 431 258 419Q258 409 257.5 385.5Q257 362 256.5 331.5Q256 301 256 267Q256 233 256 202Q256 171 256.5 147Q257 123 258 113Z" glyph-name="D.sc" horiz-adv-x="652" /><glyph d="M411 689Q501 689 565.5 669Q630 649 671 607Q712 565 732 501Q752 437 753 350Q754 252 729 185Q704 118 658.5 77Q613 36 550.5 17.5Q488 -1 415 -1H341Q310 -1 277 -0.5Q244 0 220 0Q197 0 164 -0.5Q131 -1 101 -1Q66 -2 28 -2V91H63Q98 91 110 102Q122 113 124 145Q125 161 125.5 192.5Q126 224 126 264Q126 304 126 347.5Q126 391 126 429.5Q126 468 125.5 498.5Q125 529 124 542Q122 573 109 586Q96 599 69 599H28V690Q34 690 56 689.5Q78 689 107 689Q136 689 167 688.5Q198 688 222 688Q245 688 275 688Q305 688 333 688.5Q361 689 382.5 689Q404 689 411 689ZM305 135Q306 113 317.5 102Q329 91 348 91H381Q428 91 462 102Q496 113 518.5 142.5Q541 172 552 222.5Q563 273 563 351Q563 423 553 471Q543 519 521 547.5Q499 576 464.5 588Q430 600 382 600H348Q324 600 315 588.5Q306 577 305 561Q304 543 303.5 509.5Q303 476 302.5 435Q302 394 302 349Q302 304 302.5 262.5Q303 221 303.5 187Q304 153 305 135ZM235 907Q250 902 268.5 893.5Q287 885 306.5 874Q326 863 344 851Q362 839 376 828Q389 839 407 851Q425 863 444 873.5Q463 884 481 893Q499 902 513 907L522 897Q513 876 499.5 854.5Q486 833 470 814Q454 795 437.5 779Q421 763 407 751H340Q326 762 310.5 778Q295 794 279.5 813Q264 832 250 853.5Q236 875 226 897Z" glyph-name="Dcaron" horiz-adv-x="791" unicode="&#270;" /><glyph d="M342 527Q484 527 547 464Q610 401 612 268Q613 193 593.5 142Q574 91 538.5 59Q503 27 453.5 13Q404 -1 346 -1Q340 -1 320.5 -1Q301 -1 276.5 -0.5Q252 0 226 0Q200 0 182 0Q164 0 140 0Q116 0 93 -0.5Q70 -1 52 -1.5Q34 -2 29 -2Q30 12 30 27Q30 42 30 53Q30 66 29 78H54Q81 78 90 89Q99 100 101 125Q102 135 102 157.5Q102 180 102.5 208.5Q103 237 102.5 269Q102 301 102 329Q102 357 101.5 378.5Q101 400 101 409Q99 432 89.5 440.5Q80 449 59 449H29Q30 463 30 477Q30 491 30 502Q30 515 29 528Q64 527 107 526.5Q150 526 183 526Q201 526 224 526Q247 526 270 526.5Q293 527 312.5 527Q332 527 342 527ZM258 113Q261 81 292 81H314Q348 81 373.5 89Q399 97 415.5 118Q432 139 440.5 175.5Q449 212 449 269Q449 322 441 356.5Q433 391 416.5 411.5Q400 432 374.5 440Q349 448 315 448H292Q273 448 266 439.5Q259 431 258 419Q258 409 257.5 385.5Q257 362 256.5 331.5Q256 301 256 267Q256 233 256 202Q256 171 256.5 147Q257 123 258 113ZM167 750Q182 745 200.5 736.5Q219 728 238.5 717Q258 706 276 694Q294 682 308 671Q321 682 339 694Q357 706 376 716.5Q395 727 413 736Q431 745 445 750L454 740Q445 719 431.5 697.5Q418 676 402 657Q386 638 369.5 622Q353 606 339 594H272Q258 605 242.5 621Q227 637 211.5 656Q196 675 182 696.5Q168 718 158 740Z" glyph-name="Dcaron.sc" horiz-adv-x="652" /><glyph d="M411 689Q501 689 565.5 669Q630 649 671 607Q712 565 732 501Q752 437 753 350Q754 252 729 185Q704 118 658.5 77Q613 36 550.5 17.5Q488 -1 415 -1H341Q310 -1 277 -0.5Q244 0 220 0Q197 0 164 -0.5Q131 -1 101 -1Q66 -2 28 -2V91H63Q98 91 110 102Q122 113 124 145Q125 165 125.5 210Q126 255 126 309Q104 309 86 308.5Q68 308 57 308Q58 311 58.5 323.5Q59 336 59 350.5Q59 365 58.5 377.5Q58 390 58 394Q69 393 87 392.5Q105 392 126 392Q126 443 125.5 484Q125 525 124 542Q122 573 109 586Q96 599 69 599H28V690Q34 690 56 689.5Q78 689 107 689Q136 689 167 688.5Q198 688 222 688Q245 688 275 688Q305 688 333 688.5Q361 689 382.5 689Q404 689 411 689ZM305 135Q306 113 317.5 102Q329 91 348 91H381Q428 91 462 102Q496 113 518.5 142.5Q541 172 552 222.5Q563 273 563 351Q563 423 553 471Q543 519 521 547.5Q499 576 464.5 588Q430 600 382 600H348Q324 600 315 588.5Q306 577 305 561Q303 538 302.5 492Q302 446 302 392Q335 392 362.5 392.5Q390 393 405 394Q405 389 404.5 377Q404 365 404 351Q404 337 404.5 324.5Q405 312 405 308Q389 308 362 308.5Q335 309 302 309Q303 253 303 205.5Q303 158 305 135Z" glyph-name="Dcroat" horiz-adv-x="791" unicode="&#272;" /><glyph d="M342 527Q484 527 547 464Q610 401 612 268Q613 193 593.5 142Q574 91 538.5 59Q503 27 453.5 13Q404 -1 346 -1Q340 -1 320.5 -1Q301 -1 276.5 -0.5Q252 0 226 0Q200 0 182 0Q164 0 140 0Q116 0 93 -0.5Q70 -1 52 -1.5Q34 -2 29 -2Q30 12 30 27Q30 42 30 53Q30 66 29 78H54Q81 78 90 89Q99 100 101 125Q102 136 102 166Q102 196 102 232Q94 232 81.5 232Q69 232 53 231Q53 234 53.5 244.5Q54 255 54 267Q54 279 53.5 289.5Q53 300 53 303Q69 302 81.5 302Q94 302 102 302Q102 339 102 368.5Q102 398 101 409Q99 432 89.5 440.5Q80 449 59 449H29Q30 463 30 477Q30 491 30 502Q30 515 29 528Q64 527 107 526.5Q150 526 183 526Q201 526 224 526Q247 526 270 526.5Q293 527 312.5 527Q332 527 342 527ZM258 113Q261 81 292 81H314Q348 81 373.5 89Q399 97 415.5 118Q432 139 440.5 175.5Q449 212 449 269Q449 322 441 356.5Q433 391 416.5 411.5Q400 432 374.5 440Q349 448 315 448H292Q273 448 266 439.5Q259 431 258 419Q257 407 256.5 374.5Q256 342 256 301Q284 301 307 301.5Q330 302 344 303Q344 299 343.5 288.5Q343 278 343 266.5Q343 255 343.5 244.5Q344 234 344 231Q322 232 298.5 232Q275 232 255 232Q255 191 255.5 158.5Q256 126 258 113Z" glyph-name="Dcroat.sc" horiz-adv-x="652" /><glyph d="M433 501Q447 500 459.5 500Q472 500 483 500Q495 500 507 501Q506 479 505 463Q504 447 503.5 430.5Q503 414 502.5 394.5Q502 375 502 348Q502 320 502.5 299.5Q503 279 503.5 261.5Q504 244 505 227.5Q506 211 507 192Q496 193 484 193Q473 193 460.5 193Q448 193 435 192V215Q435 242 430 261.5Q425 281 414 293.5Q403 306 383.5 312Q364 318 335 318H304Q304 263 304.5 217Q305 171 307 151Q309 116 324 103.5Q339 91 366 91H471Q509 91 535 100Q561 109 576.5 130.5Q592 152 599 186.5Q606 221 606 272Q612 272 626 271.5Q640 271 655.5 271Q671 271 685 271.5Q699 272 705 272Q702 244 700.5 209.5Q699 175 697.5 138Q696 101 695.5 64Q695 27 695 -5Q674 -4 645 -3Q616 -2 585.5 -1Q555 0 527 0Q499 0 480 0H217Q194 0 163 -0.5Q132 -1 102.5 -1Q73 -1 52 -1.5Q31 -2 28 -2V91H63Q98 91 110 108Q122 125 124 155Q125 168 125.5 197.5Q126 227 126.5 264.5Q127 302 127 343.5Q127 385 127 423Q127 461 126.5 491.5Q126 522 125 536Q123 571 109.5 585Q96 599 68 599H28V690Q34 690 58.5 689.5Q83 689 113 689Q143 689 173 688.5Q203 688 220 688H473Q489 688 520 688Q551 688 585.5 689Q620 690 651.5 691.5Q683 693 701 695Q699 668 697.5 634Q696 600 695.5 564.5Q695 529 695 495.5Q695 462 695 435H603Q603 486 595 517.5Q587 549 570.5 567Q554 585 529.5 591Q505 597 471 597H364Q335 597 322 583Q309 569 307 541Q305 519 304.5 474.5Q304 430 304 378H337Q391 378 412 400Q433 422 433 475Z" glyph-name="E" horiz-adv-x="733" unicode="E" /><glyph d="M353 381Q364 380 375 380Q386 380 394 380Q404 380 412 381Q412 364 411.5 352Q411 340 410.5 328Q410 316 409.5 301.5Q409 287 409 266Q409 245 409 229Q409 213 409.5 199.5Q410 186 410.5 174Q411 162 412 147Q404 148 394 148Q386 148 375.5 148Q365 148 354 147V168Q354 208 338.5 225.5Q323 243 280 243H257Q257 203 257.5 169.5Q258 136 259 123Q261 97 274 87.5Q287 78 308 78H382Q437 78 460.5 105Q484 132 484 203V210Q489 210 501.5 209.5Q514 209 527.5 209Q541 209 553.5 209.5Q566 210 571 210Q569 189 567.5 162.5Q566 136 565 107.5Q564 79 563.5 50.5Q563 22 563 -3Q549 -2 526 -1.5Q503 -1 478.5 -0.5Q454 0 432 0Q410 0 397 0H153Q143 0 125 0Q107 0 87.5 -0.5Q68 -1 51.5 -1.5Q35 -2 28 -2Q28 2 28.5 13.5Q29 25 29 38Q29 51 28.5 62Q28 73 28 78H54Q81 78 89.5 90.5Q98 103 100 129Q101 138 101.5 159.5Q102 181 102 208.5Q102 236 102 266.5Q102 297 102 324.5Q102 352 101.5 373Q101 394 101 403Q99 427 89.5 438Q80 449 58 449H28Q28 453 28.5 464.5Q29 476 29 488.5Q29 501 28.5 512Q28 523 28 528Q40 528 63 527.5Q86 527 110 526.5Q134 526 155 526Q176 526 185 526H382Q395 526 420.5 526Q446 526 474 526.5Q502 527 528 528Q554 529 568 531Q566 510 565 484Q564 458 563.5 431Q563 404 563 378.5Q563 353 563 332Q558 332 546.5 332Q535 332 522.5 332Q510 332 498.5 331.5Q487 331 482 331V337Q482 373 475 395Q468 417 455.5 429Q443 441 424.5 445Q406 449 382 449H306Q262 449 259 405Q258 392 257.5 359Q257 326 257 287H285Q321 287 337 303.5Q353 320 353 359Z" glyph-name="E.sc" horiz-adv-x="602" /><glyph d="M433 501Q447 500 459.5 500Q472 500 483 500Q495 500 507 501Q506 479 505 463Q504 447 503.5 430.5Q503 414 502.5 394.5Q502 375 502 348Q502 320 502.5 299.5Q503 279 503.5 261.5Q504 244 505 227.5Q506 211 507 192Q496 193 484 193Q473 193 460.5 193Q448 193 435 192V215Q435 242 430 261.5Q425 281 414 293.5Q403 306 383.5 312Q364 318 335 318H304Q304 263 304.5 217Q305 171 307 151Q309 116 324 103.5Q339 91 366 91H471Q509 91 535 100Q561 109 576.5 130.5Q592 152 599 186.5Q606 221 606 272Q612 272 626 271.5Q640 271 655.5 271Q671 271 685 271.5Q699 272 705 272Q702 244 700.5 209.5Q699 175 697.5 138Q696 101 695.5 64Q695 27 695 -5Q674 -4 645 -3Q616 -2 585.5 -1Q555 0 527 0Q499 0 480 0H217Q194 0 163 -0.5Q132 -1 102.5 -1Q73 -1 52 -1.5Q31 -2 28 -2V91H63Q98 91 110 108Q122 125 124 155Q125 168 125.5 197.5Q126 227 126.5 264.5Q127 302 127 343.5Q127 385 127 423Q127 461 126.5 491.5Q126 522 125 536Q123 571 109.5 585Q96 599 68 599H28V690Q34 690 58.5 689.5Q83 689 113 689Q143 689 173 688.5Q203 688 220 688H473Q489 688 520 688Q551 688 585.5 689Q620 690 651.5 691.5Q683 693 701 695Q699 668 697.5 634Q696 600 695.5 564.5Q695 529 695 495.5Q695 462 695 435H603Q603 486 595 517.5Q587 549 570.5 567Q554 585 529.5 591Q505 597 471 597H364Q335 597 322 583Q309 569 307 541Q305 519 304.5 474.5Q304 430 304 378H337Q391 378 412 400Q433 422 433 475ZM331 754Q344 771 359.5 790Q375 809 392 827Q409 845 426.5 860Q444 875 459 885Q484 898 503 894Q522 890 530 876Q538 862 533 843.5Q528 825 504 810Q471 789 424.5 770.5Q378 752 339 742Z" glyph-name="Eacute" horiz-adv-x="733" unicode="&#201;" /><glyph d="M353 381Q364 380 375 380Q386 380 394 380Q404 380 412 381Q412 364 411.5 352Q411 340 410.5 328Q410 316 409.5 301.5Q409 287 409 266Q409 245 409 229Q409 213 409.5 199.5Q410 186 410.5 174Q411 162 412 147Q404 148 394 148Q386 148 375.5 148Q365 148 354 147V168Q354 208 338.5 225.5Q323 243 280 243H257Q257 203 257.5 169.5Q258 136 259 123Q261 97 274 87.5Q287 78 308 78H382Q437 78 460.5 105Q484 132 484 203V210Q489 210 501.5 209.5Q514 209 527.5 209Q541 209 553.5 209.5Q566 210 571 210Q569 189 567.5 162.5Q566 136 565 107.5Q564 79 563.5 50.5Q563 22 563 -3Q549 -2 526 -1.5Q503 -1 478.5 -0.5Q454 0 432 0Q410 0 397 0H153Q143 0 125 0Q107 0 87.5 -0.5Q68 -1 51.5 -1.5Q35 -2 28 -2Q28 2 28.5 13.5Q29 25 29 38Q29 51 28.5 62Q28 73 28 78H54Q81 78 89.5 90.5Q98 103 100 129Q101 138 101.5 159.5Q102 181 102 208.5Q102 236 102 266.5Q102 297 102 324.5Q102 352 101.5 373Q101 394 101 403Q99 427 89.5 438Q80 449 58 449H28Q28 453 28.5 464.5Q29 476 29 488.5Q29 501 28.5 512Q28 523 28 528Q40 528 63 527.5Q86 527 110 526.5Q134 526 155 526Q176 526 185 526H382Q395 526 420.5 526Q446 526 474 526.5Q502 527 528 528Q554 529 568 531Q566 510 565 484Q564 458 563.5 431Q563 404 563 378.5Q563 353 563 332Q558 332 546.5 332Q535 332 522.5 332Q510 332 498.5 331.5Q487 331 482 331V337Q482 373 475 395Q468 417 455.5 429Q443 441 424.5 445Q406 449 382 449H306Q262 449 259 405Q258 392 257.5 359Q257 326 257 287H285Q321 287 337 303.5Q353 320 353 359ZM253 598Q266 615 281.5 634Q297 653 314 671Q331 689 348.5 704Q366 719 381 729Q406 742 425 738Q444 734 452 720Q460 706 455 687.5Q450 669 426 654Q393 633 346.5 614.5Q300 596 261 586Z" glyph-name="Eacute.sc" horiz-adv-x="602" /><glyph d="M433 501Q447 500 459.5 500Q472 500 483 500Q495 500 507 501Q506 479 505 463Q504 447 503.5 430.5Q503 414 502.5 394.5Q502 375 502 348Q502 320 502.5 299.5Q503 279 503.5 261.5Q504 244 505 227.5Q506 211 507 192Q496 193 484 193Q473 193 460.5 193Q448 193 435 192V215Q435 242 430 261.5Q425 281 414 293.5Q403 306 383.5 312Q364 318 335 318H304Q304 263 304.5 217Q305 171 307 151Q309 116 324 103.5Q339 91 366 91H471Q509 91 535 100Q561 109 576.5 130.5Q592 152 599 186.5Q606 221 606 272Q612 272 626 271.5Q640 271 655.5 271Q671 271 685 271.5Q699 272 705 272Q702 244 700.5 209.5Q699 175 697.5 138Q696 101 695.5 64Q695 27 695 -5Q674 -4 645 -3Q616 -2 585.5 -1Q555 0 527 0Q499 0 480 0H217Q194 0 163 -0.5Q132 -1 102.5 -1Q73 -1 52 -1.5Q31 -2 28 -2V91H63Q98 91 110 108Q122 125 124 155Q125 168 125.5 197.5Q126 227 126.5 264.5Q127 302 127 343.5Q127 385 127 423Q127 461 126.5 491.5Q126 522 125 536Q123 571 109.5 585Q96 599 68 599H28V690Q34 690 58.5 689.5Q83 689 113 689Q143 689 173 688.5Q203 688 220 688H473Q489 688 520 688Q551 688 585.5 689Q620 690 651.5 691.5Q683 693 701 695Q699 668 697.5 634Q696 600 695.5 564.5Q695 529 695 495.5Q695 462 695 435H603Q603 486 595 517.5Q587 549 570.5 567Q554 585 529.5 591Q505 597 471 597H364Q335 597 322 583Q309 569 307 541Q305 519 304.5 474.5Q304 430 304 378H337Q391 378 412 400Q433 422 433 475ZM393 746Q355 746 327.5 757.5Q300 769 282.5 788.5Q265 808 258.5 834.5Q252 861 256 891L279 892Q282 855 312.5 842Q343 829 393 829Q443 829 473.5 842Q504 855 507 892L530 891Q534 861 527.5 834.5Q521 808 504 788.5Q487 769 459 757.5Q431 746 393 746Z" glyph-name="Ebreve" horiz-adv-x="733" unicode="&#276;" /><glyph d="M353 381Q364 380 375 380Q386 380 394 380Q404 380 412 381Q412 364 411.5 352Q411 340 410.5 328Q410 316 409.5 301.5Q409 287 409 266Q409 245 409 229Q409 213 409.5 199.5Q410 186 410.5 174Q411 162 412 147Q404 148 394 148Q386 148 375.5 148Q365 148 354 147V168Q354 208 338.5 225.5Q323 243 280 243H257Q257 203 257.5 169.5Q258 136 259 123Q261 97 274 87.5Q287 78 308 78H382Q437 78 460.5 105Q484 132 484 203V210Q489 210 501.5 209.5Q514 209 527.5 209Q541 209 553.5 209.5Q566 210 571 210Q569 189 567.5 162.5Q566 136 565 107.5Q564 79 563.5 50.5Q563 22 563 -3Q549 -2 526 -1.5Q503 -1 478.5 -0.5Q454 0 432 0Q410 0 397 0H153Q143 0 125 0Q107 0 87.5 -0.5Q68 -1 51.5 -1.5Q35 -2 28 -2Q28 2 28.5 13.5Q29 25 29 38Q29 51 28.5 62Q28 73 28 78H54Q81 78 89.5 90.5Q98 103 100 129Q101 138 101.5 159.5Q102 181 102 208.5Q102 236 102 266.5Q102 297 102 324.5Q102 352 101.5 373Q101 394 101 403Q99 427 89.5 438Q80 449 58 449H28Q28 453 28.5 464.5Q29 476 29 488.5Q29 501 28.5 512Q28 523 28 528Q40 528 63 527.5Q86 527 110 526.5Q134 526 155 526Q176 526 185 526H382Q395 526 420.5 526Q446 526 474 526.5Q502 527 528 528Q554 529 568 531Q566 510 565 484Q564 458 563.5 431Q563 404 563 378.5Q563 353 563 332Q558 332 546.5 332Q535 332 522.5 332Q510 332 498.5 331.5Q487 331 482 331V337Q482 373 475 395Q468 417 455.5 429Q443 441 424.5 445Q406 449 382 449H306Q262 449 259 405Q258 392 257.5 359Q257 326 257 287H285Q321 287 337 303.5Q353 320 353 359ZM315 589Q277 589 249.5 600.5Q222 612 204.5 631.5Q187 651 180.5 677.5Q174 704 178 734L201 735Q204 698 234.5 685Q265 672 315 672Q365 672 395.5 685Q426 698 429 735L452 734Q456 704 449.5 677.5Q443 651 426 631.5Q409 612 381 600.5Q353 589 315 589Z" glyph-name="Ebreve.sc" horiz-adv-x="602" /><glyph d="M433 501Q447 500 459.5 500Q472 500 483 500Q495 500 507 501Q506 479 505 463Q504 447 503.5 430.5Q503 414 502.5 394.5Q502 375 502 348Q502 320 502.5 299.5Q503 279 503.5 261.5Q504 244 505 227.5Q506 211 507 192Q496 193 484 193Q473 193 460.5 193Q448 193 435 192V215Q435 242 430 261.5Q425 281 414 293.5Q403 306 383.5 312Q364 318 335 318H304Q304 263 304.5 217Q305 171 307 151Q309 116 324 103.5Q339 91 366 91H471Q509 91 535 100Q561 109 576.5 130.5Q592 152 599 186.5Q606 221 606 272Q612 272 626 271.5Q640 271 655.5 271Q671 271 685 271.5Q699 272 705 272Q702 244 700.5 209.5Q699 175 697.5 138Q696 101 695.5 64Q695 27 695 -5Q674 -4 645 -3Q616 -2 585.5 -1Q555 0 527 0Q499 0 480 0H217Q194 0 163 -0.5Q132 -1 102.5 -1Q73 -1 52 -1.5Q31 -2 28 -2V91H63Q98 91 110 108Q122 125 124 155Q125 168 125.5 197.5Q126 227 126.5 264.5Q127 302 127 343.5Q127 385 127 423Q127 461 126.5 491.5Q126 522 125 536Q123 571 109.5 585Q96 599 68 599H28V690Q34 690 58.5 689.5Q83 689 113 689Q143 689 173 688.5Q203 688 220 688H473Q489 688 520 688Q551 688 585.5 689Q620 690 651.5 691.5Q683 693 701 695Q699 668 697.5 634Q696 600 695.5 564.5Q695 529 695 495.5Q695 462 695 435H603Q603 486 595 517.5Q587 549 570.5 567Q554 585 529.5 591Q505 597 471 597H364Q335 597 322 583Q309 569 307 541Q305 519 304.5 474.5Q304 430 304 378H337Q391 378 412 400Q433 422 433 475ZM238 907Q253 902 271.5 893.5Q290 885 309.5 874Q329 863 347 851Q365 839 379 828Q392 839 410 851Q428 863 447 873.5Q466 884 484 893Q502 902 516 907L525 897Q516 876 502.5 854.5Q489 833 473 814Q457 795 440.5 779Q424 763 410 751H343Q329 762 313.5 778Q298 794 282.5 813Q267 832 253 853.5Q239 875 229 897Z" glyph-name="Ecaron" horiz-adv-x="733" unicode="&#282;" /><glyph d="M353 381Q364 380 375 380Q386 380 394 380Q404 380 412 381Q412 364 411.5 352Q411 340 410.5 328Q410 316 409.5 301.5Q409 287 409 266Q409 245 409 229Q409 213 409.5 199.5Q410 186 410.5 174Q411 162 412 147Q404 148 394 148Q386 148 375.5 148Q365 148 354 147V168Q354 208 338.5 225.5Q323 243 280 243H257Q257 203 257.5 169.5Q258 136 259 123Q261 97 274 87.5Q287 78 308 78H382Q437 78 460.5 105Q484 132 484 203V210Q489 210 501.5 209.5Q514 209 527.5 209Q541 209 553.5 209.5Q566 210 571 210Q569 189 567.5 162.5Q566 136 565 107.5Q564 79 563.5 50.5Q563 22 563 -3Q549 -2 526 -1.5Q503 -1 478.5 -0.5Q454 0 432 0Q410 0 397 0H153Q143 0 125 0Q107 0 87.5 -0.5Q68 -1 51.5 -1.5Q35 -2 28 -2Q28 2 28.5 13.5Q29 25 29 38Q29 51 28.5 62Q28 73 28 78H54Q81 78 89.5 90.5Q98 103 100 129Q101 138 101.5 159.5Q102 181 102 208.5Q102 236 102 266.5Q102 297 102 324.5Q102 352 101.5 373Q101 394 101 403Q99 427 89.5 438Q80 449 58 449H28Q28 453 28.5 464.5Q29 476 29 488.5Q29 501 28.5 512Q28 523 28 528Q40 528 63 527.5Q86 527 110 526.5Q134 526 155 526Q176 526 185 526H382Q395 526 420.5 526Q446 526 474 526.5Q502 527 528 528Q554 529 568 531Q566 510 565 484Q564 458 563.5 431Q563 404 563 378.5Q563 353 563 332Q558 332 546.5 332Q535 332 522.5 332Q510 332 498.5 331.5Q487 331 482 331V337Q482 373 475 395Q468 417 455.5 429Q443 441 424.5 445Q406 449 382 449H306Q262 449 259 405Q258 392 257.5 359Q257 326 257 287H285Q321 287 337 303.5Q353 320 353 359ZM162 751Q177 746 195.5 737.5Q214 729 233.5 718Q253 707 271 695Q289 683 303 672Q316 683 334 695Q352 707 371 717.5Q390 728 408 737Q426 746 440 751L449 741Q440 720 426.5 698.5Q413 677 397 658Q381 639 364.5 623Q348 607 334 595H267Q253 606 237.5 622Q222 638 206.5 657Q191 676 177 697.5Q163 719 153 741Z" glyph-name="Ecaron.sc" horiz-adv-x="602" /><glyph d="M433 501Q447 500 459.5 500Q472 500 483 500Q495 500 507 501Q506 479 505 463Q504 447 503.5 430.5Q503 414 502.5 394.5Q502 375 502 348Q502 320 502.5 299.5Q503 279 503.5 261.5Q504 244 505 227.5Q506 211 507 192Q496 193 484 193Q473 193 460.5 193Q448 193 435 192V215Q435 242 430 261.5Q425 281 414 293.5Q403 306 383.5 312Q364 318 335 318H304Q304 263 304.5 217Q305 171 307 151Q309 116 324 103.5Q339 91 366 91H471Q509 91 535 100Q561 109 576.5 130.5Q592 152 599 186.5Q606 221 606 272Q612 272 626 271.5Q640 271 655.5 271Q671 271 685 271.5Q699 272 705 272Q702 244 700.5 209.5Q699 175 697.5 138Q696 101 695.5 64Q695 27 695 -5Q674 -4 645 -3Q616 -2 585.5 -1Q555 0 527 0Q499 0 480 0H217Q194 0 163 -0.5Q132 -1 102.5 -1Q73 -1 52 -1.5Q31 -2 28 -2V91H63Q98 91 110 108Q122 125 124 155Q125 168 125.5 197.5Q126 227 126.5 264.5Q127 302 127 343.5Q127 385 127 423Q127 461 126.5 491.5Q126 522 125 536Q123 571 109.5 585Q96 599 68 599H28V690Q34 690 58.5 689.5Q83 689 113 689Q143 689 173 688.5Q203 688 220 688H473Q489 688 520 688Q551 688 585.5 689Q620 690 651.5 691.5Q683 693 701 695Q699 668 697.5 634Q696 600 695.5 564.5Q695 529 695 495.5Q695 462 695 435H603Q603 486 595 517.5Q587 549 570.5 567Q554 585 529.5 591Q505 597 471 597H364Q335 597 322 583Q309 569 307 541Q305 519 304.5 474.5Q304 430 304 378H337Q391 378 412 400Q433 422 433 475ZM526 734Q511 739 492.5 747.5Q474 756 454.5 767Q435 778 417 790Q399 802 385 814Q372 803 354 791Q336 779 317 768Q298 757 279.5 748Q261 739 248 735L239 745Q248 766 261.5 787Q275 808 291 827Q307 846 323.5 862.5Q340 879 354 891H421Q434 880 450 864Q466 848 481.5 829Q497 810 511 788.5Q525 767 535 745Z" glyph-name="Ecircumflex" horiz-adv-x="733" unicode="&#202;" /><glyph d="M353 381Q364 380 375 380Q386 380 394 380Q404 380 412 381Q412 364 411.5 352Q411 340 410.5 328Q410 316 409.5 301.5Q409 287 409 266Q409 245 409 229Q409 213 409.5 199.5Q410 186 410.5 174Q411 162 412 147Q404 148 394 148Q386 148 375.5 148Q365 148 354 147V168Q354 208 338.5 225.5Q323 243 280 243H257Q257 203 257.5 169.5Q258 136 259 123Q261 97 274 87.5Q287 78 308 78H382Q437 78 460.5 105Q484 132 484 203V210Q489 210 501.5 209.5Q514 209 527.5 209Q541 209 553.5 209.5Q566 210 571 210Q569 189 567.5 162.5Q566 136 565 107.5Q564 79 563.5 50.5Q563 22 563 -3Q549 -2 526 -1.5Q503 -1 478.5 -0.5Q454 0 432 0Q410 0 397 0H153Q143 0 125 0Q107 0 87.5 -0.5Q68 -1 51.5 -1.5Q35 -2 28 -2Q28 2 28.5 13.5Q29 25 29 38Q29 51 28.5 62Q28 73 28 78H54Q81 78 89.5 90.5Q98 103 100 129Q101 138 101.5 159.5Q102 181 102 208.5Q102 236 102 266.5Q102 297 102 324.5Q102 352 101.5 373Q101 394 101 403Q99 427 89.5 438Q80 449 58 449H28Q28 453 28.5 464.5Q29 476 29 488.5Q29 501 28.5 512Q28 523 28 528Q40 528 63 527.5Q86 527 110 526.5Q134 526 155 526Q176 526 185 526H382Q395 526 420.5 526Q446 526 474 526.5Q502 527 528 528Q554 529 568 531Q566 510 565 484Q564 458 563.5 431Q563 404 563 378.5Q563 353 563 332Q558 332 546.5 332Q535 332 522.5 332Q510 332 498.5 331.5Q487 331 482 331V337Q482 373 475 395Q468 417 455.5 429Q443 441 424.5 445Q406 449 382 449H306Q262 449 259 405Q258 392 257.5 359Q257 326 257 287H285Q321 287 337 303.5Q353 320 353 359ZM454 583Q439 588 420.5 596.5Q402 605 382.5 616Q363 627 345 639Q327 651 313 663Q300 652 282 640Q264 628 245 617Q226 606 207.5 597Q189 588 176 584L167 594Q176 615 189.5 636Q203 657 219 676Q235 695 251.5 711.5Q268 728 282 740H349Q362 729 378 713Q394 697 409.5 678Q425 659 439 637.5Q453 616 463 594Z" glyph-name="Ecircumflex.sc" horiz-adv-x="602" /><glyph d="M433 501Q447 500 459.5 500Q472 500 483 500Q495 500 507 501Q506 479 505 463Q504 447 503.5 430.5Q503 414 502.5 394.5Q502 375 502 348Q502 320 502.5 299.5Q503 279 503.5 261.5Q504 244 505 227.5Q506 211 507 192Q496 193 484 193Q473 193 460.5 193Q448 193 435 192V215Q435 242 430 261.5Q425 281 414 293.5Q403 306 383.5 312Q364 318 335 318H304Q304 263 304.5 217Q305 171 307 151Q309 116 324 103.5Q339 91 366 91H471Q509 91 535 100Q561 109 576.5 130.5Q592 152 599 186.5Q606 221 606 272Q612 272 626 271.5Q640 271 655.5 271Q671 271 685 271.5Q699 272 705 272Q702 244 700.5 209.5Q699 175 697.5 138Q696 101 695.5 64Q695 27 695 -5Q674 -4 645 -3Q616 -2 585.5 -1Q555 0 527 0Q499 0 480 0H217Q194 0 163 -0.5Q132 -1 102.5 -1Q73 -1 52 -1.5Q31 -2 28 -2V91H63Q98 91 110 108Q122 125 124 155Q125 168 125.5 197.5Q126 227 126.5 264.5Q127 302 127 343.5Q127 385 127 423Q127 461 126.5 491.5Q126 522 125 536Q123 571 109.5 585Q96 599 68 599H28V690Q34 690 58.5 689.5Q83 689 113 689Q143 689 173 688.5Q203 688 220 688H473Q489 688 520 688Q551 688 585.5 689Q620 690 651.5 691.5Q683 693 701 695Q699 668 697.5 634Q696 600 695.5 564.5Q695 529 695 495.5Q695 462 695 435H603Q603 486 595 517.5Q587 549 570.5 567Q554 585 529.5 591Q505 597 471 597H364Q335 597 322 583Q309 569 307 541Q305 519 304.5 474.5Q304 430 304 378H337Q391 378 412 400Q433 422 433 475ZM361 812Q361 785 344.5 769.5Q328 754 302 754Q277 754 260.5 769.5Q244 785 244 812Q244 838 260.5 854Q277 870 302 870Q328 870 344.5 854Q361 838 361 812ZM533 812Q533 785 516.5 769.5Q500 754 474 754Q449 754 432.5 769.5Q416 785 416 812Q416 838 432.5 854Q449 870 474 870Q500 870 516.5 854Q533 838 533 812Z" glyph-name="Edieresis" horiz-adv-x="733" unicode="&#203;" /><glyph d="M353 381Q364 380 375 380Q386 380 394 380Q404 380 412 381Q412 364 411.5 352Q411 340 410.5 328Q410 316 409.5 301.5Q409 287 409 266Q409 245 409 229Q409 213 409.5 199.5Q410 186 410.5 174Q411 162 412 147Q404 148 394 148Q386 148 375.5 148Q365 148 354 147V168Q354 208 338.5 225.5Q323 243 280 243H257Q257 203 257.5 169.5Q258 136 259 123Q261 97 274 87.5Q287 78 308 78H382Q437 78 460.5 105Q484 132 484 203V210Q489 210 501.5 209.5Q514 209 527.5 209Q541 209 553.5 209.5Q566 210 571 210Q569 189 567.5 162.5Q566 136 565 107.5Q564 79 563.5 50.5Q563 22 563 -3Q549 -2 526 -1.5Q503 -1 478.5 -0.5Q454 0 432 0Q410 0 397 0H153Q143 0 125 0Q107 0 87.5 -0.5Q68 -1 51.5 -1.5Q35 -2 28 -2Q28 2 28.5 13.5Q29 25 29 38Q29 51 28.5 62Q28 73 28 78H54Q81 78 89.5 90.5Q98 103 100 129Q101 138 101.5 159.5Q102 181 102 208.5Q102 236 102 266.5Q102 297 102 324.5Q102 352 101.5 373Q101 394 101 403Q99 427 89.5 438Q80 449 58 449H28Q28 453 28.5 464.5Q29 476 29 488.5Q29 501 28.5 512Q28 523 28 528Q40 528 63 527.5Q86 527 110 526.5Q134 526 155 526Q176 526 185 526H382Q395 526 420.5 526Q446 526 474 526.5Q502 527 528 528Q554 529 568 531Q566 510 565 484Q564 458 563.5 431Q563 404 563 378.5Q563 353 563 332Q558 332 546.5 332Q535 332 522.5 332Q510 332 498.5 331.5Q487 331 482 331V337Q482 373 475 395Q468 417 455.5 429Q443 441 424.5 445Q406 449 382 449H306Q262 449 259 405Q258 392 257.5 359Q257 326 257 287H285Q321 287 337 303.5Q353 320 353 359ZM288 654Q288 627 271.5 611.5Q255 596 229 596Q204 596 187.5 611.5Q171 627 171 654Q171 680 187.5 696Q204 712 229 712Q255 712 271.5 696Q288 680 288 654ZM460 654Q460 627 443.5 611.5Q427 596 401 596Q376 596 359.5 611.5Q343 627 343 654Q343 680 359.5 696Q376 712 401 712Q427 712 443.5 696Q460 680 460 654Z" glyph-name="Edieresis.sc" horiz-adv-x="602" /><glyph d="M433 501Q447 500 459.5 500Q472 500 483 500Q495 500 507 501Q506 479 505 463Q504 447 503.5 430.5Q503 414 502.5 394.5Q502 375 502 348Q502 320 502.5 299.5Q503 279 503.5 261.5Q504 244 505 227.5Q506 211 507 192Q496 193 484 193Q473 193 460.5 193Q448 193 435 192V215Q435 242 430 261.5Q425 281 414 293.5Q403 306 383.5 312Q364 318 335 318H304Q304 263 304.5 217Q305 171 307 151Q309 116 324 103.5Q339 91 366 91H471Q509 91 535 100Q561 109 576.5 130.5Q592 152 599 186.5Q606 221 606 272Q612 272 626 271.5Q640 271 655.5 271Q671 271 685 271.5Q699 272 705 272Q702 244 700.5 209.5Q699 175 697.5 138Q696 101 695.5 64Q695 27 695 -5Q674 -4 645 -3Q616 -2 585.5 -1Q555 0 527 0Q499 0 480 0H217Q194 0 163 -0.5Q132 -1 102.5 -1Q73 -1 52 -1.5Q31 -2 28 -2V91H63Q98 91 110 108Q122 125 124 155Q125 168 125.5 197.5Q126 227 126.5 264.5Q127 302 127 343.5Q127 385 127 423Q127 461 126.5 491.5Q126 522 125 536Q123 571 109.5 585Q96 599 68 599H28V690Q34 690 58.5 689.5Q83 689 113 689Q143 689 173 688.5Q203 688 220 688H473Q489 688 520 688Q551 688 585.5 689Q620 690 651.5 691.5Q683 693 701 695Q699 668 697.5 634Q696 600 695.5 564.5Q695 529 695 495.5Q695 462 695 435H603Q603 486 595 517.5Q587 549 570.5 567Q554 585 529.5 591Q505 597 471 597H364Q335 597 322 583Q309 569 307 541Q305 519 304.5 474.5Q304 430 304 378H337Q391 378 412 400Q433 422 433 475ZM447 827Q447 798 429.5 780Q412 762 383 762Q355 762 337.5 780Q320 798 320 827Q320 856 337.5 873Q355 890 383 890Q412 890 429.5 873Q447 856 447 827Z" glyph-name="Edotaccent" horiz-adv-x="733" unicode="&#278;" /><glyph d="M353 381Q364 380 375 380Q386 380 394 380Q404 380 412 381Q412 364 411.5 352Q411 340 410.5 328Q410 316 409.5 301.5Q409 287 409 266Q409 245 409 229Q409 213 409.5 199.5Q410 186 410.5 174Q411 162 412 147Q404 148 394 148Q386 148 375.5 148Q365 148 354 147V168Q354 208 338.5 225.5Q323 243 280 243H257Q257 203 257.5 169.5Q258 136 259 123Q261 97 274 87.5Q287 78 308 78H382Q437 78 460.5 105Q484 132 484 203V210Q489 210 501.5 209.5Q514 209 527.5 209Q541 209 553.5 209.5Q566 210 571 210Q569 189 567.5 162.5Q566 136 565 107.5Q564 79 563.5 50.5Q563 22 563 -3Q549 -2 526 -1.5Q503 -1 478.5 -0.5Q454 0 432 0Q410 0 397 0H153Q143 0 125 0Q107 0 87.5 -0.5Q68 -1 51.5 -1.5Q35 -2 28 -2Q28 2 28.5 13.5Q29 25 29 38Q29 51 28.5 62Q28 73 28 78H54Q81 78 89.5 90.5Q98 103 100 129Q101 138 101.5 159.5Q102 181 102 208.5Q102 236 102 266.5Q102 297 102 324.5Q102 352 101.5 373Q101 394 101 403Q99 427 89.5 438Q80 449 58 449H28Q28 453 28.5 464.5Q29 476 29 488.5Q29 501 28.5 512Q28 523 28 528Q40 528 63 527.5Q86 527 110 526.5Q134 526 155 526Q176 526 185 526H382Q395 526 420.5 526Q446 526 474 526.5Q502 527 528 528Q554 529 568 531Q566 510 565 484Q564 458 563.5 431Q563 404 563 378.5Q563 353 563 332Q558 332 546.5 332Q535 332 522.5 332Q510 332 498.5 331.5Q487 331 482 331V337Q482 373 475 395Q468 417 455.5 429Q443 441 424.5 445Q406 449 382 449H306Q262 449 259 405Q258 392 257.5 359Q257 326 257 287H285Q321 287 337 303.5Q353 320 353 359ZM374 671Q374 642 356.5 624Q339 606 310 606Q282 606 264.5 624Q247 642 247 671Q247 700 264.5 717Q282 734 310 734Q339 734 356.5 717Q374 700 374 671Z" glyph-name="Edotaccent.sc" horiz-adv-x="602" /><glyph d="M433 501Q447 500 459.5 500Q472 500 483 500Q495 500 507 501Q506 479 505 463Q504 447 503.5 430.5Q503 414 502.5 394.5Q502 375 502 348Q502 320 502.5 299.5Q503 279 503.5 261.5Q504 244 505 227.5Q506 211 507 192Q496 193 484 193Q473 193 460.5 193Q448 193 435 192V215Q435 242 430 261.5Q425 281 414 293.5Q403 306 383.5 312Q364 318 335 318H304Q304 263 304.5 217Q305 171 307 151Q309 116 324 103.5Q339 91 366 91H471Q509 91 535 100Q561 109 576.5 130.5Q592 152 599 186.5Q606 221 606 272Q612 272 626 271.5Q640 271 655.5 271Q671 271 685 271.5Q699 272 705 272Q702 244 700.5 209.5Q699 175 697.5 138Q696 101 695.5 64Q695 27 695 -5Q674 -4 645 -3Q616 -2 585.5 -1Q555 0 527 0Q499 0 480 0H217Q194 0 163 -0.5Q132 -1 102.5 -1Q73 -1 52 -1.5Q31 -2 28 -2V91H63Q98 91 110 108Q122 125 124 155Q125 168 125.5 197.5Q126 227 126.5 264.5Q127 302 127 343.5Q127 385 127 423Q127 461 126.5 491.5Q126 522 125 536Q123 571 109.5 585Q96 599 68 599H28V690Q34 690 58.5 689.5Q83 689 113 689Q143 689 173 688.5Q203 688 220 688H473Q489 688 520 688Q551 688 585.5 689Q620 690 651.5 691.5Q683 693 701 695Q699 668 697.5 634Q696 600 695.5 564.5Q695 529 695 495.5Q695 462 695 435H603Q603 486 595 517.5Q587 549 570.5 567Q554 585 529.5 591Q505 597 471 597H364Q335 597 322 583Q309 569 307 541Q305 519 304.5 474.5Q304 430 304 378H337Q391 378 412 400Q433 422 433 475ZM453 742Q434 747 411.5 754.5Q389 762 367 771.5Q345 781 324 791Q303 801 287 812Q263 827 257.5 846Q252 865 261 878.5Q270 892 289.5 895.5Q309 899 335 883Q367 863 401 826Q435 789 461 754Z" glyph-name="Egrave" horiz-adv-x="733" unicode="&#200;" /><glyph d="M353 381Q364 380 375 380Q386 380 394 380Q404 380 412 381Q412 364 411.5 352Q411 340 410.5 328Q410 316 409.5 301.5Q409 287 409 266Q409 245 409 229Q409 213 409.5 199.5Q410 186 410.5 174Q411 162 412 147Q404 148 394 148Q386 148 375.5 148Q365 148 354 147V168Q354 208 338.5 225.5Q323 243 280 243H257Q257 203 257.5 169.5Q258 136 259 123Q261 97 274 87.5Q287 78 308 78H382Q437 78 460.5 105Q484 132 484 203V210Q489 210 501.5 209.5Q514 209 527.5 209Q541 209 553.5 209.5Q566 210 571 210Q569 189 567.5 162.5Q566 136 565 107.5Q564 79 563.5 50.5Q563 22 563 -3Q549 -2 526 -1.5Q503 -1 478.5 -0.5Q454 0 432 0Q410 0 397 0H153Q143 0 125 0Q107 0 87.5 -0.5Q68 -1 51.5 -1.5Q35 -2 28 -2Q28 2 28.5 13.5Q29 25 29 38Q29 51 28.5 62Q28 73 28 78H54Q81 78 89.5 90.5Q98 103 100 129Q101 138 101.5 159.5Q102 181 102 208.5Q102 236 102 266.5Q102 297 102 324.5Q102 352 101.5 373Q101 394 101 403Q99 427 89.5 438Q80 449 58 449H28Q28 453 28.5 464.5Q29 476 29 488.5Q29 501 28.5 512Q28 523 28 528Q40 528 63 527.5Q86 527 110 526.5Q134 526 155 526Q176 526 185 526H382Q395 526 420.5 526Q446 526 474 526.5Q502 527 528 528Q554 529 568 531Q566 510 565 484Q564 458 563.5 431Q563 404 563 378.5Q563 353 563 332Q558 332 546.5 332Q535 332 522.5 332Q510 332 498.5 331.5Q487 331 482 331V337Q482 373 475 395Q468 417 455.5 429Q443 441 424.5 445Q406 449 382 449H306Q262 449 259 405Q258 392 257.5 359Q257 326 257 287H285Q321 287 337 303.5Q353 320 353 359ZM365 586Q346 591 323.5 598.5Q301 606 279 615.5Q257 625 236 635Q215 645 199 656Q175 671 169.5 690Q164 709 173 722.5Q182 736 201.5 739.5Q221 743 247 727Q279 707 313 670Q347 633 373 598Z" glyph-name="Egrave.sc" horiz-adv-x="602" /><glyph d="M433 501Q447 500 459.5 500Q472 500 483 500Q495 500 507 501Q506 479 505 463Q504 447 503.5 430.5Q503 414 502.5 394.5Q502 375 502 348Q502 320 502.5 299.5Q503 279 503.5 261.5Q504 244 505 227.5Q506 211 507 192Q496 193 484 193Q473 193 460.5 193Q448 193 435 192V215Q435 242 430 261.5Q425 281 414 293.5Q403 306 383.5 312Q364 318 335 318H304Q304 263 304.5 217Q305 171 307 151Q309 116 324 103.5Q339 91 366 91H471Q509 91 535 100Q561 109 576.5 130.5Q592 152 599 186.5Q606 221 606 272Q612 272 626 271.5Q640 271 655.5 271Q671 271 685 271.5Q699 272 705 272Q702 244 700.5 209.5Q699 175 697.5 138Q696 101 695.5 64Q695 27 695 -5Q674 -4 645 -3Q616 -2 585.5 -1Q555 0 527 0Q499 0 480 0H217Q194 0 163 -0.5Q132 -1 102.5 -1Q73 -1 52 -1.5Q31 -2 28 -2V91H63Q98 91 110 108Q122 125 124 155Q125 168 125.5 197.5Q126 227 126.5 264.5Q127 302 127 343.5Q127 385 127 423Q127 461 126.5 491.5Q126 522 125 536Q123 571 109.5 585Q96 599 68 599H28V690Q34 690 58.5 689.5Q83 689 113 689Q143 689 173 688.5Q203 688 220 688H473Q489 688 520 688Q551 688 585.5 689Q620 690 651.5 691.5Q683 693 701 695Q699 668 697.5 634Q696 600 695.5 564.5Q695 529 695 495.5Q695 462 695 435H603Q603 486 595 517.5Q587 549 570.5 567Q554 585 529.5 591Q505 597 471 597H364Q335 597 322 583Q309 569 307 541Q305 519 304.5 474.5Q304 430 304 378H337Q391 378 412 400Q433 422 433 475ZM257 759Q258 774 258 799Q258 824 257 840Q280 839 317 838.5Q354 838 394 838Q434 838 471 838.5Q508 839 531 840Q530 824 530 799.5Q530 775 531 759Q508 760 471 760Q434 760 394 760Q354 760 317 760Q280 760 257 759Z" glyph-name="Emacron" horiz-adv-x="733" unicode="&#274;" /><glyph d="M353 381Q364 380 375 380Q386 380 394 380Q404 380 412 381Q412 364 411.5 352Q411 340 410.5 328Q410 316 409.5 301.5Q409 287 409 266Q409 245 409 229Q409 213 409.5 199.5Q410 186 410.5 174Q411 162 412 147Q404 148 394 148Q386 148 375.5 148Q365 148 354 147V168Q354 208 338.5 225.5Q323 243 280 243H257Q257 203 257.5 169.5Q258 136 259 123Q261 97 274 87.5Q287 78 308 78H382Q437 78 460.5 105Q484 132 484 203V210Q489 210 501.5 209.5Q514 209 527.5 209Q541 209 553.5 209.5Q566 210 571 210Q569 189 567.5 162.5Q566 136 565 107.5Q564 79 563.5 50.5Q563 22 563 -3Q549 -2 526 -1.5Q503 -1 478.5 -0.5Q454 0 432 0Q410 0 397 0H153Q143 0 125 0Q107 0 87.5 -0.5Q68 -1 51.5 -1.5Q35 -2 28 -2Q28 2 28.5 13.5Q29 25 29 38Q29 51 28.5 62Q28 73 28 78H54Q81 78 89.5 90.5Q98 103 100 129Q101 138 101.5 159.5Q102 181 102 208.5Q102 236 102 266.5Q102 297 102 324.5Q102 352 101.5 373Q101 394 101 403Q99 427 89.5 438Q80 449 58 449H28Q28 453 28.5 464.5Q29 476 29 488.5Q29 501 28.5 512Q28 523 28 528Q40 528 63 527.5Q86 527 110 526.5Q134 526 155 526Q176 526 185 526H382Q395 526 420.5 526Q446 526 474 526.5Q502 527 528 528Q554 529 568 531Q566 510 565 484Q564 458 563.5 431Q563 404 563 378.5Q563 353 563 332Q558 332 546.5 332Q535 332 522.5 332Q510 332 498.5 331.5Q487 331 482 331V337Q482 373 475 395Q468 417 455.5 429Q443 441 424.5 445Q406 449 382 449H306Q262 449 259 405Q258 392 257.5 359Q257 326 257 287H285Q321 287 337 303.5Q353 320 353 359ZM170 598Q171 613 171 638Q171 663 170 679Q193 678 230 677.5Q267 677 307 677Q347 677 384 677.5Q421 678 444 679Q443 663 443 638.5Q443 614 444 598Q421 599 384 599Q347 599 307 599Q267 599 230 599Q193 599 170 598Z" glyph-name="Emacron.sc" horiz-adv-x="602" /><glyph d="M314 690Q338 652 374 597Q410 542 450 482.5Q490 423 530 365Q570 307 601 262Q601 292 601.5 331Q602 370 602 409Q602 448 601.5 482Q601 516 600 535Q598 572 583 585.5Q568 599 541 599H489Q489 604 489.5 617Q490 630 490 644.5Q490 659 489.5 672Q489 685 489 690Q492 690 509.5 689.5Q527 689 550 688.5Q573 688 599 687.5Q625 687 646 687Q667 687 694.5 687Q722 687 746 688Q774 689 803 690Q803 685 802.5 672Q802 659 802 644.5Q802 630 802.5 617Q803 604 803 599H759Q732 599 717 585Q702 571 700 535Q699 521 699 486Q699 451 699 404Q699 357 699 302Q699 247 699.5 193Q700 139 700 89.5Q700 40 700 5Q700 -98 649.5 -149.5Q599 -201 502 -201Q436 -201 397.5 -174.5Q359 -148 359 -100Q359 -65 378 -46Q397 -27 431 -27Q461 -27 478.5 -43.5Q496 -60 496 -89Q496 -100 492 -112Q488 -124 478.5 -133Q469 -142 454 -147Q439 -152 418 -149Q438 -163 472 -163Q490 -163 510 -159Q530 -155 547 -142.5Q564 -130 575.5 -105.5Q587 -81 587 -40V1Q576 1 568 0.5Q560 0 553 0Q526 42 486.5 102Q447 162 403 228.5Q359 295 314 362Q269 429 230 486Q230 443 230 391.5Q230 340 230 292Q230 244 230.5 205Q231 166 232 149Q234 120 247 105.5Q260 91 295 91H345Q344 77 344 61Q344 47 344 31Q344 15 345 -2Q315 -2 287 -1Q263 -1 235.5 -0.5Q208 0 187 0Q165 0 137.5 -0.5Q110 -1 86 -1Q57 -2 28 -2Q29 15 29 31.5Q29 48 29 62Q29 77 28 91H68Q103 91 116.5 105.5Q130 120 132 149Q133 164 133.5 195.5Q134 227 134.5 266.5Q135 306 135 349Q135 392 134.5 430Q134 468 133.5 497.5Q133 527 132 540Q127 599 72 599H29Q30 616 30 632Q30 648 30 661Q30 676 29 690Q54 689 92.5 688.5Q131 688 171.5 688Q212 688 250 688.5Q288 689 314 690Z" glyph-name="Eng" horiz-adv-x="830" unicode="&#330;" /><glyph d="M270 528Q288 500 315.5 459.5Q343 419 373 375.5Q403 332 433 289.5Q463 247 487 215Q487 236 487.5 261Q488 286 488 311.5Q488 337 488 359.5Q488 382 487 397Q485 426 472.5 437.5Q460 449 439 449H403Q404 463 404 477.5Q404 492 404 503Q404 516 403 528Q406 528 419.5 527.5Q433 527 451.5 527Q470 527 490 526.5Q510 526 527 526Q544 526 564.5 526Q585 526 605 527Q627 527 651 528Q650 516 650 503Q650 492 650 477.5Q650 463 651 449H621Q599 449 586.5 437.5Q574 426 572 397Q571 373 571 323Q571 273 571 215Q571 157 571.5 98.5Q572 40 572 0Q572 -100 524 -150.5Q476 -201 386 -201Q323 -201 284.5 -174.5Q246 -148 246 -102Q246 -70 264.5 -51Q283 -32 315 -32Q344 -32 361 -48Q378 -64 378 -92Q378 -103 374 -114Q370 -125 362 -133.5Q354 -142 340 -147Q326 -152 307 -150Q317 -156 329.5 -159.5Q342 -163 362 -163Q383 -163 402.5 -157Q422 -151 437 -136.5Q452 -122 461 -97Q470 -72 470 -34V1Q468 1 462.5 0.5Q457 0 452 0H439Q419 30 389 74Q359 118 326 166Q293 214 259 263Q225 312 196 353Q196 326 195.5 293Q195 260 195 228.5Q195 197 195.5 170Q196 143 197 127Q199 104 210 91Q221 78 249 78H286Q285 66 285 53Q285 42 285 27.5Q285 13 286 -2Q262 -2 239 -1Q219 -1 197.5 -0.5Q176 0 159 0Q142 0 120 -0.5Q98 -1 78 -1Q55 -2 31 -2Q32 12 32 27Q32 42 32 53Q32 66 31 78H60Q88 78 98.5 91Q109 104 111 127Q112 136 112.5 157.5Q113 179 113 206.5Q113 234 113 264.5Q113 295 113 322.5Q113 350 112.5 371.5Q112 393 111 402Q109 424 97.5 436.5Q86 449 62 449H32Q33 463 33 477.5Q33 492 33 503Q33 516 32 528Q53 527 85 526.5Q117 526 151 526Q185 526 217 526.5Q249 527 270 528Z" glyph-name="Eng.sc" horiz-adv-x="683" /><glyph d="M433 501Q447 500 459.5 500Q472 500 483 500Q495 500 507 501Q506 479 505 463Q504 447 503.5 430.5Q503 414 502.5 394.5Q502 375 502 348Q502 320 502.5 299.5Q503 279 503.5 261.5Q504 244 505 227.5Q506 211 507 192Q496 193 484 193Q473 193 460.5 193Q448 193 435 192V215Q435 242 430 261.5Q425 281 414 293.5Q403 306 383.5 312Q364 318 335 318H304Q304 263 304.5 217Q305 171 307 151Q309 116 324 103.5Q339 91 366 91H471Q509 91 535 100Q561 109 576.5 130.5Q592 152 599 186.5Q606 221 606 272Q612 272 626 271.5Q640 271 655.5 271Q671 271 685 271.5Q699 272 705 272Q702 244 700.5 209.5Q699 175 697.5 138Q696 101 695.5 64Q695 27 695 -5Q679 -3 659 -2.5Q639 -2 616 -1Q591 -14 577.5 -32.5Q564 -51 564 -77Q564 -105 580 -117Q596 -129 618 -129Q644 -129 661 -114Q678 -99 683 -66L714 -71Q714 -101 708 -125.5Q702 -150 688 -168Q674 -186 651 -196Q628 -206 594 -206Q543 -206 513 -182Q483 -158 483 -114Q484 -74 507.5 -45.5Q531 -17 567 0H217Q194 0 163 -0.5Q132 -1 102.5 -1Q73 -1 52 -1.5Q31 -2 28 -2V91H63Q98 91 110 108Q122 125 124 155Q125 168 125.5 197.5Q126 227 126.5 264.5Q127 302 127 343.5Q127 385 127 423Q127 461 126.5 491.5Q126 522 125 536Q123 571 109.5 585Q96 599 68 599H28V690Q34 690 58.5 689.5Q83 689 113 689Q143 689 173 688.5Q203 688 220 688H473Q489 688 520 688Q551 688 585.5 689Q620 690 651.5 691.5Q683 693 701 695Q699 668 697.5 634Q696 600 695.5 564.5Q695 529 695 495.5Q695 462 695 435H603Q603 486 595 517.5Q587 549 570.5 567Q554 585 529.5 591Q505 597 471 597H364Q335 597 322 583Q309 569 307 541Q305 519 304.5 474.5Q304 430 304 378H337Q391 378 412 400Q433 422 433 475Z" glyph-name="Eogonek" horiz-adv-x="733" unicode="&#280;" /><glyph d="M353 381Q364 380 375 380Q386 380 394 380Q404 380 412 381Q412 364 411.5 352Q411 340 410.5 328Q410 316 409.5 301.5Q409 287 409 266Q409 245 409 229Q409 213 409.5 199.5Q410 186 410.5 174Q411 162 412 147Q404 148 394 148Q386 148 375.5 148Q365 148 354 147V168Q354 208 338.5 225.5Q323 243 280 243H257Q257 203 257.5 169.5Q258 136 259 123Q261 97 274 87.5Q287 78 308 78H382Q437 78 460.5 105Q484 132 484 203V210Q489 210 501.5 209.5Q514 209 527.5 209Q541 209 553.5 209.5Q566 210 571 210Q569 189 567.5 162.5Q566 136 565 107.5Q564 79 563.5 50.5Q563 22 563 -3Q549 -1 527 -0.5Q505 0 482 0Q427 -25 427 -77Q427 -105 443 -117Q459 -129 481 -129Q507 -129 524 -114Q541 -99 546 -66L577 -71Q577 -101 571 -125.5Q565 -150 551 -168Q537 -186 514 -196Q491 -206 457 -206Q406 -206 376 -182Q346 -158 346 -114Q347 -73 370.5 -45Q394 -17 431 0H153Q143 0 125 0Q107 0 87.5 -0.5Q68 -1 51.5 -1.5Q35 -2 28 -2Q28 2 28.5 13.5Q29 25 29 38Q29 51 28.5 62Q28 73 28 78H54Q81 78 89.5 90.5Q98 103 100 129Q101 138 101.5 159.5Q102 181 102 208.5Q102 236 102 266.5Q102 297 102 324.5Q102 352 101.5 373Q101 394 101 403Q99 427 89.5 438Q80 449 58 449H28Q28 453 28.5 464.5Q29 476 29 488.5Q29 501 28.5 512Q28 523 28 528Q40 528 63 527.5Q86 527 110 526.5Q134 526 155 526Q176 526 185 526H382Q395 526 420.5 526Q446 526 474 526.5Q502 527 528 528Q554 529 568 531Q566 510 565 484Q564 458 563.5 431Q563 404 563 378.5Q563 353 563 332Q558 332 546.5 332Q535 332 522.5 332Q510 332 498.5 331.5Q487 331 482 331V337Q482 373 475 395Q468 417 455.5 429Q443 441 424.5 445Q406 449 382 449H306Q262 449 259 405Q258 392 257.5 359Q257 326 257 287H285Q321 287 337 303.5Q353 320 353 359Z" glyph-name="Eogonek.sc" horiz-adv-x="602" /><glyph d="M411 689Q501 689 565.5 669Q630 649 671 607Q712 565 732 501Q752 437 753 350Q754 252 729 185Q704 118 658.5 77Q613 36 550.5 17.5Q488 -1 415 -1H341Q310 -1 277 -0.5Q244 0 220 0Q197 0 164 -0.5Q131 -1 101 -1Q66 -2 28 -2V91H63Q98 91 110 102Q122 113 124 145Q125 165 125.5 210Q126 255 126 309Q104 309 86 308.5Q68 308 57 308Q58 311 58.5 323.5Q59 336 59 350.5Q59 365 58.5 377.5Q58 390 58 394Q69 393 87 392.5Q105 392 126 392Q126 443 125.5 484Q125 525 124 542Q122 573 109 586Q96 599 69 599H28V690Q34 690 56 689.5Q78 689 107 689Q136 689 167 688.5Q198 688 222 688Q245 688 275 688Q305 688 333 688.5Q361 689 382.5 689Q404 689 411 689ZM305 135Q306 113 317.5 102Q329 91 348 91H381Q428 91 462 102Q496 113 518.5 142.5Q541 172 552 222.5Q563 273 563 351Q563 423 553 471Q543 519 521 547.5Q499 576 464.5 588Q430 600 382 600H348Q324 600 315 588.5Q306 577 305 561Q303 538 302.5 492Q302 446 302 392Q335 392 362.5 392.5Q390 393 405 394Q405 389 404.5 377Q404 365 404 351Q404 337 404.5 324.5Q405 312 405 308Q389 308 362 308.5Q335 309 302 309Q303 253 303 205.5Q303 158 305 135Z" glyph-name="Eth" horiz-adv-x="791" unicode="&#208;" /><glyph d="M342 527Q484 527 547 464Q610 401 612 268Q613 193 593.5 142Q574 91 538.5 59Q503 27 453.5 13Q404 -1 346 -1Q340 -1 320.5 -1Q301 -1 276.5 -0.5Q252 0 226 0Q200 0 182 0Q164 0 140 0Q116 0 93 -0.5Q70 -1 52 -1.5Q34 -2 29 -2Q30 12 30 27Q30 42 30 53Q30 66 29 78H54Q81 78 90 89Q99 100 101 125Q102 136 102 166Q102 196 102 232Q94 232 81.5 232Q69 232 53 231Q53 234 53.5 244.5Q54 255 54 267Q54 279 53.5 289.5Q53 300 53 303Q69 302 81.5 302Q94 302 102 302Q102 339 102 368.5Q102 398 101 409Q99 432 89.5 440.5Q80 449 59 449H29Q30 463 30 477Q30 491 30 502Q30 515 29 528Q64 527 107 526.5Q150 526 183 526Q201 526 224 526Q247 526 270 526.5Q293 527 312.5 527Q332 527 342 527ZM258 113Q261 81 292 81H314Q348 81 373.5 89Q399 97 415.5 118Q432 139 440.5 175.5Q449 212 449 269Q449 322 441 356.5Q433 391 416.5 411.5Q400 432 374.5 440Q349 448 315 448H292Q273 448 266 439.5Q259 431 258 419Q257 407 256.5 374.5Q256 342 256 301Q284 301 307 301.5Q330 302 344 303Q344 299 343.5 288.5Q343 278 343 266.5Q343 255 343.5 244.5Q344 234 344 231Q322 232 298.5 232Q275 232 255 232Q255 191 255.5 158.5Q256 126 258 113Z" glyph-name="Eth.sc" horiz-adv-x="652" /><glyph d="M67 441Q88 561 161.5 623Q235 685 356 685Q414 685 457.5 673Q501 661 530 640.5Q559 620 573 592Q587 564 587 532Q587 489 564 468.5Q541 448 503 448Q465 448 444.5 466.5Q424 485 424 517Q424 555 453 572.5Q482 590 521 585Q504 598 478.5 606.5Q453 615 416 615Q344 615 304.5 575Q265 535 253 438L388 442Q387 437 386.5 426.5Q386 416 386 404.5Q386 393 386.5 382.5Q387 372 388 368L249 371Q248 362 248 351Q248 342 248 329.5Q248 317 249 304L387 308Q386 303 386 292.5Q386 282 386 270.5Q386 259 386.5 248.5Q387 238 387 234L253 237Q265 141 304.5 98Q344 55 416 55Q454 55 479.5 61.5Q505 68 522 85Q504 83 486.5 86Q469 89 455.5 97.5Q442 106 433.5 121Q425 136 425 157Q425 190 445.5 210Q466 230 506 230Q545 230 567.5 206.5Q590 183 590 135Q590 104 577.5 76Q565 48 537 26.5Q509 5 464.5 -7.5Q420 -20 356 -20Q297 -20 248 -6Q199 8 162 38.5Q125 69 100.5 117.5Q76 166 66 235L26 234V308L60 307Q59 318 59.5 329.5Q60 341 60 350V369L26 368Q26 372 26.5 382.5Q27 393 27 404.5Q27 416 26.5 426.5Q26 437 26 442Z" glyph-name="Euro" horiz-adv-x="615" unicode="&#8364;" /><glyph d="M57 441Q78 561 151.5 623Q225 685 346 685Q404 685 447.5 673Q491 661 520 640.5Q549 620 563 592Q577 564 577 532Q577 489 554 468.5Q531 448 493 448Q455 448 434.5 466.5Q414 485 414 517Q414 555 443 572.5Q472 590 511 585Q494 598 468.5 606.5Q443 615 406 615Q334 615 294.5 575Q255 535 243 438L378 442Q377 437 376.5 426.5Q376 416 376 404.5Q376 393 376.5 382.5Q377 372 378 368L239 371Q238 362 238 351Q238 342 238 329.5Q238 317 239 304L377 308Q376 303 376 292.5Q376 282 376 270.5Q376 259 376.5 248.5Q377 238 377 234L243 237Q255 141 294.5 98Q334 55 406 55Q444 55 469.5 61.5Q495 68 512 85Q494 83 476.5 86Q459 89 445.5 97.5Q432 106 423.5 121Q415 136 415 157Q415 190 435.5 210Q456 230 496 230Q535 230 557.5 206.5Q580 183 580 135Q580 104 567.5 76Q555 48 527 26.5Q499 5 454.5 -7.5Q410 -20 346 -20Q287 -20 238 -6Q189 8 152 38.5Q115 69 90.5 117.5Q66 166 56 235L16 234V308L50 307Q49 318 49.5 329.5Q50 341 50 350V369L16 368Q16 372 16.5 382.5Q17 393 17 404.5Q17 416 16.5 426.5Q16 437 16 442Z" glyph-name="Euro.lf" horiz-adv-x="600" /><glyph d="M68 347Q88 450 156 500Q224 550 336 550Q392 550 430.5 539Q469 528 492.5 510.5Q516 493 526.5 470.5Q537 448 537 425Q537 390 517 371Q497 352 464 352Q431 352 412.5 368Q394 384 394 409Q394 438 412 453Q430 468 459 470Q445 478 427.5 484Q410 490 384 490Q319 490 285.5 457.5Q252 425 242 345L356 348Q355 345 354.5 336.5Q354 328 354 319Q354 310 354.5 301.5Q355 293 356 289L238 292V276Q238 268 237.5 259Q237 250 238 240L356 242Q355 239 355 230.5Q355 222 355 213Q355 204 355.5 195.5Q356 187 356 184L242 186Q251 105 284.5 72Q318 39 384 39Q412 39 434 45.5Q456 52 473 61Q431 59 412.5 75Q394 91 394 120Q394 145 412 162.5Q430 180 468 180Q506 180 524.5 160.5Q543 141 543 106Q543 85 533.5 62.5Q524 40 500 21.5Q476 3 434.5 -8.5Q393 -20 329 -20Q215 -20 149 26.5Q83 73 66 185L26 184V242L61 241Q60 250 60.5 258.5Q61 267 61 274V290L26 289Q26 293 26.5 301.5Q27 310 27 319Q27 328 26.5 336.5Q26 345 26 348Z" glyph-name="Euro.sc" horiz-adv-x="568" /><glyph d="M62 441Q83 561 156.5 623Q230 685 351 685Q409 685 452.5 673Q496 661 525 640.5Q554 620 568 592Q582 564 582 532Q582 489 559 468.5Q536 448 498 448Q460 448 439.5 466.5Q419 485 419 517Q419 555 448 572.5Q477 590 516 585Q499 598 473.5 606.5Q448 615 411 615Q339 615 299.5 575Q260 535 248 438L383 442Q382 437 381.5 426.5Q381 416 381 404.5Q381 393 381.5 382.5Q382 372 383 368L244 371Q243 362 243 351Q243 342 243 329.5Q243 317 244 304L382 308Q381 303 381 292.5Q381 282 381 270.5Q381 259 381.5 248.5Q382 238 382 234L248 237Q260 141 299.5 98Q339 55 411 55Q449 55 474.5 61.5Q500 68 517 85Q499 83 481.5 86Q464 89 450.5 97.5Q437 106 428.5 121Q420 136 420 157Q420 190 440.5 210Q461 230 501 230Q540 230 562.5 206.5Q585 183 585 135Q585 104 572.5 76Q560 48 532 26.5Q504 5 459.5 -7.5Q415 -20 351 -20Q292 -20 243 -6Q194 8 157 38.5Q120 69 95.5 117.5Q71 166 61 235L21 234V308L55 307Q54 318 54.5 329.5Q55 341 55 350V369L21 368Q21 372 21.5 382.5Q22 393 22 404.5Q22 416 21.5 426.5Q21 437 21 442Z" glyph-name="Euro.tab" horiz-adv-x="604" /><glyph d="M304 315Q304 264 304 220Q304 176 306 156Q308 123 321 107Q334 91 370 91H424V-2Q388 -2 352 -1Q321 -1 286.5 -0.5Q252 0 226 0Q199 0 165 -0.5Q131 -1 100 -1Q64 -2 28 -2V91H66Q98 91 110.5 108Q123 125 125 156Q126 171 126.5 201.5Q127 232 127 269.5Q127 307 127 348.5Q127 390 127 427.5Q127 465 126.5 495Q126 525 125 541Q123 570 110.5 584.5Q98 599 71 599H28V690Q34 690 57.5 689.5Q81 689 110.5 689Q140 689 170.5 688.5Q201 688 221 688Q240 688 259.5 688Q279 688 305.5 688.5Q332 689 368 689Q404 689 457 689Q473 689 504 689Q535 689 569 689.5Q603 690 634.5 691.5Q666 693 684 695Q682 668 681 631Q680 594 679 555Q678 516 678 479.5Q678 443 678 416Q670 416 657.5 416.5Q645 417 631.5 417Q618 417 606 416.5Q594 416 587 416Q587 471 579.5 506Q572 541 556 561Q540 581 514 589Q488 597 451 597H364Q309 597 306 541Q305 532 304.5 515.5Q304 499 304 477.5Q304 456 304 430.5Q304 405 304 379H332Q386 379 407 401Q428 423 428 476V500Q442 499 454.5 499Q467 499 478 499Q490 499 502 500Q501 478 500 462Q499 446 498.5 429.5Q498 413 497.5 393.5Q497 374 497 347Q497 319 497.5 298.5Q498 278 498.5 260.5Q499 243 500 226.5Q501 210 502 191Q491 192 479 192Q468 192 455.5 192Q443 192 430 191V214Q430 241 425 260Q420 279 409 291.5Q398 304 378.5 309.5Q359 315 330 315Z" glyph-name="F" horiz-adv-x="712" unicode="F" /><glyph d="M350 381Q361 380 371 380Q381 380 389 380Q399 380 408 381Q406 348 405 319Q404 290 404 265Q404 239 405 207.5Q406 176 408 147Q400 148 390 148Q382 148 371.5 148Q361 148 350 147V171Q350 209 333 225.5Q316 242 277 242H257Q257 203 257.5 170.5Q258 138 259 124Q261 97 271 87.5Q281 78 310 78H350Q350 73 349.5 62Q349 51 349 38Q349 25 349.5 13.5Q350 2 350 -2Q320 -2 291 -1Q266 -1 238.5 -0.5Q211 0 189 0Q166 0 138.5 -0.5Q111 -1 86 -1Q57 -2 28 -2Q29 13 29 27.5Q29 42 29 53Q29 66 28 78H55Q81 78 90 87.5Q99 97 101 122Q102 132 102 154Q102 176 102.5 204.5Q103 233 102.5 264.5Q102 296 102 324Q102 352 101.5 374Q101 396 101 405Q99 428 90 438.5Q81 449 59 449H28Q29 464 29 478Q29 492 29 503Q29 516 28 528Q39 528 61.5 527.5Q84 527 108.5 526.5Q133 526 154.5 526Q176 526 185 526H372Q385 526 410 526Q435 526 463 527Q491 528 517 529Q543 530 557 532Q555 512 554 482Q553 452 552 420.5Q551 389 551 359.5Q551 330 552 310Q546 310 535 310.5Q524 311 511.5 311Q499 311 487.5 310.5Q476 310 471 310V343Q471 377 463.5 397.5Q456 418 443 429.5Q430 441 411 445Q392 449 370 449H306Q262 449 259 405Q258 393 257.5 360Q257 327 257 287H282Q314 287 332 302.5Q350 318 350 361Z" glyph-name="F.sc" horiz-adv-x="588" /><glyph d="M374 710Q422 710 465 700.5Q508 691 551 665Q584 645 596.5 651.5Q609 658 613 696Q617 696 629 695.5Q641 695 654 695Q667 695 678.5 695.5Q690 696 695 696Q692 678 688.5 645.5Q685 613 682.5 575.5Q680 538 678.5 500.5Q677 463 678 436Q667 437 651 437Q635 437 618 437Q601 437 585 437Q569 437 558 436Q554 474 545.5 506.5Q537 539 519.5 562.5Q502 586 474.5 599Q447 612 405 612Q364 612 334 598.5Q304 585 284.5 554Q265 523 255.5 472Q246 421 246 346Q246 262 258.5 210Q271 158 292 128.5Q313 99 340.5 88.5Q368 78 399 78Q460 78 498.5 110.5Q537 143 537 217Q537 256 527 274.5Q517 293 483 293H446V367Q477 366 507 365Q533 364 560.5 364Q588 364 610 364Q632 364 659.5 364Q687 364 712 365Q741 366 770 367V293H743Q721 293 713.5 281Q706 269 706 240Q706 220 706.5 190.5Q707 161 708 127Q709 93 711 59Q713 25 717 -4Q697 -2 666.5 -2Q636 -2 616 -4Q612 12 605 37Q598 62 589 88Q563 39 505.5 9.5Q448 -20 373 -20Q299 -20 237.5 -1Q176 18 132 61Q88 104 63.5 174Q39 244 39 346Q39 440 64 508.5Q89 577 133.5 622Q178 667 239.5 688.5Q301 710 374 710Z" glyph-name="G" horiz-adv-x="789" unicode="G" /><glyph d="M398 78Q460 77 498.5 111Q537 145 537 217Q537 256 527 274.5Q517 293 483 293H446V367Q477 366 507 365Q533 364 560.5 364Q588 364 610 364Q632 364 659.5 364Q687 364 712 365Q741 366 770 367V293H743Q721 293 713.5 281Q706 269 706 240Q706 220 706.5 190.5Q707 161 708 127Q709 93 711 59Q713 25 717 -4Q697 -2 666.5 -2Q636 -2 616 -4Q612 13 604 40.5Q596 68 587 94Q563 43 507 12.5Q451 -18 373 -18Q299 -18 237.5 0.5Q176 19 132 61.5Q88 104 63.5 174Q39 244 39 346Q39 440 64 508.5Q89 577 133 622Q177 667 238.5 688.5Q300 710 372 710Q456 710 510.5 684Q565 658 591 610Q599 631 603.5 653Q608 675 613 696Q619 696 631 695.5Q643 695 655.5 695Q668 695 679 695.5Q690 696 695 696Q692 678 688.5 645.5Q685 613 682.5 575.5Q680 538 678.5 500.5Q677 463 678 436Q667 437 651 437.5Q635 438 618 438Q601 438 585 437.5Q569 437 558 436Q554 474 545.5 506Q537 538 520 561.5Q503 585 475 598.5Q447 612 404 612Q363 612 333.5 598.5Q304 585 284.5 553.5Q265 522 255.5 471Q246 420 246 344Q246 264 257 213Q268 162 288.5 132Q309 102 337 90.5Q365 79 398 78Z" glyph-name="G.round" horiz-adv-x="789" /><glyph d="M324 69Q368 69 395.5 89.5Q423 110 423 168Q423 196 414 209Q405 222 379 222H354V283Q378 282 402 281Q422 280 445 280Q468 280 485 280Q502 280 525.5 280Q549 280 569 281Q593 282 618 283V222H599Q582 222 576 212.5Q570 203 570 181Q570 166 570.5 143.5Q571 121 572 96Q573 71 575 44.5Q577 18 580 -4Q573 -3 560 -3Q547 -3 532.5 -3Q518 -3 505 -3Q492 -3 485 -4Q483 6 476.5 25.5Q470 45 462 67Q444 29 405 4.5Q366 -20 305 -20Q242 -20 193 -5Q144 10 109.5 43.5Q75 77 57 131.5Q39 186 39 265Q39 336 57.5 389.5Q76 443 109.5 478.5Q143 514 189.5 532Q236 550 292 550Q337 550 372.5 538.5Q408 527 439 506Q447 501 454.5 498.5Q462 496 468 498.5Q474 501 478.5 509Q483 517 485 533Q490 533 502 532.5Q514 532 527.5 532Q541 532 553.5 532.5Q566 533 573 533Q570 517 567.5 492.5Q565 468 563 440.5Q561 413 560 386.5Q559 360 559 339Q535 341 507 341Q479 341 455 339Q450 399 418 430Q386 461 340 461Q308 461 284.5 451.5Q261 442 245.5 419.5Q230 397 222.5 359Q215 321 215 263Q215 208 222 170.5Q229 133 242.5 110.5Q256 88 276.5 78.5Q297 69 324 69Z" glyph-name="G.sc" horiz-adv-x="649" /><glyph d="M324 67Q368 67 395.5 88.5Q423 110 423 168Q423 196 414 209Q405 222 379 222H354V283Q378 282 402 281Q422 280 445 280Q468 280 485 280Q502 280 525.5 280Q549 280 569 281Q593 282 618 283V222H599Q582 222 576 212.5Q570 203 570 181Q570 166 570.5 143.5Q571 121 572 96Q573 71 575 44.5Q577 18 580 -4Q573 -3 560 -3Q547 -3 532.5 -3Q518 -3 505 -3Q492 -3 485 -4Q483 6 476.5 26Q470 46 462 68Q443 30 402.5 5Q362 -20 305 -20Q242 -20 193 -5.5Q144 9 109.5 42.5Q75 76 57 130.5Q39 185 39 264Q39 335 57.5 388.5Q76 442 109.5 478Q143 514 189.5 532Q236 550 292 550Q360 550 404 525.5Q448 501 467 459Q475 479 481 498.5Q487 518 490 533Q497 533 508 532.5Q519 532 531.5 532Q544 532 555 532.5Q566 533 573 533Q570 517 567.5 492.5Q565 468 563 441Q561 414 559.5 387Q558 360 558 339Q546 340 530 340Q514 340 497.5 340Q481 340 465 340Q449 340 437 339Q435 398 405 428.5Q375 459 324 459Q295 459 274 450Q253 441 240 418.5Q227 396 221 358.5Q215 321 215 263Q215 201 223.5 162.5Q232 124 246.5 103Q261 82 281 74.5Q301 67 324 67Z" glyph-name="G.scRound" horiz-adv-x="649" /><glyph d="M374 710Q422 710 465 700.5Q508 691 551 665Q584 645 596.5 651.5Q609 658 613 696Q617 696 629 695.5Q641 695 654 695Q667 695 678.5 695.5Q690 696 695 696Q692 678 688.5 645.5Q685 613 682.5 575.5Q680 538 678.5 500.5Q677 463 678 436Q667 437 651 437Q635 437 618 437Q601 437 585 437Q569 437 558 436Q554 474 545.5 506.5Q537 539 519.5 562.5Q502 586 474.5 599Q447 612 405 612Q364 612 334 598.5Q304 585 284.5 554Q265 523 255.5 472Q246 421 246 346Q246 262 258.5 210Q271 158 292 128.5Q313 99 340.5 88.5Q368 78 399 78Q460 78 498.5 110.5Q537 143 537 217Q537 256 527 274.5Q517 293 483 293H446V367Q477 366 507 365Q533 364 560.5 364Q588 364 610 364Q632 364 659.5 364Q687 364 712 365Q741 366 770 367V293H743Q721 293 713.5 281Q706 269 706 240Q706 220 706.5 190.5Q707 161 708 127Q709 93 711 59Q713 25 717 -4Q697 -2 666.5 -2Q636 -2 616 -4Q612 12 605 37Q598 62 589 88Q563 39 505.5 9.5Q448 -20 373 -20Q299 -20 237.5 -1Q176 18 132 61Q88 104 63.5 174Q39 244 39 346Q39 440 64 508.5Q89 577 133.5 622Q178 667 239.5 688.5Q301 710 374 710ZM374 746Q336 746 308.5 757.5Q281 769 263.5 788.5Q246 808 239.5 834.5Q233 861 237 891L260 892Q263 855 293.5 842Q324 829 374 829Q424 829 454.5 842Q485 855 488 892L511 891Q515 861 508.5 834.5Q502 808 485 788.5Q468 769 440 757.5Q412 746 374 746Z" glyph-name="Gbreve" horiz-adv-x="789" unicode="&#286;" /><glyph d="M398 78Q460 77 498.5 111Q537 145 537 217Q537 256 527 274.5Q517 293 483 293H446V367Q477 366 507 365Q533 364 560.5 364Q588 364 610 364Q632 364 659.5 364Q687 364 712 365Q741 366 770 367V293H743Q721 293 713.5 281Q706 269 706 240Q706 220 706.5 190.5Q707 161 708 127Q709 93 711 59Q713 25 717 -4Q697 -2 666.5 -2Q636 -2 616 -4Q612 13 604 40.5Q596 68 587 94Q563 43 507 12.5Q451 -18 373 -18Q299 -18 237.5 0.5Q176 19 132 61.5Q88 104 63.5 174Q39 244 39 346Q39 440 64 508.5Q89 577 133 622Q177 667 238.5 688.5Q300 710 372 710Q456 710 510.5 684Q565 658 591 610Q599 631 603.5 653Q608 675 613 696Q619 696 631 695.5Q643 695 655.5 695Q668 695 679 695.5Q690 696 695 696Q692 678 688.5 645.5Q685 613 682.5 575.5Q680 538 678.5 500.5Q677 463 678 436Q667 437 651 437.5Q635 438 618 438Q601 438 585 437.5Q569 437 558 436Q554 474 545.5 506Q537 538 520 561.5Q503 585 475 598.5Q447 612 404 612Q363 612 333.5 598.5Q304 585 284.5 553.5Q265 522 255.5 471Q246 420 246 344Q246 264 257 213Q268 162 288.5 132Q309 102 337 90.5Q365 79 398 78ZM380 746Q342 746 314.5 757.5Q287 769 269.5 788.5Q252 808 245.5 834.5Q239 861 243 891L266 892Q269 855 299.5 842Q330 829 380 829Q430 829 460.5 842Q491 855 494 892L517 891Q521 861 514.5 834.5Q508 808 491 788.5Q474 769 446 757.5Q418 746 380 746Z" glyph-name="Gbreve.round" horiz-adv-x="789" /><glyph d="M324 69Q368 69 395.5 89.5Q423 110 423 168Q423 196 414 209Q405 222 379 222H354V283Q378 282 402 281Q422 280 445 280Q468 280 485 280Q502 280 525.5 280Q549 280 569 281Q593 282 618 283V222H599Q582 222 576 212.5Q570 203 570 181Q570 166 570.5 143.5Q571 121 572 96Q573 71 575 44.5Q577 18 580 -4Q573 -3 560 -3Q547 -3 532.5 -3Q518 -3 505 -3Q492 -3 485 -4Q483 6 476.5 25.5Q470 45 462 67Q444 29 405 4.5Q366 -20 305 -20Q242 -20 193 -5Q144 10 109.5 43.5Q75 77 57 131.5Q39 186 39 265Q39 336 57.5 389.5Q76 443 109.5 478.5Q143 514 189.5 532Q236 550 292 550Q337 550 372.5 538.5Q408 527 439 506Q447 501 454.5 498.5Q462 496 468 498.5Q474 501 478.5 509Q483 517 485 533Q490 533 502 532.5Q514 532 527.5 532Q541 532 553.5 532.5Q566 533 573 533Q570 517 567.5 492.5Q565 468 563 440.5Q561 413 560 386.5Q559 360 559 339Q535 341 507 341Q479 341 455 339Q450 399 418 430Q386 461 340 461Q308 461 284.5 451.5Q261 442 245.5 419.5Q230 397 222.5 359Q215 321 215 263Q215 208 222 170.5Q229 133 242.5 110.5Q256 88 276.5 78.5Q297 69 324 69ZM299 594Q261 594 233.5 605.5Q206 617 188.5 636.5Q171 656 164.5 682.5Q158 709 162 739L185 740Q188 703 218.5 690Q249 677 299 677Q349 677 379.5 690Q410 703 413 740L436 739Q440 709 433.5 682.5Q427 656 410 636.5Q393 617 365 605.5Q337 594 299 594Z" glyph-name="Gbreve.sc" horiz-adv-x="649" /><glyph d="M324 67Q368 67 395.5 88.5Q423 110 423 168Q423 196 414 209Q405 222 379 222H354V283Q378 282 402 281Q422 280 445 280Q468 280 485 280Q502 280 525.5 280Q549 280 569 281Q593 282 618 283V222H599Q582 222 576 212.5Q570 203 570 181Q570 166 570.5 143.5Q571 121 572 96Q573 71 575 44.5Q577 18 580 -4Q573 -3 560 -3Q547 -3 532.5 -3Q518 -3 505 -3Q492 -3 485 -4Q483 6 476.5 26Q470 46 462 68Q443 30 402.5 5Q362 -20 305 -20Q242 -20 193 -5.5Q144 9 109.5 42.5Q75 76 57 130.5Q39 185 39 264Q39 335 57.5 388.5Q76 442 109.5 478Q143 514 189.5 532Q236 550 292 550Q360 550 404 525.5Q448 501 467 459Q475 479 481 498.5Q487 518 490 533Q497 533 508 532.5Q519 532 531.5 532Q544 532 555 532.5Q566 533 573 533Q570 517 567.5 492.5Q565 468 563 441Q561 414 559.5 387Q558 360 558 339Q546 340 530 340Q514 340 497.5 340Q481 340 465 340Q449 340 437 339Q435 398 405 428.5Q375 459 324 459Q295 459 274 450Q253 441 240 418.5Q227 396 221 358.5Q215 321 215 263Q215 201 223.5 162.5Q232 124 246.5 103Q261 82 281 74.5Q301 67 324 67ZM299 595Q261 595 233.5 606.5Q206 618 188.5 637.5Q171 657 164.5 683.5Q158 710 162 740L185 741Q188 704 218.5 691Q249 678 299 678Q349 678 379.5 691Q410 704 413 741L436 740Q440 710 433.5 683.5Q427 657 410 637.5Q393 618 365 606.5Q337 595 299 595Z" glyph-name="Gbreve.scRound" horiz-adv-x="649" /><glyph d="M374 710Q422 710 465 700.5Q508 691 551 665Q584 645 596.5 651.5Q609 658 613 696Q617 696 629 695.5Q641 695 654 695Q667 695 678.5 695.5Q690 696 695 696Q692 678 688.5 645.5Q685 613 682.5 575.5Q680 538 678.5 500.5Q677 463 678 436Q667 437 651 437Q635 437 618 437Q601 437 585 437Q569 437 558 436Q554 474 545.5 506.5Q537 539 519.5 562.5Q502 586 474.5 599Q447 612 405 612Q364 612 334 598.5Q304 585 284.5 554Q265 523 255.5 472Q246 421 246 346Q246 262 258.5 210Q271 158 292 128.5Q313 99 340.5 88.5Q368 78 399 78Q460 78 498.5 110.5Q537 143 537 217Q537 256 527 274.5Q517 293 483 293H446V367Q477 366 507 365Q533 364 560.5 364Q588 364 610 364Q632 364 659.5 364Q687 364 712 365Q741 366 770 367V293H743Q721 293 713.5 281Q706 269 706 240Q706 220 706.5 190.5Q707 161 708 127Q709 93 711 59Q713 25 717 -4Q697 -2 666.5 -2Q636 -2 616 -4Q612 12 605 37Q598 62 589 88Q563 39 505.5 9.5Q448 -20 373 -20Q299 -20 237.5 -1Q176 18 132 61Q88 104 63.5 174Q39 244 39 346Q39 440 64 508.5Q89 577 133.5 622Q178 667 239.5 688.5Q301 710 374 710ZM518 733Q503 738 484.5 746.5Q466 755 446.5 766Q427 777 409 789Q391 801 377 813Q364 802 346 790Q328 778 309 767Q290 756 271.5 747Q253 738 240 734L231 744Q240 765 253.5 786Q267 807 283 826Q299 845 315.5 861.5Q332 878 346 890H413Q426 879 442 863Q458 847 473.5 828Q489 809 503 787.5Q517 766 527 744Z" glyph-name="Gcircumflex" horiz-adv-x="789" unicode="&#284;" /><glyph d="M398 78Q460 77 498.5 111Q537 145 537 217Q537 256 527 274.5Q517 293 483 293H446V367Q477 366 507 365Q533 364 560.5 364Q588 364 610 364Q632 364 659.5 364Q687 364 712 365Q741 366 770 367V293H743Q721 293 713.5 281Q706 269 706 240Q706 220 706.5 190.5Q707 161 708 127Q709 93 711 59Q713 25 717 -4Q697 -2 666.5 -2Q636 -2 616 -4Q612 13 604 40.5Q596 68 587 94Q563 43 507 12.5Q451 -18 373 -18Q299 -18 237.5 0.5Q176 19 132 61.5Q88 104 63.5 174Q39 244 39 346Q39 440 64 508.5Q89 577 133 622Q177 667 238.5 688.5Q300 710 372 710Q456 710 510.5 684Q565 658 591 610Q599 631 603.5 653Q608 675 613 696Q619 696 631 695.5Q643 695 655.5 695Q668 695 679 695.5Q690 696 695 696Q692 678 688.5 645.5Q685 613 682.5 575.5Q680 538 678.5 500.5Q677 463 678 436Q667 437 651 437.5Q635 438 618 438Q601 438 585 437.5Q569 437 558 436Q554 474 545.5 506Q537 538 520 561.5Q503 585 475 598.5Q447 612 404 612Q363 612 333.5 598.5Q304 585 284.5 553.5Q265 522 255.5 471Q246 420 246 344Q246 264 257 213Q268 162 288.5 132Q309 102 337 90.5Q365 79 398 78ZM518 734Q503 739 484.5 747.5Q466 756 446.5 767Q427 778 409 790Q391 802 377 814Q364 803 346 791Q328 779 309 768Q290 757 271.5 748Q253 739 240 735L231 745Q240 766 253.5 787Q267 808 283 827Q299 846 315.5 862.5Q332 879 346 891H413Q426 880 442 864Q458 848 473.5 829Q489 810 503 788.5Q517 767 527 745Z" glyph-name="Gcircumflex.round" horiz-adv-x="789" /><glyph d="M324 69Q368 69 395.5 89.5Q423 110 423 168Q423 196 414 209Q405 222 379 222H354V283Q378 282 402 281Q422 280 445 280Q468 280 485 280Q502 280 525.5 280Q549 280 569 281Q593 282 618 283V222H599Q582 222 576 212.5Q570 203 570 181Q570 166 570.5 143.5Q571 121 572 96Q573 71 575 44.5Q577 18 580 -4Q573 -3 560 -3Q547 -3 532.5 -3Q518 -3 505 -3Q492 -3 485 -4Q483 6 476.5 25.5Q470 45 462 67Q444 29 405 4.5Q366 -20 305 -20Q242 -20 193 -5Q144 10 109.5 43.5Q75 77 57 131.5Q39 186 39 265Q39 336 57.5 389.5Q76 443 109.5 478.5Q143 514 189.5 532Q236 550 292 550Q337 550 372.5 538.5Q408 527 439 506Q447 501 454.5 498.5Q462 496 468 498.5Q474 501 478.5 509Q483 517 485 533Q490 533 502 532.5Q514 532 527.5 532Q541 532 553.5 532.5Q566 533 573 533Q570 517 567.5 492.5Q565 468 563 440.5Q561 413 560 386.5Q559 360 559 339Q535 341 507 341Q479 341 455 339Q450 399 418 430Q386 461 340 461Q308 461 284.5 451.5Q261 442 245.5 419.5Q230 397 222.5 359Q215 321 215 263Q215 208 222 170.5Q229 133 242.5 110.5Q256 88 276.5 78.5Q297 69 324 69ZM443 583Q428 588 409.5 596.5Q391 605 371.5 616Q352 627 334 639Q316 651 302 663Q289 652 271 640Q253 628 234 617Q215 606 196.5 597Q178 588 165 584L156 594Q165 615 178.5 636Q192 657 208 676Q224 695 240.5 711.5Q257 728 271 740H338Q351 729 367 713Q383 697 398.5 678Q414 659 428 637.5Q442 616 452 594Z" glyph-name="Gcircumflex.sc" horiz-adv-x="649" /><glyph d="M324 67Q368 67 395.5 88.5Q423 110 423 168Q423 196 414 209Q405 222 379 222H354V283Q378 282 402 281Q422 280 445 280Q468 280 485 280Q502 280 525.5 280Q549 280 569 281Q593 282 618 283V222H599Q582 222 576 212.5Q570 203 570 181Q570 166 570.5 143.5Q571 121 572 96Q573 71 575 44.5Q577 18 580 -4Q573 -3 560 -3Q547 -3 532.5 -3Q518 -3 505 -3Q492 -3 485 -4Q483 6 476.5 26Q470 46 462 68Q443 30 402.5 5Q362 -20 305 -20Q242 -20 193 -5.5Q144 9 109.5 42.5Q75 76 57 130.5Q39 185 39 264Q39 335 57.5 388.5Q76 442 109.5 478Q143 514 189.5 532Q236 550 292 550Q360 550 404 525.5Q448 501 467 459Q475 479 481 498.5Q487 518 490 533Q497 533 508 532.5Q519 532 531.5 532Q544 532 555 532.5Q566 533 573 533Q570 517 567.5 492.5Q565 468 563 441Q561 414 559.5 387Q558 360 558 339Q546 340 530 340Q514 340 497.5 340Q481 340 465 340Q449 340 437 339Q435 398 405 428.5Q375 459 324 459Q295 459 274 450Q253 441 240 418.5Q227 396 221 358.5Q215 321 215 263Q215 201 223.5 162.5Q232 124 246.5 103Q261 82 281 74.5Q301 67 324 67ZM438 583Q423 588 404.5 596.5Q386 605 366.5 616Q347 627 329 639Q311 651 297 663Q284 652 266 640Q248 628 229 617Q210 606 191.5 597Q173 588 160 584L151 594Q160 615 173.5 636Q187 657 203 676Q219 695 235.5 711.5Q252 728 266 740H333Q346 729 362 713Q378 697 393.5 678Q409 659 423 637.5Q437 616 447 594Z" glyph-name="Gcircumflex.scRound" horiz-adv-x="649" /><glyph d="M374 710Q422 710 465 700.5Q508 691 551 665Q584 645 596.5 651.5Q609 658 613 696Q617 696 629 695.5Q641 695 654 695Q667 695 678.5 695.5Q690 696 695 696Q692 678 688.5 645.5Q685 613 682.5 575.5Q680 538 678.5 500.5Q677 463 678 436Q667 437 651 437Q635 437 618 437Q601 437 585 437Q569 437 558 436Q554 474 545.5 506.5Q537 539 519.5 562.5Q502 586 474.5 599Q447 612 405 612Q364 612 334 598.5Q304 585 284.5 554Q265 523 255.5 472Q246 421 246 346Q246 262 258.5 210Q271 158 292 128.5Q313 99 340.5 88.5Q368 78 399 78Q460 78 498.5 110.5Q537 143 537 217Q537 256 527 274.5Q517 293 483 293H446V367Q477 366 507 365Q533 364 560.5 364Q588 364 610 364Q632 364 659.5 364Q687 364 712 365Q741 366 770 367V293H743Q721 293 713.5 281Q706 269 706 240Q706 220 706.5 190.5Q707 161 708 127Q709 93 711 59Q713 25 717 -4Q697 -2 666.5 -2Q636 -2 616 -4Q612 12 605 37Q598 62 589 88Q563 39 505.5 9.5Q448 -20 373 -20Q299 -20 237.5 -1Q176 18 132 61Q88 104 63.5 174Q39 244 39 346Q39 440 64 508.5Q89 577 133.5 622Q178 667 239.5 688.5Q301 710 374 710ZM289 -265Q344 -252 372 -223.5Q400 -195 403 -153Q388 -179 355 -179Q308 -179 308 -124Q308 -97 325 -80Q342 -63 371 -63Q403 -63 418.5 -84.5Q434 -106 434 -139Q434 -196 396 -233.5Q358 -271 294 -285Z" glyph-name="Gcommaaccent" horiz-adv-x="789" unicode="&#290;" /><glyph d="M398 78Q460 77 498.5 111Q537 145 537 217Q537 256 527 274.5Q517 293 483 293H446V367Q477 366 507 365Q533 364 560.5 364Q588 364 610 364Q632 364 659.5 364Q687 364 712 365Q741 366 770 367V293H743Q721 293 713.5 281Q706 269 706 240Q706 220 706.5 190.5Q707 161 708 127Q709 93 711 59Q713 25 717 -4Q697 -2 666.5 -2Q636 -2 616 -4Q612 13 604 40.5Q596 68 587 94Q563 43 507 12.5Q451 -18 373 -18Q299 -18 237.5 0.5Q176 19 132 61.5Q88 104 63.5 174Q39 244 39 346Q39 440 64 508.5Q89 577 133 622Q177 667 238.5 688.5Q300 710 372 710Q456 710 510.5 684Q565 658 591 610Q599 631 603.5 653Q608 675 613 696Q619 696 631 695.5Q643 695 655.5 695Q668 695 679 695.5Q690 696 695 696Q692 678 688.5 645.5Q685 613 682.5 575.5Q680 538 678.5 500.5Q677 463 678 436Q667 437 651 437.5Q635 438 618 438Q601 438 585 437.5Q569 437 558 436Q554 474 545.5 506Q537 538 520 561.5Q503 585 475 598.5Q447 612 404 612Q363 612 333.5 598.5Q304 585 284.5 553.5Q265 522 255.5 471Q246 420 246 344Q246 264 257 213Q268 162 288.5 132Q309 102 337 90.5Q365 79 398 78ZM281 -263Q336 -250 364 -221.5Q392 -193 395 -151Q380 -177 347 -177Q300 -177 300 -122Q300 -95 317 -78Q334 -61 363 -61Q395 -61 410.5 -82.5Q426 -104 426 -137Q426 -194 388 -231.5Q350 -269 286 -283Z" glyph-name="Gcommaaccent.round" horiz-adv-x="789" /><glyph d="M324 69Q368 69 395.5 89.5Q423 110 423 168Q423 196 414 209Q405 222 379 222H354V283Q378 282 402 281Q422 280 445 280Q468 280 485 280Q502 280 525.5 280Q549 280 569 281Q593 282 618 283V222H599Q582 222 576 212.5Q570 203 570 181Q570 166 570.5 143.5Q571 121 572 96Q573 71 575 44.5Q577 18 580 -4Q573 -3 560 -3Q547 -3 532.5 -3Q518 -3 505 -3Q492 -3 485 -4Q483 6 476.5 25.5Q470 45 462 67Q444 29 405 4.5Q366 -20 305 -20Q242 -20 193 -5Q144 10 109.5 43.5Q75 77 57 131.5Q39 186 39 265Q39 336 57.5 389.5Q76 443 109.5 478.5Q143 514 189.5 532Q236 550 292 550Q337 550 372.5 538.5Q408 527 439 506Q447 501 454.5 498.5Q462 496 468 498.5Q474 501 478.5 509Q483 517 485 533Q490 533 502 532.5Q514 532 527.5 532Q541 532 553.5 532.5Q566 533 573 533Q570 517 567.5 492.5Q565 468 563 440.5Q561 413 560 386.5Q559 360 559 339Q535 341 507 341Q479 341 455 339Q450 399 418 430Q386 461 340 461Q308 461 284.5 451.5Q261 442 245.5 419.5Q230 397 222.5 359Q215 321 215 263Q215 208 222 170.5Q229 133 242.5 110.5Q256 88 276.5 78.5Q297 69 324 69ZM208 -261Q263 -248 291 -219.5Q319 -191 322 -149Q307 -175 274 -175Q227 -175 227 -120Q227 -93 244 -76Q261 -59 290 -59Q322 -59 337.5 -80.5Q353 -102 353 -135Q353 -192 315 -229.5Q277 -267 213 -281Z" glyph-name="Gcommaaccent.sc" horiz-adv-x="649" /><glyph d="M324 67Q368 67 395.5 88.5Q423 110 423 168Q423 196 414 209Q405 222 379 222H354V283Q378 282 402 281Q422 280 445 280Q468 280 485 280Q502 280 525.5 280Q549 280 569 281Q593 282 618 283V222H599Q582 222 576 212.5Q570 203 570 181Q570 166 570.5 143.5Q571 121 572 96Q573 71 575 44.5Q577 18 580 -4Q573 -3 560 -3Q547 -3 532.5 -3Q518 -3 505 -3Q492 -3 485 -4Q483 6 476.5 26Q470 46 462 68Q443 30 402.5 5Q362 -20 305 -20Q242 -20 193 -5.5Q144 9 109.5 42.5Q75 76 57 130.5Q39 185 39 264Q39 335 57.5 388.5Q76 442 109.5 478Q143 514 189.5 532Q236 550 292 550Q360 550 404 525.5Q448 501 467 459Q475 479 481 498.5Q487 518 490 533Q497 533 508 532.5Q519 532 531.5 532Q544 532 555 532.5Q566 533 573 533Q570 517 567.5 492.5Q565 468 563 441Q561 414 559.5 387Q558 360 558 339Q546 340 530 340Q514 340 497.5 340Q481 340 465 340Q449 340 437 339Q435 398 405 428.5Q375 459 324 459Q295 459 274 450Q253 441 240 418.5Q227 396 221 358.5Q215 321 215 263Q215 201 223.5 162.5Q232 124 246.5 103Q261 82 281 74.5Q301 67 324 67ZM217 -259Q272 -246 300 -217.5Q328 -189 331 -147Q316 -173 283 -173Q236 -173 236 -118Q236 -91 253 -74Q270 -57 299 -57Q331 -57 346.5 -78.5Q362 -100 362 -133Q362 -190 324 -227.5Q286 -265 222 -279Z" glyph-name="Gcommaaccent.scRound" horiz-adv-x="649" /><glyph d="M374 710Q422 710 465 700.5Q508 691 551 665Q584 645 596.5 651.5Q609 658 613 696Q617 696 629 695.5Q641 695 654 695Q667 695 678.5 695.5Q690 696 695 696Q692 678 688.5 645.5Q685 613 682.5 575.5Q680 538 678.5 500.5Q677 463 678 436Q667 437 651 437Q635 437 618 437Q601 437 585 437Q569 437 558 436Q554 474 545.5 506.5Q537 539 519.5 562.5Q502 586 474.5 599Q447 612 405 612Q364 612 334 598.5Q304 585 284.5 554Q265 523 255.5 472Q246 421 246 346Q246 262 258.5 210Q271 158 292 128.5Q313 99 340.5 88.5Q368 78 399 78Q460 78 498.5 110.5Q537 143 537 217Q537 256 527 274.5Q517 293 483 293H446V367Q477 366 507 365Q533 364 560.5 364Q588 364 610 364Q632 364 659.5 364Q687 364 712 365Q741 366 770 367V293H743Q721 293 713.5 281Q706 269 706 240Q706 220 706.5 190.5Q707 161 708 127Q709 93 711 59Q713 25 717 -4Q697 -2 666.5 -2Q636 -2 616 -4Q612 12 605 37Q598 62 589 88Q563 39 505.5 9.5Q448 -20 373 -20Q299 -20 237.5 -1Q176 18 132 61Q88 104 63.5 174Q39 244 39 346Q39 440 64 508.5Q89 577 133.5 622Q178 667 239.5 688.5Q301 710 374 710ZM434 827Q434 798 416.5 780Q399 762 370 762Q342 762 324.5 780Q307 798 307 827Q307 856 324.5 873Q342 890 370 890Q399 890 416.5 873Q434 856 434 827Z" glyph-name="Gdotaccent" horiz-adv-x="789" unicode="&#288;" /><glyph d="M398 78Q460 77 498.5 111Q537 145 537 217Q537 256 527 274.5Q517 293 483 293H446V367Q477 366 507 365Q533 364 560.5 364Q588 364 610 364Q632 364 659.5 364Q687 364 712 365Q741 366 770 367V293H743Q721 293 713.5 281Q706 269 706 240Q706 220 706.5 190.5Q707 161 708 127Q709 93 711 59Q713 25 717 -4Q697 -2 666.5 -2Q636 -2 616 -4Q612 13 604 40.5Q596 68 587 94Q563 43 507 12.5Q451 -18 373 -18Q299 -18 237.5 0.5Q176 19 132 61.5Q88 104 63.5 174Q39 244 39 346Q39 440 64 508.5Q89 577 133 622Q177 667 238.5 688.5Q300 710 372 710Q456 710 510.5 684Q565 658 591 610Q599 631 603.5 653Q608 675 613 696Q619 696 631 695.5Q643 695 655.5 695Q668 695 679 695.5Q690 696 695 696Q692 678 688.5 645.5Q685 613 682.5 575.5Q680 538 678.5 500.5Q677 463 678 436Q667 437 651 437.5Q635 438 618 438Q601 438 585 437.5Q569 437 558 436Q554 474 545.5 506Q537 538 520 561.5Q503 585 475 598.5Q447 612 404 612Q363 612 333.5 598.5Q304 585 284.5 553.5Q265 522 255.5 471Q246 420 246 344Q246 264 257 213Q268 162 288.5 132Q309 102 337 90.5Q365 79 398 78ZM444 827Q444 798 426.5 780Q409 762 380 762Q352 762 334.5 780Q317 798 317 827Q317 856 334.5 873Q352 890 380 890Q409 890 426.5 873Q444 856 444 827Z" glyph-name="Gdotaccent.round" horiz-adv-x="789" /><glyph d="M324 69Q368 69 395.5 89.5Q423 110 423 168Q423 196 414 209Q405 222 379 222H354V283Q378 282 402 281Q422 280 445 280Q468 280 485 280Q502 280 525.5 280Q549 280 569 281Q593 282 618 283V222H599Q582 222 576 212.5Q570 203 570 181Q570 166 570.5 143.5Q571 121 572 96Q573 71 575 44.5Q577 18 580 -4Q573 -3 560 -3Q547 -3 532.5 -3Q518 -3 505 -3Q492 -3 485 -4Q483 6 476.5 25.5Q470 45 462 67Q444 29 405 4.5Q366 -20 305 -20Q242 -20 193 -5Q144 10 109.5 43.5Q75 77 57 131.5Q39 186 39 265Q39 336 57.5 389.5Q76 443 109.5 478.5Q143 514 189.5 532Q236 550 292 550Q337 550 372.5 538.5Q408 527 439 506Q447 501 454.5 498.5Q462 496 468 498.5Q474 501 478.5 509Q483 517 485 533Q490 533 502 532.5Q514 532 527.5 532Q541 532 553.5 532.5Q566 533 573 533Q570 517 567.5 492.5Q565 468 563 440.5Q561 413 560 386.5Q559 360 559 339Q535 341 507 341Q479 341 455 339Q450 399 418 430Q386 461 340 461Q308 461 284.5 451.5Q261 442 245.5 419.5Q230 397 222.5 359Q215 321 215 263Q215 208 222 170.5Q229 133 242.5 110.5Q256 88 276.5 78.5Q297 69 324 69ZM364 671Q364 642 346.5 624Q329 606 300 606Q272 606 254.5 624Q237 642 237 671Q237 700 254.5 717Q272 734 300 734Q329 734 346.5 717Q364 700 364 671Z" glyph-name="Gdotaccent.sc" horiz-adv-x="649" /><glyph d="M324 67Q368 67 395.5 88.5Q423 110 423 168Q423 196 414 209Q405 222 379 222H354V283Q378 282 402 281Q422 280 445 280Q468 280 485 280Q502 280 525.5 280Q549 280 569 281Q593 282 618 283V222H599Q582 222 576 212.5Q570 203 570 181Q570 166 570.5 143.5Q571 121 572 96Q573 71 575 44.5Q577 18 580 -4Q573 -3 560 -3Q547 -3 532.5 -3Q518 -3 505 -3Q492 -3 485 -4Q483 6 476.5 26Q470 46 462 68Q443 30 402.5 5Q362 -20 305 -20Q242 -20 193 -5.5Q144 9 109.5 42.5Q75 76 57 130.5Q39 185 39 264Q39 335 57.5 388.5Q76 442 109.5 478Q143 514 189.5 532Q236 550 292 550Q360 550 404 525.5Q448 501 467 459Q475 479 481 498.5Q487 518 490 533Q497 533 508 532.5Q519 532 531.5 532Q544 532 555 532.5Q566 533 573 533Q570 517 567.5 492.5Q565 468 563 441Q561 414 559.5 387Q558 360 558 339Q546 340 530 340Q514 340 497.5 340Q481 340 465 340Q449 340 437 339Q435 398 405 428.5Q375 459 324 459Q295 459 274 450Q253 441 240 418.5Q227 396 221 358.5Q215 321 215 263Q215 201 223.5 162.5Q232 124 246.5 103Q261 82 281 74.5Q301 67 324 67ZM373 671Q373 642 355.5 624Q338 606 309 606Q281 606 263.5 624Q246 642 246 671Q246 700 263.5 717Q281 734 309 734Q338 734 355.5 717Q373 700 373 671Z" glyph-name="Gdotaccent.scRound" horiz-adv-x="649" /><glyph d="M28 91H67Q100 91 111 100.5Q122 110 124 140Q125 155 125.5 187.5Q126 220 126 261Q126 302 126 346.5Q126 391 126 431Q126 471 125.5 501.5Q125 532 124 545Q122 574 110.5 586.5Q99 599 72 599H28Q28 604 28.5 617Q29 630 29 644.5Q29 659 28.5 672Q28 685 28 690Q62 689 95 688Q124 687 155.5 687Q187 687 212 687Q237 687 267.5 687.5Q298 688 325.5 688.5Q353 689 372.5 689.5Q392 690 395 690V599H357Q330 599 317 586.5Q304 574 302 545Q301 537 300.5 520Q300 503 300 480.5Q300 458 300 430.5Q300 403 300 375Q326 375 358 374.5Q390 374 424 374Q458 374 491.5 374.5Q525 375 553 375Q553 403 553 430.5Q553 458 553 480.5Q553 503 552.5 520Q552 537 551 545Q549 574 535.5 586.5Q522 599 495 599H456Q456 604 456.5 617Q457 630 457 644.5Q457 659 456.5 672Q456 685 456 690Q490 689 523 688Q552 687 583.5 687Q615 687 640 687Q665 687 695.5 687.5Q726 688 753.5 688.5Q781 689 801 689.5Q821 690 824 690Q824 685 823.5 672Q823 659 823 644.5Q823 630 823.5 617Q824 604 824 599H780Q753 599 741.5 586.5Q730 574 728 545Q727 533 726.5 502Q726 471 726 431Q726 391 726 346Q726 301 726 260.5Q726 220 726.5 187.5Q727 155 728 140Q730 112 740.5 101.5Q751 91 785 91H824Q824 86 823.5 72.5Q823 59 823 44.5Q823 30 823.5 16.5Q824 3 824 -2Q790 -2 757 -1Q728 -1 696.5 -0.5Q665 0 640 0Q615 0 583.5 -0.5Q552 -1 523 -1Q490 -2 456 -2Q456 3 456.5 16.5Q457 30 457 44.5Q457 59 456.5 72.5Q456 86 456 91H494Q528 91 539 102.5Q550 114 551 140Q552 160 552.5 207.5Q553 255 553 312Q525 312 491.5 312Q458 312 424 312Q390 312 358 311.5Q326 311 300 311Q300 255 300.5 207.5Q301 160 302 140Q304 114 313 102.5Q322 91 357 91H395V-2Q361 -2 328 -1Q299 -1 268 -0.5Q237 0 212 0Q187 0 155.5 -0.5Q124 -1 95 -1Q62 -2 28 -2Z" glyph-name="H" horiz-adv-x="852" unicode="H" /><glyph d="M29 -2Q29 2 29.5 13.5Q30 25 30 38Q30 51 29.5 62Q29 73 29 78H55Q81 78 89.5 86Q98 94 100 117Q100 126 100.5 149Q101 172 101 201Q101 230 101.5 262.5Q102 295 101.5 324Q101 353 100.5 375Q100 397 100 406Q98 429 89 439Q80 449 59 449H29Q29 453 29.5 464.5Q30 476 30 488.5Q30 501 29.5 512Q29 523 29 528Q57 527 83 527Q106 526 131.5 526Q157 526 177 526Q197 526 221 526.5Q245 527 266.5 527Q288 527 303.5 527.5Q319 528 323 528Q323 523 322.5 512Q322 501 322 488Q322 475 322.5 464Q323 453 323 449H295Q275 449 266.5 439Q258 429 256 406Q254 392 254 357Q254 322 254 279Q273 279 296.5 278.5Q320 278 344.5 278Q369 278 393 278.5Q417 279 438 279Q438 322 438 358Q438 394 437 406Q435 429 426 439Q417 449 398 449H369Q370 463 370 477Q370 491 370 502Q370 515 369 528Q397 527 423 527Q446 526 471 526Q496 526 516 526Q536 526 560 526.5Q584 527 605.5 527Q627 527 643 527.5Q659 528 663 528Q662 515 662 502Q662 491 662 477Q662 463 663 449H634Q612 449 603 439Q594 429 592 406Q591 398 590.5 376Q590 354 590 324.5Q590 295 590 262.5Q590 230 590 201Q590 172 590.5 149.5Q591 127 592 118Q594 96 602 87Q610 78 636 78H664Q664 73 663.5 62Q663 51 663 38Q663 25 663.5 13.5Q664 2 664 -2Q636 -2 610 -1Q587 -1 561.5 -0.5Q536 0 516 0Q496 0 471 -0.5Q446 -1 423 -1Q397 -2 369 -2Q370 13 370 27.5Q370 42 370 53Q370 66 369 78H396Q421 78 428 87.5Q435 97 437 117Q438 128 438 160.5Q438 193 438 234Q417 234 393 234.5Q369 235 344.5 235Q320 235 296.5 234.5Q273 234 254 234Q254 193 254 161.5Q254 130 256 117Q258 97 264.5 87.5Q271 78 296 78H323Q323 73 322.5 62Q322 51 322 38Q322 25 322.5 13.5Q323 2 323 -2Q295 -2 269 -1Q246 -1 221 -0.5Q196 0 176 0Q156 0 131 -0.5Q106 -1 83 -1Q57 -2 29 -2Z" glyph-name="H.sc" horiz-adv-x="694" /><glyph d="M28 91H67Q100 91 111 100.5Q122 110 124 140Q125 156 125.5 191Q126 226 126 269.5Q126 313 126 360Q126 407 126 448Q118 448 102.5 448Q87 448 73 447V505Q86 504 101.5 504Q117 504 125 504Q125 512 125 524Q125 536 124 545Q122 574 110.5 586.5Q99 599 72 599H28Q28 604 28.5 617Q29 630 29 644.5Q29 659 28.5 672Q28 685 28 690Q62 689 95 688Q124 687 155.5 687Q187 687 212 687Q237 687 267.5 687.5Q298 688 325.5 688.5Q353 689 372.5 689.5Q392 690 395 690V599H357Q330 599 317.5 586.5Q305 574 302 545Q301 539 300.5 525Q300 511 300 504H552Q552 512 552 524Q552 536 551 545Q549 574 535.5 586.5Q522 599 495 599H456Q456 604 456.5 617Q457 630 457 644.5Q457 659 456.5 672Q456 685 456 690Q490 689 523 688Q552 687 583.5 687Q615 687 640 687Q665 687 695.5 687.5Q726 688 753.5 688.5Q781 689 801 689.5Q821 690 824 690Q824 685 823.5 672Q823 659 823 644.5Q823 630 823.5 617Q824 604 824 599H780Q753 599 741.5 586.5Q730 574 728 545Q727 536 726.5 523.5Q726 511 726 504Q737 504 753 504Q769 504 783 505V447Q769 448 752.5 448Q736 448 726 448Q726 407 726 360Q726 313 726 269.5Q726 226 726.5 191Q727 156 728 140Q730 112 740.5 101.5Q751 91 785 91H824Q824 86 823.5 72.5Q823 59 823 44.5Q823 30 823.5 16.5Q824 3 824 -2Q790 -2 757 -1Q728 -1 696.5 -0.5Q665 0 640 0Q615 0 583.5 -0.5Q552 -1 523 -1Q490 -2 456 -2Q456 3 456.5 16.5Q457 30 457 44.5Q457 59 456.5 72.5Q456 86 456 91H494Q528 91 539 102.5Q550 114 551 140Q552 160 552.5 207.5Q553 255 553 312Q525 312 491.5 312Q458 312 424 312Q390 312 358 311.5Q326 311 300 311Q300 255 300.5 207.5Q301 160 302 140Q304 114 313 102.5Q322 91 357 91H395V-2Q361 -2 328 -1Q299 -1 268 -0.5Q237 0 212 0Q187 0 155.5 -0.5Q124 -1 95 -1Q62 -2 28 -2ZM300 375Q326 375 358 374.5Q390 374 424 374Q458 374 491.5 374.5Q525 375 553 375V448H300Z" glyph-name="Hbar" horiz-adv-x="852" unicode="&#294;" /><glyph d="M29 -2Q29 2 29.5 13.5Q30 25 30 38Q30 51 29.5 62Q29 73 29 78H55Q81 78 89.5 86Q98 94 100 117Q100 127 100.5 151.5Q101 176 101 208Q101 240 101 274.5Q101 309 101 338Q96 338 85.5 338Q75 338 62 337V378Q75 377 85.5 377Q96 377 101 377Q101 383 101 389.5Q101 396 100 406Q98 429 89 439Q80 449 59 449H29Q29 453 29.5 464.5Q30 476 30 488.5Q30 501 29.5 512Q29 523 29 528Q57 527 83 527Q106 526 131.5 526Q157 526 177 526Q197 526 221 526.5Q245 527 266.5 527Q288 527 303.5 527.5Q319 528 323 528Q323 523 322.5 512Q322 501 322 488Q322 475 322.5 464Q323 453 323 449H295Q275 449 266.5 439Q258 429 256 406Q255 398 255 390Q255 382 255 376H438Q438 384 438 390Q438 396 437 406Q435 429 426 439Q417 449 398 449H369Q370 463 370 477Q370 491 370 502Q370 515 369 528Q397 527 423 527Q446 526 471 526Q496 526 516 526Q536 526 560 526.5Q584 527 605.5 527Q627 527 643 527.5Q659 528 663 528Q662 515 662 502Q662 491 662 477Q662 463 663 449H634Q612 449 603 439Q594 429 592 406Q591 396 591 389Q591 382 591 377Q596 377 606 377Q616 377 629 378V337Q615 338 605 338Q595 338 590 338Q590 309 590 274.5Q590 240 590 208.5Q590 177 590.5 152Q591 127 592 118Q594 96 602 87Q610 78 636 78H664Q664 73 663.5 62Q663 51 663 38Q663 25 663.5 13.5Q664 2 664 -2Q636 -2 610 -1Q587 -1 561.5 -0.5Q536 0 516 0Q496 0 471 -0.5Q446 -1 423 -1Q397 -2 369 -2Q370 13 370 27.5Q370 42 370 53Q370 66 369 78H396Q421 78 428 87.5Q435 97 437 117Q438 128 438 160.5Q438 193 438 234Q417 234 393 234.5Q369 235 344.5 235Q320 235 296.5 234.5Q273 234 254 234Q254 193 254 161.5Q254 130 256 117Q258 97 264.5 87.5Q271 78 296 78H323Q323 73 322.5 62Q322 51 322 38Q322 25 322.5 13.5Q323 2 323 -2Q295 -2 269 -1Q246 -1 221 -0.5Q196 0 176 0Q156 0 131 -0.5Q106 -1 83 -1Q57 -2 29 -2ZM254 279Q273 279 296.5 278.5Q320 278 344.5 278Q369 278 393 278.5Q417 279 438 279V339H254Z" glyph-name="Hbar.sc" horiz-adv-x="694" /><glyph d="M28 91H67Q100 91 111 100.5Q122 110 124 140Q125 155 125.5 187.5Q126 220 126 261Q126 302 126 346.5Q126 391 126 431Q126 471 125.5 501.5Q125 532 124 545Q122 574 110.5 586.5Q99 599 72 599H28Q28 604 28.5 617Q29 630 29 644.5Q29 659 28.5 672Q28 685 28 690Q62 689 95 688Q124 687 155.5 687Q187 687 212 687Q237 687 267.5 687.5Q298 688 325.5 688.5Q353 689 372.5 689.5Q392 690 395 690V599H357Q330 599 317 586.5Q304 574 302 545Q301 537 300.5 520Q300 503 300 480.5Q300 458 300 430.5Q300 403 300 375Q326 375 358 374.5Q390 374 424 374Q458 374 491.5 374.5Q525 375 553 375Q553 403 553 430.5Q553 458 553 480.5Q553 503 552.5 520Q552 537 551 545Q549 574 535.5 586.5Q522 599 495 599H456Q456 604 456.5 617Q457 630 457 644.5Q457 659 456.5 672Q456 685 456 690Q490 689 523 688Q552 687 583.5 687Q615 687 640 687Q665 687 695.5 687.5Q726 688 753.5 688.5Q781 689 801 689.5Q821 690 824 690Q824 685 823.5 672Q823 659 823 644.5Q823 630 823.5 617Q824 604 824 599H780Q753 599 741.5 586.5Q730 574 728 545Q727 533 726.5 502Q726 471 726 431Q726 391 726 346Q726 301 726 260.5Q726 220 726.5 187.5Q727 155 728 140Q730 112 740.5 101.5Q751 91 785 91H824Q824 86 823.5 72.5Q823 59 823 44.5Q823 30 823.5 16.5Q824 3 824 -2Q790 -2 757 -1Q728 -1 696.5 -0.5Q665 0 640 0Q615 0 583.5 -0.5Q552 -1 523 -1Q490 -2 456 -2Q456 3 456.5 16.5Q457 30 457 44.5Q457 59 456.5 72.5Q456 86 456 91H494Q528 91 539 102.5Q550 114 551 140Q552 160 552.5 207.5Q553 255 553 312Q525 312 491.5 312Q458 312 424 312Q390 312 358 311.5Q326 311 300 311Q300 255 300.5 207.5Q301 160 302 140Q304 114 313 102.5Q322 91 357 91H395V-2Q361 -2 328 -1Q299 -1 268 -0.5Q237 0 212 0Q187 0 155.5 -0.5Q124 -1 95 -1Q62 -2 28 -2ZM565 734Q550 739 531.5 747.5Q513 756 493.5 767Q474 778 456 790Q438 802 424 814Q411 803 393 791Q375 779 356 768Q337 757 318.5 748Q300 739 287 735L278 745Q287 766 300.5 787Q314 808 330 827Q346 846 362.5 862.5Q379 879 393 891H460Q473 880 489 864Q505 848 520.5 829Q536 810 550 788.5Q564 767 574 745Z" glyph-name="Hcircumflex" horiz-adv-x="852" unicode="&#292;" /><glyph d="M29 -2Q29 2 29.5 13.5Q30 25 30 38Q30 51 29.5 62Q29 73 29 78H55Q81 78 89.5 86Q98 94 100 117Q100 126 100.5 149Q101 172 101 201Q101 230 101.5 262.5Q102 295 101.5 324Q101 353 100.5 375Q100 397 100 406Q98 429 89 439Q80 449 59 449H29Q29 453 29.5 464.5Q30 476 30 488.5Q30 501 29.5 512Q29 523 29 528Q57 527 83 527Q106 526 131.5 526Q157 526 177 526Q197 526 221 526.5Q245 527 266.5 527Q288 527 303.5 527.5Q319 528 323 528Q323 523 322.5 512Q322 501 322 488Q322 475 322.5 464Q323 453 323 449H295Q275 449 266.5 439Q258 429 256 406Q254 392 254 357Q254 322 254 279Q273 279 296.5 278.5Q320 278 344.5 278Q369 278 393 278.5Q417 279 438 279Q438 322 438 358Q438 394 437 406Q435 429 426 439Q417 449 398 449H369Q370 463 370 477Q370 491 370 502Q370 515 369 528Q397 527 423 527Q446 526 471 526Q496 526 516 526Q536 526 560 526.5Q584 527 605.5 527Q627 527 643 527.5Q659 528 663 528Q662 515 662 502Q662 491 662 477Q662 463 663 449H634Q612 449 603 439Q594 429 592 406Q591 398 590.5 376Q590 354 590 324.5Q590 295 590 262.5Q590 230 590 201Q590 172 590.5 149.5Q591 127 592 118Q594 96 602 87Q610 78 636 78H664Q664 73 663.5 62Q663 51 663 38Q663 25 663.5 13.5Q664 2 664 -2Q636 -2 610 -1Q587 -1 561.5 -0.5Q536 0 516 0Q496 0 471 -0.5Q446 -1 423 -1Q397 -2 369 -2Q370 13 370 27.5Q370 42 370 53Q370 66 369 78H396Q421 78 428 87.5Q435 97 437 117Q438 128 438 160.5Q438 193 438 234Q417 234 393 234.5Q369 235 344.5 235Q320 235 296.5 234.5Q273 234 254 234Q254 193 254 161.5Q254 130 256 117Q258 97 264.5 87.5Q271 78 296 78H323Q323 73 322.5 62Q322 51 322 38Q322 25 322.5 13.5Q323 2 323 -2Q295 -2 269 -1Q246 -1 221 -0.5Q196 0 176 0Q156 0 131 -0.5Q106 -1 83 -1Q57 -2 29 -2ZM485 583Q470 588 451.5 596.5Q433 605 413.5 616Q394 627 376 639Q358 651 344 663Q331 652 313 640Q295 628 276 617Q257 606 238.5 597Q220 588 207 584L198 594Q207 615 220.5 636Q234 657 250 676Q266 695 282.5 711.5Q299 728 313 740H380Q393 729 409 713Q425 697 440.5 678Q456 659 470 637.5Q484 616 494 594Z" glyph-name="Hcircumflex.sc" horiz-adv-x="694" /><glyph d="M30 -2Q30 3 30.5 16.5Q31 30 31 44.5Q31 59 30.5 72.5Q30 86 30 91H70Q102 91 112 102.5Q122 114 124 140Q125 154 125.5 186Q126 218 126 259Q126 300 126 345Q126 390 126 430.5Q126 471 125.5 501.5Q125 532 124 545Q122 574 110.5 586.5Q99 599 72 599H30Q30 604 30.5 617Q31 630 31 644.5Q31 659 30.5 672Q30 685 30 690Q65 689 98 688Q127 687 158.5 687Q190 687 215 687Q240 687 270.5 687.5Q301 688 328.5 688.5Q356 689 376 689.5Q396 690 399 690Q399 685 398.5 672Q398 659 398 644.5Q398 630 398.5 617Q399 604 399 599H357Q330 599 318.5 586.5Q307 574 305 545Q304 533 303.5 502Q303 471 302.5 430.5Q302 390 302 345Q302 300 302.5 259Q303 218 303.5 186Q304 154 305 140Q307 114 317.5 102.5Q328 91 359 91H398V-2Q364 -2 331 -1Q302 -1 271 -0.5Q240 0 215 0Q190 0 158.5 -0.5Q127 -1 98 -1Q65 -2 30 -2Z" glyph-name="I" horiz-adv-x="428" unicode="I" /><glyph d="M30 -2Q32 27 31 48Q30 69 30 78H57Q83 78 90 88Q97 98 99 118Q100 126 100.5 148Q101 170 101 199.5Q101 229 101 261.5Q101 294 101 323.5Q101 353 100.5 375Q100 397 99 406Q97 429 88.5 439Q80 449 58 449H30Q32 478 31 498Q30 518 30 528Q58 527 85 527Q108 526 133.5 526Q159 526 179 526Q199 526 223.5 526.5Q248 527 269.5 527Q291 527 307.5 527.5Q324 528 328 528Q328 523 327.5 512Q327 501 327 488.5Q327 476 327.5 464.5Q328 453 328 449H298Q277 449 268 439Q259 429 257 406Q256 397 255.5 375Q255 353 255 323.5Q255 294 255 261.5Q255 229 255.5 199.5Q256 170 256 148Q256 126 257 118Q259 98 267.5 88Q276 78 300 78H327Q327 73 326.5 62Q326 51 326 38Q326 25 326.5 13.5Q327 2 327 -2Q299 -2 272 -1Q249 -1 223.5 -0.5Q198 0 178 0Q158 0 132.5 -0.5Q107 -1 84 -1Q58 -2 30 -2Z" glyph-name="I.sc" horiz-adv-x="357" /><glyph d="M30 -2Q30 3 30.5 16.5Q31 30 31 44.5Q31 59 30.5 72.5Q30 86 30 91H70Q102 91 112 102.5Q122 114 124 140Q125 154 125.5 186Q126 218 126 259Q126 300 126 345Q126 390 126 430.5Q126 471 125.5 501.5Q125 532 124 545Q122 574 110.5 586.5Q99 599 72 599H30Q30 604 30.5 617Q31 630 31 644.5Q31 659 30.5 672Q30 685 30 690Q65 689 98 688Q127 687 158.5 687Q190 687 215 687Q240 687 270.5 687.5Q301 688 328.5 688.5Q356 689 376 689.5Q396 690 399 690Q399 685 398.5 672Q398 659 398 644.5Q398 630 398.5 617Q399 604 399 599H357Q330 599 318.5 586.5Q307 574 305 545Q304 533 303.5 502Q303 471 302.5 430.5Q302 390 302 345Q302 300 302.5 259Q303 218 303.5 186Q304 154 305 140Q307 114 317.5 102.5Q328 91 359 91H398V-2Q364 -2 331 -1Q302 -1 271 -0.5Q240 0 215 0Q190 0 158.5 -0.5Q127 -1 98 -1Q65 -2 30 -2ZM599 157Q599 133 589.5 116.5Q580 100 564.5 90Q549 80 529 76.5Q509 73 488 76Q505 60 527.5 51Q550 42 582 42Q636 42 665 76Q694 110 697 197Q698 228 698.5 279Q699 330 699 383Q699 436 698.5 481Q698 526 697 545Q695 574 684 586.5Q673 599 645 599H605V690Q637 689 670 688Q698 687 728.5 687Q759 687 784 687Q808 687 837.5 687.5Q867 688 894 688.5Q921 689 940.5 689.5Q960 690 963 690Q963 685 962.5 672Q962 659 962 644.5Q962 630 962.5 617Q963 604 963 599H931Q905 599 893 588Q881 577 879 545Q879 537 878.5 511.5Q878 486 878 452Q878 418 878 379Q878 340 878 304.5Q878 269 878.5 241.5Q879 214 879 202Q880 147 862 106Q844 65 810 37.5Q776 10 727.5 -4Q679 -18 619 -18Q569 -18 531 -6Q493 6 467.5 27.5Q442 49 429 77.5Q416 106 416 139Q416 182 441 210Q466 238 513 238Q552 238 575.5 216.5Q599 195 599 157Z" glyph-name="IJ" horiz-adv-x="990" unicode="&#306;" /><glyph d="M496 44Q496 8 471 -6Q446 -20 414 -15Q427 -25 444 -31Q461 -37 481 -37Q522 -37 544.5 -13Q567 11 569 78Q570 97 570 127Q570 157 570.5 190.5Q571 224 570.5 259Q570 294 570 324Q570 354 569.5 376Q569 398 569 406Q567 428 559 438.5Q551 449 528 449H499V503V528Q526 527 552 527Q575 526 599.5 526Q624 526 644 526Q663 526 687.5 526.5Q712 527 733.5 527Q755 527 771 527.5Q787 528 789 528Q788 516 788 503Q788 492 788 478Q788 464 789 449H769Q749 449 739.5 440.5Q730 432 728 406Q727 398 727 375.5Q727 353 727 322.5Q727 292 727 257Q727 222 727.5 189.5Q728 157 728 130.5Q728 104 728 91Q728 45 712 11.5Q696 -22 668 -44Q640 -66 601.5 -76.5Q563 -87 518 -87Q436 -87 393 -54.5Q350 -22 350 32Q350 70 372.5 89Q395 108 428 108Q460 108 478 90.5Q496 73 496 44ZM30 -2Q32 27 31 48Q30 69 30 78H57Q83 78 90 88Q97 98 99 118Q100 126 100.5 148Q101 170 101 199.5Q101 229 101 261.5Q101 294 101 323.5Q101 353 100.5 375Q100 397 99 406Q97 429 88.5 439Q80 449 58 449H30Q32 478 31 498Q30 518 30 528Q58 527 85 527Q108 526 133.5 526Q159 526 179 526Q199 526 223.5 526.5Q248 527 269.5 527Q291 527 307.5 527.5Q324 528 328 528Q328 523 327.5 512Q327 501 327 488.5Q327 476 327.5 464.5Q328 453 328 449H298Q277 449 268 439Q259 429 257 406Q256 397 255.5 375Q255 353 255 323.5Q255 294 255 261.5Q255 229 255.5 199.5Q256 170 256 148Q256 126 257 118Q259 98 267.5 88Q276 78 300 78H327Q327 73 326.5 62Q326 51 326 38Q326 25 326.5 13.5Q327 2 327 -2Q299 -2 272 -1Q249 -1 223.5 -0.5Q198 0 178 0Q158 0 132.5 -0.5Q107 -1 84 -1Q58 -2 30 -2Z" glyph-name="IJ.sc" horiz-adv-x="823" /><glyph d="M30 -2Q30 3 30.5 16.5Q31 30 31 44.5Q31 59 30.5 72.5Q30 86 30 91H70Q102 91 112 102.5Q122 114 124 140Q125 154 125.5 186Q126 218 126 259Q126 300 126 345Q126 390 126 430.5Q126 471 125.5 501.5Q125 532 124 545Q122 574 110.5 586.5Q99 599 72 599H30Q30 604 30.5 617Q31 630 31 644.5Q31 659 30.5 672Q30 685 30 690Q65 689 98 688Q127 687 158.5 687Q190 687 215 687Q240 687 270.5 687.5Q301 688 328.5 688.5Q356 689 376 689.5Q396 690 399 690Q399 685 398.5 672Q398 659 398 644.5Q398 630 398.5 617Q399 604 399 599H357Q330 599 318.5 586.5Q307 574 305 545Q304 533 303.5 502Q303 471 302.5 430.5Q302 390 302 345Q302 300 302.5 259Q303 218 303.5 186Q304 154 305 140Q307 114 317.5 102.5Q328 91 359 91H398V-2Q364 -2 331 -1Q302 -1 271 -0.5Q240 0 215 0Q190 0 158.5 -0.5Q127 -1 98 -1Q65 -2 30 -2ZM168 754Q181 771 196.5 790Q212 809 229 827Q246 845 263.5 860Q281 875 296 885Q321 898 340 894Q359 890 367 876Q375 862 370 843.5Q365 825 341 810Q308 789 261.5 770.5Q215 752 176 742Z" glyph-name="Iacute" horiz-adv-x="428" unicode="&#205;" /><glyph d="M30 -2Q32 27 31 48Q30 69 30 78H57Q83 78 90 88Q97 98 99 118Q100 126 100.5 148Q101 170 101 199.5Q101 229 101 261.5Q101 294 101 323.5Q101 353 100.5 375Q100 397 99 406Q97 429 88.5 439Q80 449 58 449H30Q32 478 31 498Q30 518 30 528Q58 527 85 527Q108 526 133.5 526Q159 526 179 526Q199 526 223.5 526.5Q248 527 269.5 527Q291 527 307.5 527.5Q324 528 328 528Q328 523 327.5 512Q327 501 327 488.5Q327 476 327.5 464.5Q328 453 328 449H298Q277 449 268 439Q259 429 257 406Q256 397 255.5 375Q255 353 255 323.5Q255 294 255 261.5Q255 229 255.5 199.5Q256 170 256 148Q256 126 257 118Q259 98 267.5 88Q276 78 300 78H327Q327 73 326.5 62Q326 51 326 38Q326 25 326.5 13.5Q327 2 327 -2Q299 -2 272 -1Q249 -1 223.5 -0.5Q198 0 178 0Q158 0 132.5 -0.5Q107 -1 84 -1Q58 -2 30 -2ZM133 593Q146 610 161.5 629Q177 648 194 666Q211 684 228.5 699Q246 714 261 724Q286 737 305 733Q324 729 332 715Q340 701 335 682.5Q330 664 306 649Q273 628 226.5 609.5Q180 591 141 581Z" glyph-name="Iacute.sc" horiz-adv-x="357" /><glyph d="M30 -2Q30 3 30.5 16.5Q31 30 31 44.5Q31 59 30.5 72.5Q30 86 30 91H70Q102 91 112 102.5Q122 114 124 140Q125 154 125.5 186Q126 218 126 259Q126 300 126 345Q126 390 126 430.5Q126 471 125.5 501.5Q125 532 124 545Q122 574 110.5 586.5Q99 599 72 599H30Q30 604 30.5 617Q31 630 31 644.5Q31 659 30.5 672Q30 685 30 690Q65 689 98 688Q127 687 158.5 687Q190 687 215 687Q240 687 270.5 687.5Q301 688 328.5 688.5Q356 689 376 689.5Q396 690 399 690Q399 685 398.5 672Q398 659 398 644.5Q398 630 398.5 617Q399 604 399 599H357Q330 599 318.5 586.5Q307 574 305 545Q304 533 303.5 502Q303 471 302.5 430.5Q302 390 302 345Q302 300 302.5 259Q303 218 303.5 186Q304 154 305 140Q307 114 317.5 102.5Q328 91 359 91H398V-2Q364 -2 331 -1Q302 -1 271 -0.5Q240 0 215 0Q190 0 158.5 -0.5Q127 -1 98 -1Q65 -2 30 -2ZM215 746Q177 746 149.5 757.5Q122 769 104.5 788.5Q87 808 80.5 834.5Q74 861 78 891L101 892Q104 855 134.5 842Q165 829 215 829Q265 829 295.5 842Q326 855 329 892L352 891Q356 861 349.5 834.5Q343 808 326 788.5Q309 769 281 757.5Q253 746 215 746Z" glyph-name="Ibreve" horiz-adv-x="428" unicode="&#300;" /><glyph d="M30 -2Q32 27 31 48Q30 69 30 78H57Q83 78 90 88Q97 98 99 118Q100 126 100.5 148Q101 170 101 199.5Q101 229 101 261.5Q101 294 101 323.5Q101 353 100.5 375Q100 397 99 406Q97 429 88.5 439Q80 449 58 449H30Q32 478 31 498Q30 518 30 528Q58 527 85 527Q108 526 133.5 526Q159 526 179 526Q199 526 223.5 526.5Q248 527 269.5 527Q291 527 307.5 527.5Q324 528 328 528Q328 523 327.5 512Q327 501 327 488.5Q327 476 327.5 464.5Q328 453 328 449H298Q277 449 268 439Q259 429 257 406Q256 397 255.5 375Q255 353 255 323.5Q255 294 255 261.5Q255 229 255.5 199.5Q256 170 256 148Q256 126 257 118Q259 98 267.5 88Q276 78 300 78H327Q327 73 326.5 62Q326 51 326 38Q326 25 326.5 13.5Q327 2 327 -2Q299 -2 272 -1Q249 -1 223.5 -0.5Q198 0 178 0Q158 0 132.5 -0.5Q107 -1 84 -1Q58 -2 30 -2ZM186 579Q148 579 120.5 590.5Q93 602 75.5 621.5Q58 641 51.5 667.5Q45 694 49 724L72 725Q75 688 105.5 675Q136 662 186 662Q236 662 266.5 675Q297 688 300 725L323 724Q327 694 320.5 667.5Q314 641 297 621.5Q280 602 252 590.5Q224 579 186 579Z" glyph-name="Ibreve.sc" horiz-adv-x="357" /><glyph d="M30 -2Q30 3 30.5 16.5Q31 30 31 44.5Q31 59 30.5 72.5Q30 86 30 91H70Q102 91 112 102.5Q122 114 124 140Q125 154 125.5 186Q126 218 126 259Q126 300 126 345Q126 390 126 430.5Q126 471 125.5 501.5Q125 532 124 545Q122 574 110.5 586.5Q99 599 72 599H30Q30 604 30.5 617Q31 630 31 644.5Q31 659 30.5 672Q30 685 30 690Q65 689 98 688Q127 687 158.5 687Q190 687 215 687Q240 687 270.5 687.5Q301 688 328.5 688.5Q356 689 376 689.5Q396 690 399 690Q399 685 398.5 672Q398 659 398 644.5Q398 630 398.5 617Q399 604 399 599H357Q330 599 318.5 586.5Q307 574 305 545Q304 533 303.5 502Q303 471 302.5 430.5Q302 390 302 345Q302 300 302.5 259Q303 218 303.5 186Q304 154 305 140Q307 114 317.5 102.5Q328 91 359 91H398V-2Q364 -2 331 -1Q302 -1 271 -0.5Q240 0 215 0Q190 0 158.5 -0.5Q127 -1 98 -1Q65 -2 30 -2ZM354 734Q339 739 320.5 747.5Q302 756 282.5 767Q263 778 245 790Q227 802 213 814Q200 803 182 791Q164 779 145 768Q126 757 107.5 748Q89 739 76 735L67 745Q76 766 89.5 787Q103 808 119 827Q135 846 151.5 862.5Q168 879 182 891H249Q262 880 278 864Q294 848 309.5 829Q325 810 339 788.5Q353 767 363 745Z" glyph-name="Icircumflex" horiz-adv-x="428" unicode="&#206;" /><glyph d="M30 -2Q32 27 31 48Q30 69 30 78H57Q83 78 90 88Q97 98 99 118Q100 126 100.5 148Q101 170 101 199.5Q101 229 101 261.5Q101 294 101 323.5Q101 353 100.5 375Q100 397 99 406Q97 429 88.5 439Q80 449 58 449H30Q32 478 31 498Q30 518 30 528Q58 527 85 527Q108 526 133.5 526Q159 526 179 526Q199 526 223.5 526.5Q248 527 269.5 527Q291 527 307.5 527.5Q324 528 328 528Q328 523 327.5 512Q327 501 327 488.5Q327 476 327.5 464.5Q328 453 328 449H298Q277 449 268 439Q259 429 257 406Q256 397 255.5 375Q255 353 255 323.5Q255 294 255 261.5Q255 229 255.5 199.5Q256 170 256 148Q256 126 257 118Q259 98 267.5 88Q276 78 300 78H327Q327 73 326.5 62Q326 51 326 38Q326 25 326.5 13.5Q327 2 327 -2Q299 -2 272 -1Q249 -1 223.5 -0.5Q198 0 178 0Q158 0 132.5 -0.5Q107 -1 84 -1Q58 -2 30 -2ZM318 583Q303 588 284.5 596.5Q266 605 246.5 616Q227 627 209 639Q191 651 177 663Q164 652 146 640Q128 628 109 617Q90 606 71.5 597Q53 588 40 584L31 594Q40 615 53.5 636Q67 657 83 676Q99 695 115.5 711.5Q132 728 146 740H213Q226 729 242 713Q258 697 273.5 678Q289 659 303 637.5Q317 616 327 594Z" glyph-name="Icircumflex.sc" horiz-adv-x="357" /><glyph d="M30 -2Q30 3 30.5 16.5Q31 30 31 44.5Q31 59 30.5 72.5Q30 86 30 91H70Q102 91 112 102.5Q122 114 124 140Q125 154 125.5 186Q126 218 126 259Q126 300 126 345Q126 390 126 430.5Q126 471 125.5 501.5Q125 532 124 545Q122 574 110.5 586.5Q99 599 72 599H30Q30 604 30.5 617Q31 630 31 644.5Q31 659 30.5 672Q30 685 30 690Q65 689 98 688Q127 687 158.5 687Q190 687 215 687Q240 687 270.5 687.5Q301 688 328.5 688.5Q356 689 376 689.5Q396 690 399 690Q399 685 398.5 672Q398 659 398 644.5Q398 630 398.5 617Q399 604 399 599H357Q330 599 318.5 586.5Q307 574 305 545Q304 533 303.5 502Q303 471 302.5 430.5Q302 390 302 345Q302 300 302.5 259Q303 218 303.5 186Q304 154 305 140Q307 114 317.5 102.5Q328 91 359 91H398V-2Q364 -2 331 -1Q302 -1 271 -0.5Q240 0 215 0Q190 0 158.5 -0.5Q127 -1 98 -1Q65 -2 30 -2ZM187 812Q187 785 170.5 769.5Q154 754 128 754Q103 754 86.5 769.5Q70 785 70 812Q70 838 86.5 854Q103 870 128 870Q154 870 170.5 854Q187 838 187 812ZM359 812Q359 785 342.5 769.5Q326 754 300 754Q275 754 258.5 769.5Q242 785 242 812Q242 838 258.5 854Q275 870 300 870Q326 870 342.5 854Q359 838 359 812Z" glyph-name="Idieresis" horiz-adv-x="428" unicode="&#207;" /><glyph d="M30 -2Q32 27 31 48Q30 69 30 78H57Q83 78 90 88Q97 98 99 118Q100 126 100.5 148Q101 170 101 199.5Q101 229 101 261.5Q101 294 101 323.5Q101 353 100.5 375Q100 397 99 406Q97 429 88.5 439Q80 449 58 449H30Q32 478 31 498Q30 518 30 528Q58 527 85 527Q108 526 133.5 526Q159 526 179 526Q199 526 223.5 526.5Q248 527 269.5 527Q291 527 307.5 527.5Q324 528 328 528Q328 523 327.5 512Q327 501 327 488.5Q327 476 327.5 464.5Q328 453 328 449H298Q277 449 268 439Q259 429 257 406Q256 397 255.5 375Q255 353 255 323.5Q255 294 255 261.5Q255 229 255.5 199.5Q256 170 256 148Q256 126 257 118Q259 98 267.5 88Q276 78 300 78H327Q327 73 326.5 62Q326 51 326 38Q326 25 326.5 13.5Q327 2 327 -2Q299 -2 272 -1Q249 -1 223.5 -0.5Q198 0 178 0Q158 0 132.5 -0.5Q107 -1 84 -1Q58 -2 30 -2ZM153 656Q153 629 136.5 613.5Q120 598 94 598Q69 598 52.5 613.5Q36 629 36 656Q36 682 52.5 698Q69 714 94 714Q120 714 136.5 698Q153 682 153 656ZM325 656Q325 629 308.5 613.5Q292 598 266 598Q241 598 224.5 613.5Q208 629 208 656Q208 682 224.5 698Q241 714 266 714Q292 714 308.5 698Q325 682 325 656Z" glyph-name="Idieresis.sc" horiz-adv-x="357" /><glyph d="M30 -2Q30 3 30.5 16.5Q31 30 31 44.5Q31 59 30.5 72.5Q30 86 30 91H70Q102 91 112 102.5Q122 114 124 140Q125 154 125.5 186Q126 218 126 259Q126 300 126 345Q126 390 126 430.5Q126 471 125.5 501.5Q125 532 124 545Q122 574 110.5 586.5Q99 599 72 599H30Q30 604 30.5 617Q31 630 31 644.5Q31 659 30.5 672Q30 685 30 690Q65 689 98 688Q127 687 158.5 687Q190 687 215 687Q240 687 270.5 687.5Q301 688 328.5 688.5Q356 689 376 689.5Q396 690 399 690Q399 685 398.5 672Q398 659 398 644.5Q398 630 398.5 617Q399 604 399 599H357Q330 599 318.5 586.5Q307 574 305 545Q304 533 303.5 502Q303 471 302.5 430.5Q302 390 302 345Q302 300 302.5 259Q303 218 303.5 186Q304 154 305 140Q307 114 317.5 102.5Q328 91 359 91H398V-2Q364 -2 331 -1Q302 -1 271 -0.5Q240 0 215 0Q190 0 158.5 -0.5Q127 -1 98 -1Q65 -2 30 -2ZM279 827Q279 798 261.5 780Q244 762 215 762Q187 762 169.5 780Q152 798 152 827Q152 856 169.5 873Q187 890 215 890Q244 890 261.5 873Q279 856 279 827Z" glyph-name="Idotaccent" horiz-adv-x="428" unicode="&#304;" /><glyph d="M30 -2Q32 27 31 48Q30 69 30 78H57Q83 78 90 88Q97 98 99 118Q100 126 100.5 148Q101 170 101 199.5Q101 229 101 261.5Q101 294 101 323.5Q101 353 100.5 375Q100 397 99 406Q97 429 88.5 439Q80 449 58 449H30Q32 478 31 498Q30 518 30 528Q58 527 85 527Q108 526 133.5 526Q159 526 179 526Q199 526 223.5 526.5Q248 527 269.5 527Q291 527 307.5 527.5Q324 528 328 528Q328 523 327.5 512Q327 501 327 488.5Q327 476 327.5 464.5Q328 453 328 449H298Q277 449 268 439Q259 429 257 406Q256 397 255.5 375Q255 353 255 323.5Q255 294 255 261.5Q255 229 255.5 199.5Q256 170 256 148Q256 126 257 118Q259 98 267.5 88Q276 78 300 78H327Q327 73 326.5 62Q326 51 326 38Q326 25 326.5 13.5Q327 2 327 -2Q299 -2 272 -1Q249 -1 223.5 -0.5Q198 0 178 0Q158 0 132.5 -0.5Q107 -1 84 -1Q58 -2 30 -2ZM244 671Q244 642 226.5 624Q209 606 180 606Q152 606 134.5 624Q117 642 117 671Q117 700 134.5 717Q152 734 180 734Q209 734 226.5 717Q244 700 244 671Z" glyph-name="Idotaccent.sc" horiz-adv-x="357" /><glyph d="M30 -2Q30 3 30.5 16.5Q31 30 31 44.5Q31 59 30.5 72.5Q30 86 30 91H70Q102 91 112 102.5Q122 114 124 140Q125 154 125.5 186Q126 218 126 259Q126 300 126 345Q126 390 126 430.5Q126 471 125.5 501.5Q125 532 124 545Q122 574 110.5 586.5Q99 599 72 599H30Q30 604 30.5 617Q31 630 31 644.5Q31 659 30.5 672Q30 685 30 690Q65 689 98 688Q127 687 158.5 687Q190 687 215 687Q240 687 270.5 687.5Q301 688 328.5 688.5Q356 689 376 689.5Q396 690 399 690Q399 685 398.5 672Q398 659 398 644.5Q398 630 398.5 617Q399 604 399 599H357Q330 599 318.5 586.5Q307 574 305 545Q304 533 303.5 502Q303 471 302.5 430.5Q302 390 302 345Q302 300 302.5 259Q303 218 303.5 186Q304 154 305 140Q307 114 317.5 102.5Q328 91 359 91H398V-2Q364 -2 331 -1Q302 -1 271 -0.5Q240 0 215 0Q190 0 158.5 -0.5Q127 -1 98 -1Q65 -2 30 -2ZM271 742Q252 747 229.5 754.5Q207 762 185 771.5Q163 781 142 791Q121 801 105 812Q81 827 75.5 846Q70 865 79 878.5Q88 892 107.5 895.5Q127 899 153 883Q185 863 219 826Q253 789 279 754Z" glyph-name="Igrave" horiz-adv-x="428" unicode="&#204;" /><glyph d="M30 -2Q32 27 31 48Q30 69 30 78H57Q83 78 90 88Q97 98 99 118Q100 126 100.5 148Q101 170 101 199.5Q101 229 101 261.5Q101 294 101 323.5Q101 353 100.5 375Q100 397 99 406Q97 429 88.5 439Q80 449 58 449H30Q32 478 31 498Q30 518 30 528Q58 527 85 527Q108 526 133.5 526Q159 526 179 526Q199 526 223.5 526.5Q248 527 269.5 527Q291 527 307.5 527.5Q324 528 328 528Q328 523 327.5 512Q327 501 327 488.5Q327 476 327.5 464.5Q328 453 328 449H298Q277 449 268 439Q259 429 257 406Q256 397 255.5 375Q255 353 255 323.5Q255 294 255 261.5Q255 229 255.5 199.5Q256 170 256 148Q256 126 257 118Q259 98 267.5 88Q276 78 300 78H327Q327 73 326.5 62Q326 51 326 38Q326 25 326.5 13.5Q327 2 327 -2Q299 -2 272 -1Q249 -1 223.5 -0.5Q198 0 178 0Q158 0 132.5 -0.5Q107 -1 84 -1Q58 -2 30 -2ZM235 586Q216 591 193.5 598.5Q171 606 149 615.5Q127 625 106 635Q85 645 69 656Q45 671 39.5 690Q34 709 43 722.5Q52 736 71.5 739.5Q91 743 117 727Q149 707 183 670Q217 633 243 598Z" glyph-name="Igrave.sc" horiz-adv-x="357" /><glyph d="M30 -2Q30 3 30.5 16.5Q31 30 31 44.5Q31 59 30.5 72.5Q30 86 30 91H70Q102 91 112 102.5Q122 114 124 140Q125 154 125.5 186Q126 218 126 259Q126 300 126 345Q126 390 126 430.5Q126 471 125.5 501.5Q125 532 124 545Q122 574 110.5 586.5Q99 599 72 599H30Q30 604 30.5 617Q31 630 31 644.5Q31 659 30.5 672Q30 685 30 690Q65 689 98 688Q127 687 158.5 687Q190 687 215 687Q240 687 270.5 687.5Q301 688 328.5 688.5Q356 689 376 689.5Q396 690 399 690Q399 685 398.5 672Q398 659 398 644.5Q398 630 398.5 617Q399 604 399 599H357Q330 599 318.5 586.5Q307 574 305 545Q304 533 303.5 502Q303 471 302.5 430.5Q302 390 302 345Q302 300 302.5 259Q303 218 303.5 186Q304 154 305 140Q307 114 317.5 102.5Q328 91 359 91H398V-2Q364 -2 331 -1Q302 -1 271 -0.5Q240 0 215 0Q190 0 158.5 -0.5Q127 -1 98 -1Q65 -2 30 -2ZM80 759Q81 774 81 799Q81 824 80 840Q103 839 140 838.5Q177 838 217 838Q257 838 294 838.5Q331 839 354 840Q353 824 353 799.5Q353 775 354 759Q331 760 294 760Q257 760 217 760Q177 760 140 760Q103 760 80 759Z" glyph-name="Imacron" horiz-adv-x="428" unicode="&#298;" /><glyph d="M30 -2Q32 27 31 48Q30 69 30 78H57Q83 78 90 88Q97 98 99 118Q100 126 100.5 148Q101 170 101 199.5Q101 229 101 261.5Q101 294 101 323.5Q101 353 100.5 375Q100 397 99 406Q97 429 88.5 439Q80 449 58 449H30Q32 478 31 498Q30 518 30 528Q58 527 85 527Q108 526 133.5 526Q159 526 179 526Q199 526 223.5 526.5Q248 527 269.5 527Q291 527 307.5 527.5Q324 528 328 528Q328 523 327.5 512Q327 501 327 488.5Q327 476 327.5 464.5Q328 453 328 449H298Q277 449 268 439Q259 429 257 406Q256 397 255.5 375Q255 353 255 323.5Q255 294 255 261.5Q255 229 255.5 199.5Q256 170 256 148Q256 126 257 118Q259 98 267.5 88Q276 78 300 78H327Q327 73 326.5 62Q326 51 326 38Q326 25 326.5 13.5Q327 2 327 -2Q299 -2 272 -1Q249 -1 223.5 -0.5Q198 0 178 0Q158 0 132.5 -0.5Q107 -1 84 -1Q58 -2 30 -2ZM41 598Q42 613 42 638Q42 663 41 679Q64 678 101 677.5Q138 677 178 677Q218 677 255 677.5Q292 678 315 679Q314 663 314 638.5Q314 614 315 598Q292 599 255 599Q218 599 178 599Q138 599 101 599Q64 599 41 598Z" glyph-name="Imacron.sc" horiz-adv-x="357" /><glyph d="M348 -71Q348 -101 342 -125.5Q336 -150 322 -168Q308 -186 285 -196Q262 -206 228 -206Q177 -206 147 -182Q117 -158 117 -114Q118 -73 141.5 -45Q165 -17 202 0Q176 0 146.5 -0.5Q117 -1 91 -1Q60 -2 30 -2Q30 3 30.5 16.5Q31 30 31 44.5Q31 59 30.5 72.5Q30 86 30 91H70Q102 91 112 102.5Q122 114 124 140Q125 154 125.5 186Q126 218 126 259Q126 300 126 345Q126 390 126 430.5Q126 471 125.5 501.5Q125 532 124 545Q122 574 110.5 586.5Q99 599 72 599H30Q30 604 30.5 617Q31 630 31 644.5Q31 659 30.5 672Q30 685 30 690Q65 689 98 688Q127 687 158.5 687Q190 687 215 687Q240 687 270.5 687.5Q301 688 328.5 688.5Q356 689 376 689.5Q396 690 399 690Q399 685 398.5 672Q398 659 398 644.5Q398 630 398.5 617Q399 604 399 599H357Q330 599 318.5 586.5Q307 574 305 545Q304 533 303.5 502Q303 471 302.5 430.5Q302 390 302 345Q302 300 302.5 259Q303 218 303.5 186Q304 154 305 140Q307 114 317.5 102.5Q328 91 359 91H398V-2Q375 -2 350 -1Q329 -1 303.5 -0.5Q278 0 254 0Q198 -25 198 -77Q198 -105 214 -117Q230 -129 252 -129Q278 -129 295 -114Q312 -99 317 -66L348 -71Z" glyph-name="Iogonek" horiz-adv-x="428" unicode="&#302;" /><glyph d="M301 -71Q301 -101 295 -125.5Q289 -150 275 -168Q261 -186 238 -196Q215 -206 181 -206Q130 -206 100 -182Q70 -158 70 -114Q71 -73 94.5 -45Q118 -17 155 0Q135 0 113.5 -0.5Q92 -1 73 -1Q51 -2 30 -2Q32 27 31 48Q30 69 30 78H57Q83 78 90 88Q97 98 99 118Q100 126 100.5 148Q101 170 101 199.5Q101 229 101 261.5Q101 294 101 323.5Q101 353 100.5 375Q100 397 99 406Q97 429 88.5 439Q80 449 58 449H30Q32 478 31 498Q30 518 30 528Q58 527 85 527Q108 526 133.5 526Q159 526 179 526Q199 526 223.5 526.5Q248 527 269.5 527Q291 527 307.5 527.5Q324 528 328 528Q328 523 327.5 512Q327 501 327 488.5Q327 476 327.5 464.5Q328 453 328 449H298Q277 449 268 439Q259 429 257 406Q256 397 255.5 375Q255 353 255 323.5Q255 294 255 261.5Q255 229 255.5 199.5Q256 170 256 148Q256 126 257 118Q259 98 267.5 88Q276 78 300 78H327Q327 73 326.5 62Q326 51 326 38Q326 25 326.5 13.5Q327 2 327 -2Q307 -2 287 -1Q270 -1 248.5 -0.5Q227 0 207 0Q151 -25 151 -77Q151 -105 167 -117Q183 -129 205 -129Q231 -129 248 -114Q265 -99 270 -66Z" glyph-name="Iogonek.sc" horiz-adv-x="357" /><glyph d="M30 -2Q30 3 30.5 16.5Q31 30 31 44.5Q31 59 30.5 72.5Q30 86 30 91H70Q102 91 112 102.5Q122 114 124 140Q125 154 125.5 186Q126 218 126 259Q126 300 126 345Q126 390 126 430.5Q126 471 125.5 501.5Q125 532 124 545Q122 574 110.5 586.5Q99 599 72 599H30Q30 604 30.5 617Q31 630 31 644.5Q31 659 30.5 672Q30 685 30 690Q65 689 98 688Q127 687 158.5 687Q190 687 215 687Q240 687 270.5 687.5Q301 688 328.5 688.5Q356 689 376 689.5Q396 690 399 690Q399 685 398.5 672Q398 659 398 644.5Q398 630 398.5 617Q399 604 399 599H357Q330 599 318.5 586.5Q307 574 305 545Q304 533 303.5 502Q303 471 302.5 430.5Q302 390 302 345Q302 300 302.5 259Q303 218 303.5 186Q304 154 305 140Q307 114 317.5 102.5Q328 91 359 91H398V-2Q364 -2 331 -1Q302 -1 271 -0.5Q240 0 215 0Q190 0 158.5 -0.5Q127 -1 98 -1Q65 -2 30 -2ZM361 884Q374 848 370.5 821.5Q367 795 353 777Q339 759 317 750Q295 741 270 741Q235 741 212 756Q189 771 171 800Q157 821 147 830.5Q137 840 121 840Q103 840 93 821.5Q83 803 96 759L70 751Q58 788 61 815Q64 842 78 860Q92 878 114 886.5Q136 895 162 895Q192 895 215 881.5Q238 868 260 836Q274 816 285 806Q296 796 310 796Q330 796 339 814.5Q348 833 336 877Z" glyph-name="Itilde" horiz-adv-x="428" unicode="&#296;" /><glyph d="M30 -2Q32 27 31 48Q30 69 30 78H57Q83 78 90 88Q97 98 99 118Q100 126 100.5 148Q101 170 101 199.5Q101 229 101 261.5Q101 294 101 323.5Q101 353 100.5 375Q100 397 99 406Q97 429 88.5 439Q80 449 58 449H30Q32 478 31 498Q30 518 30 528Q58 527 85 527Q108 526 133.5 526Q159 526 179 526Q199 526 223.5 526.5Q248 527 269.5 527Q291 527 307.5 527.5Q324 528 328 528Q328 523 327.5 512Q327 501 327 488.5Q327 476 327.5 464.5Q328 453 328 449H298Q277 449 268 439Q259 429 257 406Q256 397 255.5 375Q255 353 255 323.5Q255 294 255 261.5Q255 229 255.5 199.5Q256 170 256 148Q256 126 257 118Q259 98 267.5 88Q276 78 300 78H327Q327 73 326.5 62Q326 51 326 38Q326 25 326.5 13.5Q327 2 327 -2Q299 -2 272 -1Q249 -1 223.5 -0.5Q198 0 178 0Q158 0 132.5 -0.5Q107 -1 84 -1Q58 -2 30 -2ZM335 722Q348 686 344.5 659.5Q341 633 327 615Q313 597 291 588Q269 579 244 579Q209 579 186 594Q163 609 145 638Q131 659 121 668.5Q111 678 95 678Q77 678 67 659.5Q57 641 70 597L44 589Q32 626 35 653Q38 680 52 698Q66 716 88 724.5Q110 733 136 733Q166 733 189 719.5Q212 706 234 674Q248 654 259 644Q270 634 284 634Q304 634 313 652.5Q322 671 310 715Z" glyph-name="Itilde.sc" horiz-adv-x="357" /><glyph d="M198 157Q198 133 188.5 116.5Q179 100 163.5 90Q148 80 128 76.5Q108 73 87 76Q104 60 126.5 51Q149 42 181 42Q235 42 264 76Q293 110 296 197Q297 228 297.5 279Q298 330 298 383Q298 436 297.5 481Q297 526 296 545Q294 574 283 586.5Q272 599 244 599H204V690Q236 689 269 688Q297 687 327.5 687Q358 687 383 687Q407 687 436.5 687.5Q466 688 493 688.5Q520 689 539.5 689.5Q559 690 562 690Q562 685 561.5 672Q561 659 561 644.5Q561 630 561.5 617Q562 604 562 599H530Q504 599 492 588Q480 577 478 545Q478 537 477.5 511.5Q477 486 477 452Q477 418 477 379Q477 340 477 304.5Q477 269 477.5 241.5Q478 214 478 202Q479 147 461 106Q443 65 409 37.5Q375 10 326.5 -4Q278 -18 218 -18Q168 -18 130 -6Q92 6 66.5 27.5Q41 49 28 77.5Q15 106 15 139Q15 182 40 210Q65 238 112 238Q151 238 174.5 216.5Q198 195 198 157Z" glyph-name="J" horiz-adv-x="589" unicode="J" /><glyph d="M81 50Q94 41 110.5 35.5Q127 30 147 30Q187 30 209.5 54Q232 78 234 144Q235 174 235 214Q235 254 235 292.5Q235 331 235 362.5Q235 394 234 406Q232 428 224 438.5Q216 449 193 449H164Q165 463 165 477Q165 491 165 502Q165 515 164 528Q191 527 217 527Q240 526 264.5 526Q289 526 309 526Q329 526 353 526.5Q377 527 399 527Q421 527 436.5 527.5Q452 528 454 528Q453 515 453 502Q453 491 453 477Q453 463 454 449H434Q414 449 404.5 440.5Q395 432 393 406Q392 394 392 360Q392 326 392 285.5Q392 245 392.5 207Q393 169 393 149Q393 103 376 71Q359 39 330 18.5Q301 -2 263 -11Q225 -20 183 -20Q101 -20 58.5 12.5Q16 45 16 99Q16 136 38 155.5Q60 175 93 175Q125 175 143 157.5Q161 140 161 110Q161 78 140 63Q119 48 81 50Z" glyph-name="J.sc" horiz-adv-x="488" /><glyph d="M198 157Q198 133 188.5 116.5Q179 100 163.5 90Q148 80 128 76.5Q108 73 87 76Q104 60 126.5 51Q149 42 181 42Q235 42 264 76Q293 110 296 197Q297 228 297.5 279Q298 330 298 383Q298 436 297.5 481Q297 526 296 545Q294 574 283 586.5Q272 599 244 599H204V690Q236 689 269 688Q297 687 327.5 687Q358 687 383 687Q407 687 436.5 687.5Q466 688 493 688.5Q520 689 539.5 689.5Q559 690 562 690Q562 685 561.5 672Q561 659 561 644.5Q561 630 561.5 617Q562 604 562 599H530Q504 599 492 588Q480 577 478 545Q478 537 477.5 511.5Q477 486 477 452Q477 418 477 379Q477 340 477 304.5Q477 269 477.5 241.5Q478 214 478 202Q479 147 461 106Q443 65 409 37.5Q375 10 326.5 -4Q278 -18 218 -18Q168 -18 130 -6Q92 6 66.5 27.5Q41 49 28 77.5Q15 106 15 139Q15 182 40 210Q65 238 112 238Q151 238 174.5 216.5Q198 195 198 157ZM331 753Q344 770 359.5 789Q375 808 392 826Q409 844 426.5 859Q444 874 459 884Q484 897 503 893Q522 889 530 875Q538 861 533 842.5Q528 824 504 809Q471 788 424.5 769.5Q378 751 339 741Z" glyph-name="Jacute" horiz-adv-x="589" /><glyph d="M81 50Q94 41 110.5 35.5Q127 30 147 30Q187 30 209.5 54Q232 78 234 144Q235 174 235 214Q235 254 235 292.5Q235 331 235 362.5Q235 394 234 406Q232 428 224 438.5Q216 449 193 449H164Q165 463 165 477Q165 491 165 502Q165 515 164 528Q191 527 217 527Q240 526 264.5 526Q289 526 309 526Q329 526 353 526.5Q377 527 399 527Q421 527 436.5 527.5Q452 528 454 528Q453 515 453 502Q453 491 453 477Q453 463 454 449H434Q414 449 404.5 440.5Q395 432 393 406Q392 394 392 360Q392 326 392 285.5Q392 245 392.5 207Q393 169 393 149Q393 103 376 71Q359 39 330 18.5Q301 -2 263 -11Q225 -20 183 -20Q101 -20 58.5 12.5Q16 45 16 99Q16 136 38 155.5Q60 175 93 175Q125 175 143 157.5Q161 140 161 110Q161 78 140 63Q119 48 81 50ZM243 593Q256 610 271.5 629Q287 648 304 666Q321 684 338.5 699Q356 714 371 724Q396 737 415 733Q434 729 442 715Q450 701 445 682.5Q440 664 416 649Q383 628 336.5 609.5Q290 591 251 581Z" glyph-name="Jacute.sc" horiz-adv-x="488" /><glyph d="M198 157Q198 133 188.5 116.5Q179 100 163.5 90Q148 80 128 76.5Q108 73 87 76Q104 60 126.5 51Q149 42 181 42Q235 42 264 76Q293 110 296 197Q297 228 297.5 279Q298 330 298 383Q298 436 297.5 481Q297 526 296 545Q294 574 283 586.5Q272 599 244 599H204V690Q236 689 269 688Q297 687 327.5 687Q358 687 383 687Q407 687 436.5 687.5Q466 688 493 688.5Q520 689 539.5 689.5Q559 690 562 690Q562 685 561.5 672Q561 659 561 644.5Q561 630 561.5 617Q562 604 562 599H530Q504 599 492 588Q480 577 478 545Q478 537 477.5 511.5Q477 486 477 452Q477 418 477 379Q477 340 477 304.5Q477 269 477.5 241.5Q478 214 478 202Q479 147 461 106Q443 65 409 37.5Q375 10 326.5 -4Q278 -18 218 -18Q168 -18 130 -6Q92 6 66.5 27.5Q41 49 28 77.5Q15 106 15 139Q15 182 40 210Q65 238 112 238Q151 238 174.5 216.5Q198 195 198 157ZM517 734Q502 739 483.5 747.5Q465 756 445.5 767Q426 778 408 790Q390 802 376 814Q363 803 345 791Q327 779 308 768Q289 757 270.5 748Q252 739 239 735L230 745Q239 766 252.5 787Q266 808 282 827Q298 846 314.5 862.5Q331 879 345 891H412Q425 880 441 864Q457 848 472.5 829Q488 810 502 788.5Q516 767 526 745Z" glyph-name="Jcircumflex" horiz-adv-x="589" unicode="&#308;" /><glyph d="M81 50Q94 41 110.5 35.5Q127 30 147 30Q187 30 209.5 54Q232 78 234 144Q235 174 235 214Q235 254 235 292.5Q235 331 235 362.5Q235 394 234 406Q232 428 224 438.5Q216 449 193 449H164Q165 463 165 477Q165 491 165 502Q165 515 164 528Q191 527 217 527Q240 526 264.5 526Q289 526 309 526Q329 526 353 526.5Q377 527 399 527Q421 527 436.5 527.5Q452 528 454 528Q453 515 453 502Q453 491 453 477Q453 463 454 449H434Q414 449 404.5 440.5Q395 432 393 406Q392 394 392 360Q392 326 392 285.5Q392 245 392.5 207Q393 169 393 149Q393 103 376 71Q359 39 330 18.5Q301 -2 263 -11Q225 -20 183 -20Q101 -20 58.5 12.5Q16 45 16 99Q16 136 38 155.5Q60 175 93 175Q125 175 143 157.5Q161 140 161 110Q161 78 140 63Q119 48 81 50ZM451 588Q436 593 417.5 601.5Q399 610 379.5 621Q360 632 342 644Q324 656 310 668Q297 657 279 645Q261 633 242 622Q223 611 204.5 602Q186 593 173 589L164 599Q173 620 186.5 641Q200 662 216 681Q232 700 248.5 716.5Q265 733 279 745H346Q359 734 375 718Q391 702 406.5 683Q422 664 436 642.5Q450 621 460 599Z" glyph-name="Jcircumflex.sc" horiz-adv-x="488" /><glyph d="M28 -2Q29 16 29 32.5Q29 49 29 62Q29 77 28 91H64Q99 91 110 103.5Q121 116 123 147Q124 159 124.5 190Q125 221 125.5 261Q126 301 126 345.5Q126 390 125.5 430Q125 470 124.5 500.5Q124 531 123 543Q121 572 109 585.5Q97 599 65 599H28Q29 616 29 632Q29 648 29 661Q29 676 28 690Q62 689 95 688Q124 687 155.5 687Q187 687 212 687Q237 687 267.5 687.5Q298 688 325 688.5Q352 689 372 689.5Q392 690 395 690Q395 685 394.5 672Q394 659 394 644.5Q394 630 394.5 617Q395 604 395 599H353Q326 599 314.5 585.5Q303 572 301 543Q300 534 299.5 514.5Q299 495 299 469Q299 443 299 412Q299 381 299 349L509 530Q520 539 523.5 551Q527 563 523.5 573.5Q520 584 510 591.5Q500 599 483 599H445Q446 616 446 632Q446 648 446 661Q446 676 445 690Q479 689 512 688Q541 687 572 687Q603 687 628 687Q653 687 682.5 687.5Q712 688 738 688.5Q764 689 783 689.5Q802 690 805 690Q804 677 804 662Q804 649 804 632.5Q804 616 805 599H769Q743 599 721.5 594.5Q700 590 680.5 581Q661 572 642.5 559Q624 546 603 529L505 447Q515 432 531.5 406Q548 380 567.5 350Q587 320 608 288Q629 256 647 229Q665 202 679 182Q693 162 698 155Q711 139 720.5 127Q730 115 739.5 107Q749 99 760.5 95Q772 91 789 91H811Q810 78 810 63Q810 50 810 33Q810 16 811 -1Q777 -1 744 0Q715 1 683 1.5Q651 2 626 2Q601 2 569 1.5Q537 1 508 0Q475 -1 440 -1Q440 4 440.5 17Q441 30 441 45Q441 60 440.5 73Q440 86 440 91H466Q498 91 502 111Q506 131 486 166Q482 172 469 192.5Q456 213 439.5 238.5Q423 264 405 290.5Q387 317 373 336L299 274Q299 230 299.5 195.5Q300 161 301 147Q303 118 312 104.5Q321 91 351 91H391Q391 86 390.5 72.5Q390 59 390 44.5Q390 30 390.5 16.5Q391 3 391 -2Q358 -2 325 -1Q297 -1 265.5 -0.5Q234 0 210 0Q185 0 154 -0.5Q123 -1 95 -1Q62 -2 28 -2Z" glyph-name="K" horiz-adv-x="839" unicode="K" /><glyph d="M30 -2Q31 12 31 27Q31 42 31 53Q31 66 30 78H56Q84 78 91.5 88Q99 98 101 121Q102 129 102 151Q102 173 102.5 202Q103 231 102.5 263.5Q102 296 102 324.5Q102 353 101.5 375Q101 397 101 405Q99 428 91 438.5Q83 449 57 449H30Q31 463 31 477.5Q31 492 31 503Q31 516 30 528Q57 527 83 527Q106 526 131 526Q156 526 176 526Q196 526 220 526.5Q244 527 265.5 527Q287 527 303 527.5Q319 528 323 528Q322 516 322 503Q322 492 322 477.5Q322 463 323 449H295Q273 449 266 438.5Q259 428 257 405Q256 399 255.5 386Q255 373 255 355Q255 337 255 315.5Q255 294 255 272L408 393Q417 400 420.5 410Q424 420 421 428.5Q418 437 409.5 443Q401 449 388 449H361Q361 453 361.5 464.5Q362 476 362 488.5Q362 501 361.5 512Q361 523 361 528Q389 527 415 527Q438 526 463 526Q488 526 508 526Q528 526 551.5 526.5Q575 527 596.5 527Q618 527 634 527.5Q650 528 654 528Q653 516 653 503Q653 492 653 478Q653 464 654 449H624Q581 449 551 434.5Q521 420 487 395L423 346Q435 328 456.5 295Q478 262 501.5 227.5Q525 193 544.5 164Q564 135 572 125Q592 101 604 89.5Q616 78 639 78H655Q654 66 654 53Q654 42 654 27.5Q654 13 655 -2Q627 -2 601 -1Q578 -1 553 -0.5Q528 0 508 0Q488 0 462.5 -0.5Q437 -1 414 -1Q388 -2 360 -2Q361 13 361 27.5Q361 42 361 53Q361 66 360 78H379Q403 78 405.5 96Q408 114 388 143Q384 149 374.5 162.5Q365 176 353 192.5Q341 209 328.5 225.5Q316 242 306 255Q291 244 278.5 233.5Q266 223 255 215Q255 182 255.5 155.5Q256 129 257 121Q259 99 265 88.5Q271 78 292 78H321Q320 66 320 53Q320 42 320 27Q320 12 321 -2Q294 -2 268 -1Q245 -1 220.5 -0.5Q196 0 176 0Q156 0 131 -0.5Q106 -1 83 -1Q57 -2 30 -2Z" glyph-name="K.sc" horiz-adv-x="686" /><glyph d="M28 -2Q29 16 29 32.5Q29 49 29 62Q29 77 28 91H64Q99 91 110 103.5Q121 116 123 147Q124 159 124.5 190Q125 221 125.5 261Q126 301 126 345.5Q126 390 125.5 430Q125 470 124.5 500.5Q124 531 123 543Q121 572 109 585.5Q97 599 65 599H28Q29 616 29 632Q29 648 29 661Q29 676 28 690Q62 689 95 688Q124 687 155.5 687Q187 687 212 687Q237 687 267.5 687.5Q298 688 325 688.5Q352 689 372 689.5Q392 690 395 690Q395 685 394.5 672Q394 659 394 644.5Q394 630 394.5 617Q395 604 395 599H353Q326 599 314.5 585.5Q303 572 301 543Q300 534 299.5 514.5Q299 495 299 469Q299 443 299 412Q299 381 299 349L509 530Q520 539 523.5 551Q527 563 523.5 573.5Q520 584 510 591.5Q500 599 483 599H445Q446 616 446 632Q446 648 446 661Q446 676 445 690Q479 689 512 688Q541 687 572 687Q603 687 628 687Q653 687 682.5 687.5Q712 688 738 688.5Q764 689 783 689.5Q802 690 805 690Q804 677 804 662Q804 649 804 632.5Q804 616 805 599H769Q743 599 721.5 594.5Q700 590 680.5 581Q661 572 642.5 559Q624 546 603 529L505 447Q515 432 531.5 406Q548 380 567.5 350Q587 320 608 288Q629 256 647 229Q665 202 679 182Q693 162 698 155Q711 139 720.5 127Q730 115 739.5 107Q749 99 760.5 95Q772 91 789 91H811Q810 78 810 63Q810 50 810 33Q810 16 811 -1Q777 -1 744 0Q715 1 683 1.5Q651 2 626 2Q601 2 569 1.5Q537 1 508 0Q475 -1 440 -1Q440 4 440.5 17Q441 30 441 45Q441 60 440.5 73Q440 86 440 91H466Q498 91 502 111Q506 131 486 166Q482 172 469 192.5Q456 213 439.5 238.5Q423 264 405 290.5Q387 317 373 336L299 274Q299 230 299.5 195.5Q300 161 301 147Q303 118 312 104.5Q321 91 351 91H391Q391 86 390.5 72.5Q390 59 390 44.5Q390 30 390.5 16.5Q391 3 391 -2Q358 -2 325 -1Q297 -1 265.5 -0.5Q234 0 210 0Q185 0 154 -0.5Q123 -1 95 -1Q62 -2 28 -2ZM341 -259Q396 -246 424 -217.5Q452 -189 455 -147Q440 -173 407 -173Q360 -173 360 -118Q360 -91 377 -74Q394 -57 423 -57Q455 -57 470.5 -78.5Q486 -100 486 -133Q486 -190 448 -227.5Q410 -265 346 -279Z" glyph-name="Kcommaaccent" horiz-adv-x="839" unicode="&#310;" /><glyph d="M30 -2Q31 12 31 27Q31 42 31 53Q31 66 30 78H56Q84 78 91.5 88Q99 98 101 121Q102 129 102 151Q102 173 102.5 202Q103 231 102.5 263.5Q102 296 102 324.5Q102 353 101.5 375Q101 397 101 405Q99 428 91 438.5Q83 449 57 449H30Q31 463 31 477.5Q31 492 31 503Q31 516 30 528Q57 527 83 527Q106 526 131 526Q156 526 176 526Q196 526 220 526.5Q244 527 265.5 527Q287 527 303 527.5Q319 528 323 528Q322 516 322 503Q322 492 322 477.5Q322 463 323 449H295Q273 449 266 438.5Q259 428 257 405Q256 399 255.5 386Q255 373 255 355Q255 337 255 315.5Q255 294 255 272L408 393Q417 400 420.5 410Q424 420 421 428.5Q418 437 409.5 443Q401 449 388 449H361Q361 453 361.5 464.5Q362 476 362 488.5Q362 501 361.5 512Q361 523 361 528Q389 527 415 527Q438 526 463 526Q488 526 508 526Q528 526 551.5 526.5Q575 527 596.5 527Q618 527 634 527.5Q650 528 654 528Q653 516 653 503Q653 492 653 478Q653 464 654 449H624Q581 449 551 434.5Q521 420 487 395L423 346Q435 328 456.5 295Q478 262 501.5 227.5Q525 193 544.5 164Q564 135 572 125Q592 101 604 89.5Q616 78 639 78H655Q654 66 654 53Q654 42 654 27.5Q654 13 655 -2Q627 -2 601 -1Q578 -1 553 -0.5Q528 0 508 0Q488 0 462.5 -0.5Q437 -1 414 -1Q388 -2 360 -2Q361 13 361 27.5Q361 42 361 53Q361 66 360 78H379Q403 78 405.5 96Q408 114 388 143Q384 149 374.5 162.5Q365 176 353 192.5Q341 209 328.5 225.5Q316 242 306 255Q291 244 278.5 233.5Q266 223 255 215Q255 182 255.5 155.5Q256 129 257 121Q259 99 265 88.5Q271 78 292 78H321Q320 66 320 53Q320 42 320 27Q320 12 321 -2Q294 -2 268 -1Q245 -1 220.5 -0.5Q196 0 176 0Q156 0 131 -0.5Q106 -1 83 -1Q57 -2 30 -2ZM261 -259Q316 -246 344 -217.5Q372 -189 375 -147Q360 -173 327 -173Q280 -173 280 -118Q280 -91 297 -74Q314 -57 343 -57Q375 -57 390.5 -78.5Q406 -100 406 -133Q406 -190 368 -227.5Q330 -265 266 -279Z" glyph-name="Kcommaaccent.sc" horiz-adv-x="686" /><glyph d="M405 690Q405 685 404.5 672Q404 659 404 644.5Q404 630 404 617Q404 604 404 599H363Q333 599 319 586Q305 573 303 540Q302 526 301.5 496Q301 466 301 427.5Q301 389 301 346Q301 303 301 263.5Q301 224 301.5 191.5Q302 159 303 143Q305 111 319.5 101Q334 91 360 91H414Q448 91 473 98Q498 105 514.5 126.5Q531 148 540.5 187Q550 226 552 290Q557 290 569.5 289.5Q582 289 596.5 289Q611 289 623.5 289.5Q636 290 641 290Q639 263 638 224Q637 185 636 143Q635 101 635 62Q635 23 636 -4Q613 -3 584.5 -2Q556 -1 528 -0.5Q500 0 474.5 0Q449 0 431 0H201Q186 0 163 0Q140 0 115 -0.5Q90 -1 67 -1.5Q44 -2 28 -2V91H69Q104 91 113.5 104.5Q123 118 125 149Q126 165 126.5 196.5Q127 228 127 267.5Q127 307 127 349.5Q127 392 127 430.5Q127 469 126.5 498Q126 527 125 540Q123 569 111.5 584Q100 599 73 599H30V690Q65 689 99 688Q128 687 160 687Q192 687 218 687Q243 687 273.5 687.5Q304 688 332 688.5Q360 689 380 689.5Q400 690 405 690Z" glyph-name="L" horiz-adv-x="663" unicode="L" /><glyph d="M335 528Q335 523 334.5 512Q334 501 334 488.5Q334 476 334.5 464.5Q335 453 335 449H305Q281 449 270 438.5Q259 428 257 402Q256 392 256 370.5Q256 349 255.5 321Q255 293 255.5 262Q256 231 256 203Q256 175 256 152.5Q256 130 257 120Q259 94 271 86Q283 78 304 78H340Q363 78 381 83.5Q399 89 412 104Q425 119 432 145Q439 171 441 212L442 229Q446 229 457.5 228.5Q469 228 481 228Q493 228 504 228.5Q515 229 520 229Q518 208 517 177Q516 146 515.5 113Q515 80 515 49Q515 18 516 -3Q502 -2 480.5 -1.5Q459 -1 436.5 -0.5Q414 0 393 0Q372 0 359 0H157Q130 -1 105 -1Q84 -1 62 -1.5Q40 -2 28 -2Q28 2 28.5 13.5Q29 25 29 38Q29 51 28.5 62Q28 73 28 78H57Q85 78 92 90Q99 102 101 127Q102 137 102 158.5Q102 180 102.5 208Q103 236 102.5 266.5Q102 297 102 324.5Q102 352 101.5 372.5Q101 393 101 402Q99 424 90 436.5Q81 449 60 449H29Q29 453 29.5 464.5Q30 476 30 488.5Q30 501 29.5 512Q29 523 29 528Q57 527 85 527Q109 526 135.5 526Q162 526 183 526Q204 526 228.5 526.5Q253 527 275 527Q297 527 313.5 527.5Q330 528 335 528Z" glyph-name="L.sc" horiz-adv-x="551" /><glyph d="M405 690Q405 685 404.5 672Q404 659 404 644.5Q404 630 404 617Q404 604 404 599H363Q333 599 319 586Q305 573 303 540Q302 526 301.5 496Q301 466 301 427.5Q301 389 301 346Q301 303 301 263.5Q301 224 301.5 191.5Q302 159 303 143Q305 111 319.5 101Q334 91 360 91H414Q448 91 473 98Q498 105 514.5 126.5Q531 148 540.5 187Q550 226 552 290Q557 290 569.5 289.5Q582 289 596.5 289Q611 289 623.5 289.5Q636 290 641 290Q639 263 638 224Q637 185 636 143Q635 101 635 62Q635 23 636 -4Q613 -3 584.5 -2Q556 -1 528 -0.5Q500 0 474.5 0Q449 0 431 0H201Q186 0 163 0Q140 0 115 -0.5Q90 -1 67 -1.5Q44 -2 28 -2V91H69Q104 91 113.5 104.5Q123 118 125 149Q126 165 126.5 196.5Q127 228 127 267.5Q127 307 127 349.5Q127 392 127 430.5Q127 469 126.5 498Q126 527 125 540Q123 569 111.5 584Q100 599 73 599H30V690Q65 689 99 688Q128 687 160 687Q192 687 218 687Q243 687 273.5 687.5Q304 688 332 688.5Q360 689 380 689.5Q400 690 405 690ZM193 754Q206 771 221.5 790Q237 809 254 827Q271 845 288.5 860Q306 875 321 885Q346 898 365 894Q384 890 392 876Q400 862 395 843.5Q390 825 366 810Q333 789 286.5 770.5Q240 752 201 742Z" glyph-name="Lacute" horiz-adv-x="663" unicode="&#313;" /><glyph d="M335 528Q335 523 334.5 512Q334 501 334 488.5Q334 476 334.5 464.5Q335 453 335 449H305Q281 449 270 438.5Q259 428 257 402Q256 392 256 370.5Q256 349 255.5 321Q255 293 255.5 262Q256 231 256 203Q256 175 256 152.5Q256 130 257 120Q259 94 271 86Q283 78 304 78H340Q363 78 381 83.5Q399 89 412 104Q425 119 432 145Q439 171 441 212L442 229Q446 229 457.5 228.5Q469 228 481 228Q493 228 504 228.5Q515 229 520 229Q518 208 517 177Q516 146 515.5 113Q515 80 515 49Q515 18 516 -3Q502 -2 480.5 -1.5Q459 -1 436.5 -0.5Q414 0 393 0Q372 0 359 0H157Q130 -1 105 -1Q84 -1 62 -1.5Q40 -2 28 -2Q28 2 28.5 13.5Q29 25 29 38Q29 51 28.5 62Q28 73 28 78H57Q85 78 92 90Q99 102 101 127Q102 137 102 158.5Q102 180 102.5 208Q103 236 102.5 266.5Q102 297 102 324.5Q102 352 101.5 372.5Q101 393 101 402Q99 424 90 436.5Q81 449 60 449H29Q29 453 29.5 464.5Q30 476 30 488.5Q30 501 29.5 512Q29 523 29 528Q57 527 85 527Q109 526 135.5 526Q162 526 183 526Q204 526 228.5 526.5Q253 527 275 527Q297 527 313.5 527.5Q330 528 335 528ZM161 598Q174 615 189.5 634Q205 653 222 671Q239 689 256.5 704Q274 719 289 729Q314 742 333 738Q352 734 360 720Q368 706 363 687.5Q358 669 334 654Q301 633 254.5 614.5Q208 596 169 586Z" glyph-name="Lacute.sc" horiz-adv-x="551" /><glyph d="M405 690Q405 685 404.5 672Q404 659 404 644.5Q404 630 404 617Q404 604 404 599H363Q333 599 319 586Q305 573 303 540Q302 526 301.5 496Q301 466 301 427.5Q301 389 301 346Q301 303 301 263.5Q301 224 301.5 191.5Q302 159 303 143Q305 111 319.5 101Q334 91 360 91H414Q448 91 473 98Q498 105 514.5 126.5Q531 148 540.5 187Q550 226 552 290Q557 290 569.5 289.5Q582 289 596.5 289Q611 289 623.5 289.5Q636 290 641 290Q639 263 638 224Q637 185 636 143Q635 101 635 62Q635 23 636 -4Q613 -3 584.5 -2Q556 -1 528 -0.5Q500 0 474.5 0Q449 0 431 0H201Q186 0 163 0Q140 0 115 -0.5Q90 -1 67 -1.5Q44 -2 28 -2V91H69Q104 91 113.5 104.5Q123 118 125 149Q126 165 126.5 196.5Q127 228 127 267.5Q127 307 127 349.5Q127 392 127 430.5Q127 469 126.5 498Q126 527 125 540Q123 569 111.5 584Q100 599 73 599H30V690Q65 689 99 688Q128 687 160 687Q192 687 218 687Q243 687 273.5 687.5Q304 688 332 688.5Q360 689 380 689.5Q400 690 405 690ZM475 504Q530 517 558 545.5Q586 574 589 616Q574 590 541 590Q494 590 494 645Q494 672 511 689Q528 706 557 706Q589 706 604.5 684.5Q620 663 620 630Q620 573 582 535.5Q544 498 480 484Z" glyph-name="Lcaron" horiz-adv-x="663" unicode="&#317;" /><glyph d="M335 528Q335 523 334.5 512Q334 501 334 488.5Q334 476 334.5 464.5Q335 453 335 449H305Q281 449 270 438.5Q259 428 257 402Q256 392 256 370.5Q256 349 255.5 321Q255 293 255.5 262Q256 231 256 203Q256 175 256 152.5Q256 130 257 120Q259 94 271 86Q283 78 304 78H340Q363 78 381 83.5Q399 89 412 104Q425 119 432 145Q439 171 441 212L442 229Q446 229 457.5 228.5Q469 228 481 228Q493 228 504 228.5Q515 229 520 229Q518 208 517 177Q516 146 515.5 113Q515 80 515 49Q515 18 516 -3Q502 -2 480.5 -1.5Q459 -1 436.5 -0.5Q414 0 393 0Q372 0 359 0H157Q130 -1 105 -1Q84 -1 62 -1.5Q40 -2 28 -2Q28 2 28.5 13.5Q29 25 29 38Q29 51 28.5 62Q28 73 28 78H57Q85 78 92 90Q99 102 101 127Q102 137 102 158.5Q102 180 102.5 208Q103 236 102.5 266.5Q102 297 102 324.5Q102 352 101.5 372.5Q101 393 101 402Q99 424 90 436.5Q81 449 60 449H29Q29 453 29.5 464.5Q30 476 30 488.5Q30 501 29.5 512Q29 523 29 528Q57 527 85 527Q109 526 135.5 526Q162 526 183 526Q204 526 228.5 526.5Q253 527 275 527Q297 527 313.5 527.5Q330 528 335 528ZM392 352Q447 365 475 393.5Q503 422 506 464Q491 438 458 438Q411 438 411 493Q411 520 428 537Q445 554 474 554Q506 554 521.5 532.5Q537 511 537 478Q537 421 499 383.5Q461 346 397 332Z" glyph-name="Lcaron.sc" horiz-adv-x="573" /><glyph d="M405 690Q405 685 404.5 672Q404 659 404 644.5Q404 630 404 617Q404 604 404 599H363Q333 599 319 586Q305 573 303 540Q302 526 301.5 496Q301 466 301 427.5Q301 389 301 346Q301 303 301 263.5Q301 224 301.5 191.5Q302 159 303 143Q305 111 319.5 101Q334 91 360 91H414Q448 91 473 98Q498 105 514.5 126.5Q531 148 540.5 187Q550 226 552 290Q557 290 569.5 289.5Q582 289 596.5 289Q611 289 623.5 289.5Q636 290 641 290Q639 263 638 224Q637 185 636 143Q635 101 635 62Q635 23 636 -4Q613 -3 584.5 -2Q556 -1 528 -0.5Q500 0 474.5 0Q449 0 431 0H201Q186 0 163 0Q140 0 115 -0.5Q90 -1 67 -1.5Q44 -2 28 -2V91H69Q104 91 113.5 104.5Q123 118 125 149Q126 165 126.5 196.5Q127 228 127 267.5Q127 307 127 349.5Q127 392 127 430.5Q127 469 126.5 498Q126 527 125 540Q123 569 111.5 584Q100 599 73 599H30V690Q65 689 99 688Q128 687 160 687Q192 687 218 687Q243 687 273.5 687.5Q304 688 332 688.5Q360 689 380 689.5Q400 690 405 690ZM245 -259Q300 -246 328 -217.5Q356 -189 359 -147Q344 -173 311 -173Q264 -173 264 -118Q264 -91 281 -74Q298 -57 327 -57Q359 -57 374.5 -78.5Q390 -100 390 -133Q390 -190 352 -227.5Q314 -265 250 -279Z" glyph-name="Lcommaaccent" horiz-adv-x="663" unicode="&#315;" /><glyph d="M335 528Q335 523 334.5 512Q334 501 334 488.5Q334 476 334.5 464.5Q335 453 335 449H305Q281 449 270 438.5Q259 428 257 402Q256 392 256 370.5Q256 349 255.5 321Q255 293 255.5 262Q256 231 256 203Q256 175 256 152.5Q256 130 257 120Q259 94 271 86Q283 78 304 78H340Q363 78 381 83.5Q399 89 412 104Q425 119 432 145Q439 171 441 212L442 229Q446 229 457.5 228.5Q469 228 481 228Q493 228 504 228.5Q515 229 520 229Q518 208 517 177Q516 146 515.5 113Q515 80 515 49Q515 18 516 -3Q502 -2 480.5 -1.5Q459 -1 436.5 -0.5Q414 0 393 0Q372 0 359 0H157Q130 -1 105 -1Q84 -1 62 -1.5Q40 -2 28 -2Q28 2 28.5 13.5Q29 25 29 38Q29 51 28.5 62Q28 73 28 78H57Q85 78 92 90Q99 102 101 127Q102 137 102 158.5Q102 180 102.5 208Q103 236 102.5 266.5Q102 297 102 324.5Q102 352 101.5 372.5Q101 393 101 402Q99 424 90 436.5Q81 449 60 449H29Q29 453 29.5 464.5Q30 476 30 488.5Q30 501 29.5 512Q29 523 29 528Q57 527 85 527Q109 526 135.5 526Q162 526 183 526Q204 526 228.5 526.5Q253 527 275 527Q297 527 313.5 527.5Q330 528 335 528ZM186 -259Q241 -246 269 -217.5Q297 -189 300 -147Q285 -173 252 -173Q205 -173 205 -118Q205 -91 222 -74Q239 -57 268 -57Q300 -57 315.5 -78.5Q331 -100 331 -133Q331 -190 293 -227.5Q255 -265 191 -279Z" glyph-name="Lcommaaccent.sc" horiz-adv-x="551" /><glyph d="M405 690Q405 685 404.5 672Q404 659 404 644.5Q404 630 404 617Q404 604 404 599H363Q333 599 319 586Q305 573 303 540Q302 526 301.5 496Q301 466 301 427.5Q301 389 301 346Q301 303 301 263.5Q301 224 301.5 191.5Q302 159 303 143Q305 111 319.5 101Q334 91 360 91H414Q448 91 473 98Q498 105 514.5 126.5Q531 148 540.5 187Q550 226 552 290Q557 290 569.5 289.5Q582 289 596.5 289Q611 289 623.5 289.5Q636 290 641 290Q639 263 638 224Q637 185 636 143Q635 101 635 62Q635 23 636 -4Q613 -3 584.5 -2Q556 -1 528 -0.5Q500 0 474.5 0Q449 0 431 0H201Q186 0 163 0Q140 0 115 -0.5Q90 -1 67 -1.5Q44 -2 28 -2V91H69Q104 91 113.5 104.5Q123 118 125 149Q126 165 126.5 196.5Q127 228 127 267.5Q127 307 127 349.5Q127 392 127 430.5Q127 469 126.5 498Q126 527 125 540Q123 569 111.5 584Q100 599 73 599H30V690Q65 689 99 688Q128 687 160 687Q192 687 218 687Q243 687 273.5 687.5Q304 688 332 688.5Q360 689 380 689.5Q400 690 405 690ZM540 392Q540 363 522.5 345Q505 327 476 327Q448 327 430.5 345Q413 363 413 392Q413 421 430.5 438Q448 455 476 455Q505 455 522.5 438Q540 421 540 392Z" glyph-name="Ldot" horiz-adv-x="663" unicode="&#319;" /><glyph d="M335 528Q335 523 334.5 512Q334 501 334 488.5Q334 476 334.5 464.5Q335 453 335 449H305Q281 449 270 438.5Q259 428 257 402Q256 392 256 370.5Q256 349 255.5 321Q255 293 255.5 262Q256 231 256 203Q256 175 256 152.5Q256 130 257 120Q259 94 271 86Q283 78 304 78H340Q363 78 381 83.5Q399 89 412 104Q425 119 432 145Q439 171 441 212L442 229Q446 229 457.5 228.5Q469 228 481 228Q493 228 504 228.5Q515 229 520 229Q518 208 517 177Q516 146 515.5 113Q515 80 515 49Q515 18 516 -3Q502 -2 480.5 -1.5Q459 -1 436.5 -0.5Q414 0 393 0Q372 0 359 0H157Q130 -1 105 -1Q84 -1 62 -1.5Q40 -2 28 -2Q28 2 28.5 13.5Q29 25 29 38Q29 51 28.5 62Q28 73 28 78H57Q85 78 92 90Q99 102 101 127Q102 137 102 158.5Q102 180 102.5 208Q103 236 102.5 266.5Q102 297 102 324.5Q102 352 101.5 372.5Q101 393 101 402Q99 424 90 436.5Q81 449 60 449H29Q29 453 29.5 464.5Q30 476 30 488.5Q30 501 29.5 512Q29 523 29 528Q57 527 85 527Q109 526 135.5 526Q162 526 183 526Q204 526 228.5 526.5Q253 527 275 527Q297 527 313.5 527.5Q330 528 335 528ZM501 354Q501 325 483.5 307Q466 289 437 289Q409 289 391.5 307Q374 325 374 354Q374 383 391.5 400Q409 417 437 417Q466 417 483.5 400Q501 383 501 354Z" glyph-name="Ldot.sc" horiz-adv-x="551" /><glyph d="M405 690Q405 685 404.5 672Q404 659 404 644.5Q404 630 404 617Q404 604 404 599H363Q333 599 319 586Q305 573 303 540Q302 526 301.5 492Q301 458 301 416Q329 428 352 437.5Q375 447 389 454L409 400Q392 394 363.5 383Q335 372 301 358Q301 325 301 292Q301 259 301 230Q301 201 301.5 178.5Q302 156 303 143Q305 111 319.5 101Q334 91 360 91H414Q448 91 473 98Q498 105 514.5 126.5Q531 148 540.5 187Q550 226 552 290Q557 290 569.5 289.5Q582 289 596.5 289Q611 289 623.5 289.5Q636 290 641 290Q639 263 638 224Q637 185 636 143Q635 101 635 62Q635 23 636 -4Q613 -3 584.5 -2Q556 -1 528 -0.5Q500 0 474.5 0Q449 0 431 0H201Q186 0 163 0Q140 0 115 -0.5Q90 -1 67 -1.5Q44 -2 28 -2V91H69Q104 91 113.5 104.5Q123 118 125 149Q125 158 125.5 175.5Q126 193 126.5 213Q127 233 127 253Q127 273 127 286L81 266L61 320L127 346Q127 378 127 408.5Q127 439 126.5 465Q126 491 125.5 510.5Q125 530 125 540Q123 569 111.5 584Q100 599 73 599H30V690Q65 689 99 688Q128 687 160 687Q192 687 218 687Q243 687 273.5 687.5Q304 688 332 688.5Q360 689 380 689.5Q400 690 405 690Z" glyph-name="Lslash" horiz-adv-x="663" unicode="&#321;" /><glyph d="M335 528Q335 523 334.5 512Q334 501 334 488.5Q334 476 334.5 464.5Q335 453 335 449H305Q281 449 270 438.5Q259 428 257 402Q256 391 255.5 365Q255 339 255 307L333 340L352 288Q335 282 310 272Q285 262 255 250Q255 208 255.5 171Q256 134 257 120Q259 94 271 86Q283 78 304 78H340Q363 78 381 83.5Q399 89 412 104Q425 119 432 145Q439 171 441 212L442 229Q446 229 457.5 228.5Q469 228 481 228Q493 228 504 228.5Q515 229 520 229Q518 208 517 177Q516 146 515.5 113Q515 80 515 49Q515 18 516 -3Q502 -2 480.5 -1.5Q459 -1 436.5 -0.5Q414 0 393 0Q372 0 359 0H157Q130 -1 105 -1Q84 -1 62 -1.5Q40 -2 28 -2Q28 2 28.5 13.5Q29 25 29 38Q29 51 28.5 62Q28 73 28 78H57Q85 78 92 90Q99 102 101 127Q102 138 102 152Q102 166 102 186L56 166L38 218L102 243Q102 268 102 293.5Q102 319 102 340.5Q102 362 101.5 378.5Q101 395 101 402Q99 424 90 436.5Q81 449 60 449H29Q29 453 29.5 464.5Q30 476 30 488.5Q30 501 29.5 512Q29 523 29 528Q57 527 85 527Q109 526 135.5 526Q162 526 183 526Q204 526 228.5 526.5Q253 527 275 527Q297 527 313.5 527.5Q330 528 335 528Z" glyph-name="Lslash.sc" horiz-adv-x="551" /><glyph d="M429 53Q412 91 385.5 147Q359 203 329.5 263.5Q300 324 271 382.5Q242 441 219 486Q218 456 218 408Q218 360 218 310.5Q218 261 218.5 219.5Q219 178 220 162Q222 123 236 107Q250 91 285 91H332Q332 86 331.5 72.5Q331 59 331 44.5Q331 30 331.5 16.5Q332 3 332 -2Q304 -2 277 -1Q254 -1 227 -0.5Q200 0 180 0Q159 0 132.5 -0.5Q106 -1 83 -1Q56 -2 28 -2V91H66Q99 91 113 106.5Q127 122 129 162Q130 174 130.5 203.5Q131 233 131 270.5Q131 308 131 350Q131 392 131 429.5Q131 467 130.5 496.5Q130 526 129 539Q126 599 71 599H29V690Q57 689 97.5 688.5Q138 688 181.5 688Q225 688 265.5 688.5Q306 689 334 690Q348 658 369.5 613Q391 568 415.5 518Q440 468 465.5 417.5Q491 367 512 326Q533 369 556.5 419.5Q580 470 603 519.5Q626 569 645.5 613.5Q665 658 679 690Q704 689 741.5 688.5Q779 688 819.5 688Q860 688 897.5 688.5Q935 689 960 690V599H919Q892 599 878 582.5Q864 566 862 537Q861 525 860.5 496.5Q860 468 860 430.5Q860 393 860 351Q860 309 860 271Q860 233 860.5 202.5Q861 172 862 158Q864 125 875 108Q886 91 921 91H960V-2Q924 -2 890 -1Q861 -1 828 -0.5Q795 0 769 0Q743 0 709.5 -0.5Q676 -1 647 -1Q613 -2 577 -2V91H618Q651 91 663 109Q675 127 677 159Q678 170 678 192.5Q678 215 678.5 244.5Q679 274 679 307.5Q679 341 679 374Q679 407 678.5 436.5Q678 466 678 488Q655 442 626.5 382.5Q598 323 569.5 262.5Q541 202 515.5 146.5Q490 91 473 53H429Z" glyph-name="M" horiz-adv-x="988" unicode="M" /></font>
</defs>
</svg>
