<?xml version="1.0" encoding="utf-8"?>
<!-- Generator: Adobe Illustrator 15.0.0, SVG Export Plug-In . SVG Version: 6.00 Build 0)  -->
<!DOCTYPE svg PUBLIC "-//W3C//DTD SVG 1.1//EN" "http://www.w3.org/Graphics/SVG/1.1/DTD/svg11.dtd">
<svg version="1.1" id="Layer_1" xmlns="http://www.w3.org/2000/svg" xmlns:xlink="http://www.w3.org/1999/xlink" x="0px" y="0px"
	 width="190.541px" height="45.008px" viewBox="0 0 190.541 45.008" enable-background="new 0 0 190.541 45.008"
	 xml:space="preserve">
<g id="Logo">
	<g>
		<path fill="#FFFFFF" d="M91.479,1c-12.134,0-22.006,9.872-22.006,22.004s9.872,22.004,22.006,22.004
			c12.132,0,22.004-9.872,22.004-22.004S103.61,1,91.479,1z M111.243,23.004c0,10.899-8.865,19.766-19.765,19.766
			s-19.767-8.867-19.767-19.766c0-10.898,8.867-19.764,19.767-19.764S111.243,12.106,111.243,23.004z"/>
		<path fill="#FFFFFF" d="M105.745,18.97l-8.136,13.663L91.48,22.347l-6.118,10.286L77.229,18.97h-2.752l10.886,18.3l4.508-7.58
			c1.085,0.188,2.14,0.188,3.231,0.002l4.507,7.578l10.886-18.3H105.745z"/>
		<path fill="#FFFFFF" d="M118.736,19.03h2.179l0.88,2.4c0.283,0.776,0.492,1.716,0.492,1.716s0.208-0.94,0.581-1.73l1.178-2.476
			h0.164l1.225,2.476c0.416,0.85,0.611,1.73,0.611,1.73s0.208-0.91,0.491-1.716l0.864-2.4h2.014l-2.982,7.89h-0.179l-1.507-2.968
			c-0.344-0.687-0.611-1.626-0.611-1.626s-0.253,0.939-0.611,1.626l-1.581,2.968h-0.179L118.736,19.03z"/>
		<path fill="#FFFFFF" d="M138.437,26.816h-2.281l-1.088-1.88c-0.105,0.016-0.209,0.016-0.314,0.016h-0.611v1.864h-2.027V19.03
			h2.639c2.061,0,3.565,0.925,3.565,2.983c0,1.164-0.536,1.939-1.372,2.371L138.437,26.816z M134.709,23.235
			c1.06,0,1.536-0.342,1.536-1.222c0-0.88-0.477-1.238-1.536-1.238h-0.567v2.46H134.709z"/>
		<path fill="#FFFFFF" d="M141.464,19.03h2.029v7.786h-2.029V19.03z"/>
		<path fill="#FFFFFF" d="M148.712,20.789h-2.207V19.03h6.458v1.759h-2.208v6.027h-2.043V20.789z"/>
		<path fill="#FFFFFF" d="M155.945,19.03h5.532v1.745h-3.504v1.686h2.924v1.654h-2.924v0.955h3.653v1.746h-5.682V19.03z"/>
		<path fill="#FFFFFF" d="M171.038,26.816h-2.281l-1.09-1.88c-0.104,0.016-0.209,0.016-0.312,0.016h-0.611v1.864h-2.027V19.03h2.639
			c2.059,0,3.564,0.925,3.564,2.983c0,1.164-0.537,1.939-1.372,2.371L171.038,26.816z M167.31,23.235
			c1.059,0,1.535-0.342,1.535-1.222c0-0.88-0.477-1.238-1.535-1.238h-0.566v2.46H167.31z"/>
		<path fill="#FFFFFF" d="M173.321,25.144l1.58-0.924c0.328,0.566,0.82,1.015,1.627,1.015c0.552,0,0.954-0.209,0.954-0.566
			c0-0.375-0.283-0.538-1.06-0.851l-0.327-0.134c-1.282-0.522-2.148-1.148-2.148-2.536c0-1.357,1.045-2.251,2.55-2.251
			c1.119,0,1.896,0.328,2.537,1.342l-1.536,0.88c-0.269-0.434-0.552-0.552-0.94-0.552c-0.402,0-0.671,0.208-0.671,0.552
			c0,0.417,0.343,0.567,0.806,0.76l0.328,0.135c1.432,0.581,2.476,1.164,2.476,2.64c0,1.445-1.104,2.297-2.938,2.297
			C174.976,26.95,173.829,26.189,173.321,25.144z"/>
		<path fill="#FFFFFF" d="M3.059,22.923c0-2.341,1.864-4.027,4.161-4.027c1.492,0,2.565,0.537,3.297,1.625L8.92,21.611
			c-0.358-0.583-0.895-0.925-1.729-0.925c-1.208,0-2.059,0.955-2.059,2.237c0,1.298,0.835,2.267,2.073,2.267
			c0.88,0,1.641-0.344,1.88-1.133H7.399v-1.612h3.714c0.239,2.655-1.238,4.505-3.908,4.505C4.953,26.95,3.059,25.309,3.059,22.923z"
			/>
		<path fill="#FFFFFF" d="M13.931,22.923c0-2.387,1.909-4.027,4.191-4.027c2.282,0,4.191,1.64,4.191,4.027
			c0,2.357-1.909,4.027-4.191,4.027C15.84,26.95,13.931,25.28,13.931,22.923z M20.24,22.923c0-1.312-0.865-2.237-2.118-2.237
			c-1.252,0-2.117,0.925-2.117,2.237c0,1.343,0.865,2.237,2.117,2.237C19.375,25.16,20.24,24.266,20.24,22.923z"/>
		<path fill="#FFFFFF" d="M26.86,20.791h-2.208V19.03h6.459v1.761h-2.208v6.025H26.86V20.791z"/>
		<path fill="#FFFFFF" d="M34.093,19.03h2.028v3.624H39V19.03h2.029v7.786H39v-2.357h-2.879v2.357h-2.028V19.03z"/>
		<path fill="#FFFFFF" d="M47.411,18.94h0.164l3.669,7.876h-2.103l-0.269-0.627h-2.878l-0.269,0.627h-1.969L47.411,18.94z
			 M48.365,24.817l-0.328-0.775c-0.343-0.805-0.582-1.642-0.582-1.642s-0.209,0.836-0.567,1.642l-0.342,0.775H48.365z"/>
		<path fill="#FFFFFF" d="M54.689,18.956h0.164l2.685,3.236c0.298,0.343,0.625,0.924,0.625,0.924s0.359-0.566,0.657-0.924
			l2.67-3.236h0.164l0.686,7.86h-1.969l-0.164-2.207c-0.059-0.775-0.059-1.521-0.059-1.521s-0.313,0.671-0.821,1.282l-1.088,1.312
			h-0.15l-1.103-1.298c-0.522-0.611-0.896-1.296-0.896-1.296s0.045,0.774-0.015,1.549l-0.164,2.179h-1.909L54.689,18.956z"/>
		<path fill="#FFFFFF" d="M101.124,20.18l0.004-1.197l-7.625-0.005l-1.42,2.386h6.572c-0.316,1.869-1.439,3.602-2.988,4.685
			l1.208,2.026C99.497,26.383,101.124,23.394,101.124,20.18z"/>
		<path fill="#FFFFFF" d="M84.211,20.178c0-4.01,3.261-7.272,7.27-7.272c1.713,0,3.52,0.691,4.832,1.851l0.289,0.256l0.203-0.329
			c0.055-0.091,0.322-0.542,0.552-0.926l0.486-0.813l-0.22-0.178c-1.753-1.417-3.991-2.23-6.143-2.23
			c-5.314,0-9.638,4.327-9.638,9.643c0,3.184,1.578,6.127,4.219,7.949l1.226-2.062C85.388,24.736,84.211,22.514,84.211,20.178z"/>
	</g>
</g>
</svg>
